<ttFont>
        <CharString name=".notdef">
          -138 0 50 600 50 hstem
          0 50 400 50 vstem
          0 vmoveto
          500 700 -500 hlineto
          250 -305 rmoveto
          -170 255 rlineto
          340 hlineto
          -140 -300 rmoveto
          170 255 rlineto
          -510 vlineto
          -370 -45 rmoveto
          170 255 170 -255 rlineto
          -370 555 rmoveto
          170 -255 -170 -255 rlineto
          endchar
        </CharString>
        <CharString name="A">
          100 21 -21 158 105 311 126 0 -20 hstemhm
          1 736 hintmask 11011000
          544 158 rmoveto
          67 -158 rlineto
          126 hlineto
          -306 700 rlineto
          -121 hlineto
          -309 -700 rlineto
          123 hlineto
          67 158 rlineto
          308 105 rmoveto
          -264 hlineto
          hintmask 11101000
          132 311 rlineto
          endchar
        </CharString>
        <CharString name="AE">
          414 0 106 67 92 34 105 190 106 -98 98 hstemhm
          488 117 hintmask 11110100
          999 106 rmoveto
          -394 193 343 105 -343 190 382 106 -580 hlineto
          -406 -700 rlineto
          123 hlineto
          98 173 rlineto
          266 -173 511 hlineto
          -511 265 rmoveto
          -214 hlineto
          hintmask 11101100
          190 337 rlineto
          24 hlineto
          endchar
        </CharString>
        <CharString name="Aacute">
          100 21 -21 158 105 311 126 0 -20 hstemhm
          1 736 hintmask 11011000
          404 776 rmoveto
          122 98 -118 50 -106 -148 rlineto
          242 -618 rmoveto
          67 -158 rlineto
          126 hlineto
          -306 700 rlineto
          -121 hlineto
          -309 -700 rlineto
          123 hlineto
          67 158 rlineto
          308 105 rmoveto
          -264 hlineto
          hintmask 11101000
          132 311 rlineto
          endchar
        </CharString>
        <CharString name="Abreve">
          100 21 -21 158 105 311 126 0 -20 94 77 hstemhm
          228 78 126 78 hintmask 11011110
          369 774 rmoveto
          80 58 57 85 3 hvcurveto
          -78 hlineto
          -38 -2 -26 -27 -35 hhcurveto
          -35 -26 27 38 -2 hvcurveto
          -78 hlineto
          -85 3 58 -57 80 hhcurveto
          175 -616 rmoveto
          67 -158 rlineto
          126 hlineto
          -306 700 rlineto
          -121 hlineto
          -309 -700 rlineto
          123 hlineto
          67 158 rlineto
          308 105 rmoveto
          -264 hlineto
          hintmask 11101110
          132 311 rlineto
          endchar
        </CharString>
        <CharString name="Acircumflex">
          100 21 -21 158 105 311 126 0 -20 99 141 hstemhm
          1 736 hintmask 11011100
          307 779 rmoveto
          62 88 62 -88 rlineto
          94 hlineto
          -103 141 rlineto
          -106 hlineto
          -103 -141 rlineto
          331 -621 rmoveto
          67 -158 rlineto
          126 hlineto
          -306 700 rlineto
          -121 hlineto
          -309 -700 rlineto
          123 hlineto
          67 158 rlineto
          308 105 rmoveto
          -264 hlineto
          hintmask 11101100
          132 311 rlineto
          endchar
        </CharString>
        <CharString name="Adieresis">
          100 21 -21 158 105 311 126 0 -20 114 127 hstemhm
          220 121 56 121 hintmask 11011110
          281 794 rmoveto
          35 25 27 36 37 -25 27 -35 -35 -26 -27 -37 -36 26 -27 35 hvcurveto
          177 hmoveto
          35 25 27 36 37 -25 27 -35 -35 -26 -27 -37 -36 26 -27 35 hvcurveto
          86 -636 rmoveto
          67 -158 rlineto
          126 hlineto
          -306 700 rlineto
          -121 hlineto
          -309 -700 rlineto
          123 hlineto
          67 158 rlineto
          308 105 rmoveto
          -264 hlineto
          hintmask 11101110
          132 311 rlineto
          endchar
        </CharString>
        <CharString name="Agrave">
          100 21 -21 158 105 311 126 0 -20 hstemhm
          1 736 hintmask 11011000
          329 777 rmoveto
          102 hlineto
          -106 148 -118 -50 rlineto
          337 -717 rmoveto
          67 -158 rlineto
          126 hlineto
          -306 700 rlineto
          -121 hlineto
          -309 -700 rlineto
          123 hlineto
          67 158 rlineto
          308 105 rmoveto
          -264 hlineto
          hintmask 11101000
          132 311 rlineto
          endchar
        </CharString>
        <CharString name="Amacron">
          100 21 -21 158 105 311 126 0 -20 129 83 hstemhm
          242 255 hintmask 00000000
          hintmask 11011100
          497 809 rmoveto
          83 -255 -83 vlineto
          302 -651 rmoveto
          67 -158 rlineto
          126 hlineto
          -306 700 rlineto
          -121 hlineto
          -309 -700 rlineto
          123 hlineto
          67 158 rlineto
          308 105 rmoveto
          -264 hlineto
          hintmask 11101100
          132 311 rlineto
          endchar
        </CharString>
        <CharString name="Aogonek">
          100 -201 64 158 -21 158 104 312 126 0 -20 hstemhm
          594 62 hintmask 11101100
          738 hmoveto
          -306 700 rlineto
          -122 hlineto
          -309 -700 rlineto
          123 hlineto
          68 158 rlineto
          352 hlineto
          68 -158 rlineto
          34 hlineto
          -33 -47 -19 -39 -37 vvcurveto
          -55 41 -23 38 37 36 21 36 22 vhcurveto
          -33 39 rlineto
          -19 -15 -16 -13 -18 hhcurveto
          -18 -12 12 20 23 15 34 34 48 hvcurveto
          -471 262 rmoveto
          hintmask 11110100
          134 312 134 -312 rlineto
          endchar
        </CharString>
        <CharString name="Aring">
          100 21 -21 158 105 446 -20 151 56 hstem
          249 53 139 53 vstem
          544 158 rmoveto
          67 -158 rlineto
          126 hlineto
          -295 675 rlineto
          31 22 21 37 40 vvcurveto
          67 -55 55 -68 -67 -55 -55 -67 -40 20 -36 31 -22 vhcurveto
          -299 -676 rlineto
          123 hlineto
          67 158 rlineto
          180 682 rmoveto
          38 32 -30 -36 -36 -32 -29 -38 -38 -31 29 36 36 31 30 38 hvcurveto
          128 -577 rmoveto
          -264 hlineto
          132 311 rlineto
          endchar
        </CharString>
        <CharString name="Atilde">
          100 21 -21 158 105 311 126 0 -20 109 82 -27 82 hstemhm
          208 74 175 73 hintmask 00000000
          hintmask 11010111
          319 844 rmoveto
          hintmask 11011011
          35 25 -55 60 hhcurveto
          60 31 44 87 hvcurveto
          -73 hlineto
          -32 -13 -17 -25 vhcurveto
          hintmask 11010111
          -34 -30 55 -55 hhcurveto
          -60 -32 -44 -87 hvcurveto
          74 hlineto
          32 13 17 24 vhcurveto
          hintmask 11011011
          225 -686 rmoveto
          67 -158 rlineto
          126 hlineto
          -306 700 rlineto
          -121 hlineto
          -309 -700 rlineto
          123 hlineto
          67 158 rlineto
          308 105 rmoveto
          -264 hlineto
          hintmask 11101011
          132 311 rlineto
          endchar
        </CharString>
        <CharString name="B">
          68 0 105 201 104 185 105 hstemhm
          92 118 300 121 -94 121 hintmask 11110100
          92 700 rmoveto
          -700 311 vlineto
          158 97 72 120 94 -56 67 -94 16 hvcurveto
          hintmask 11111000
          76 18 47 59 79 vvcurveto
          109 -90 66 -145 vhcurveto
          -186 -105 rmoveto
          180 hlineto
          75 45 -32 -59 -59 -45 -35 -75 hvcurveto
          -180 hlineto
          -104 vmoveto
          180 hlineto
          hintmask 11110100
          92 55 -37 -62 -66 -55 -36 -92 hvcurveto
          -180 hlineto
          endchar
        </CharString>
        <CharString name="C">
          59 -5 110 493 105 hstem
          34 120 vstem
          402 703 rmoveto
          -207 -161 -153 -199 -201 159 -155 205 99 101 45 70 71 hvcurveto
          -70 78 rlineto
          -51 -53 -72 -32 -70 hhcurveto
          -140 -110 109 138 138 110 108 140 71 73 -34 -55 51 hvcurveto
          69 86 rlineto
          67 -68 -99 41 -99 hhcurveto
          endchar
        </CharString>
        <CharString name="Cacute">
          59 -5 110 493 105 hstem
          34 120 vstem
          529 874 rmoveto
          -118 50 -106 -148 rlineto
          102 hlineto
          -5 -73 rmoveto
          -207 -161 -153 -199 -201 159 -155 205 99 101 45 70 71 hvcurveto
          -70 78 rlineto
          -51 -53 -72 -32 -70 hhcurveto
          -140 -110 109 138 138 110 108 140 71 73 -34 -55 51 hvcurveto
          69 86 rlineto
          67 -68 -99 41 -99 hhcurveto
          endchar
        </CharString>
        <CharString name="Ccaron">
          59 -5 110 493 105 67 150 hstem
          34 120 vstem
          204 920 rmoveto
          108 -150 rlineto
          114 hlineto
          108 150 rlineto
          -102 hlineto
          -63 -93 -63 93 rlineto
          96 -217 rmoveto
          -207 -161 -153 -199 -201 159 -155 205 99 101 45 70 71 hvcurveto
          -70 78 rlineto
          -51 -53 -72 -32 -70 hhcurveto
          -140 -110 109 138 138 110 108 140 71 73 -34 -55 51 hvcurveto
          69 86 rlineto
          67 -68 -99 41 -99 hhcurveto
          endchar
        </CharString>
        <CharString name="Ccedilla">
          59 -224 62 -13 -21 113 188 -109 109 -88 -21 602 105 hstemhm
          34 120 258 68 hintmask 01001111
          432 -3 rmoveto
          hintmask 01010111
          88 9 86 42 63 62 -70 78 rcurveline
          -51 -53 -72 -32 -70 hhcurveto
          -140 -110 109 138 138 110 108 140 71 73 -34 -55 51 hvcurveto
          69 86 rlineto
          67 -68 -99 41 -99 hhcurveto
          -207 -161 -153 -199 -190 142 -149 189 -16 hvcurveto
          hintmask 10100111
          -36 -84 rlineto
          3 11 13 2 11 hhcurveto
          33 15 -19 -19 -20 -17 -21 -29 -20 -21 7 13 -17 hvcurveto
          hintmask 01001111
          -22 -54 rlineto
          hintmask 10001111
          -17 23 32 -11 33 hhcurveto
          59 47 37 58 44 -28 27 -42 8 hvcurveto
          endchar
        </CharString>
        <CharString name="D">
          137 0 106 488 106 hstem
          92 118 412 119 vstem
          92 700 rmoveto
          -700 284 vlineto
          212 153 148 202 203 -152 147 -210 hvcurveto
          -169 -106 rmoveto
          167 hlineto
          138 107 -102 -143 -142 -104 -101 -136 hvcurveto
          -172 hlineto
          endchar
        </CharString>
        <CharString name="Dcaron">
          137 0 106 488 106 70 150 hstem
          92 118 412 119 vstem
          197 920 rmoveto
          108 -150 rlineto
          114 hlineto
          108 150 rlineto
          -102 hlineto
          -63 -93 -63 93 rlineto
          -207 -220 rmoveto
          -700 284 vlineto
          212 153 148 202 203 -152 147 -210 hvcurveto
          -169 -106 rmoveto
          167 hlineto
          138 107 -102 -143 -142 -104 -101 -136 hvcurveto
          -172 hlineto
          endchar
        </CharString>
        <CharString name="Dcroat">
          137 0 106 488 106 109 83 hstemhm
          92 118 28 255 129 119 hintmask 00000000
          hintmask 11111100
          493 809 rmoveto
          83 -255 -83 vlineto
          hintmask 11110100
          -146 -109 rmoveto
          -700 284 vlineto
          212 153 148 202 203 -152 147 -210 hvcurveto
          -169 -106 rmoveto
          167 hlineto
          138 107 -102 -143 -142 -104 -101 -136 hvcurveto
          -172 hlineto
          endchar
        </CharString>
        <CharString name="Delta">
          100 0 93 481 126 0 -20 hstemhm
          1 736 hintmask 10110000
          737 hmoveto
          -306 700 rlineto
          -121 hlineto
          -309 -700 rlineto
          570 93 rmoveto
          -408 hlineto
          hintmask 11010000
          204 481 rlineto
          endchar
        </CharString>
        <CharString name="E">
          18 0 106 193 106 189 106 hstem
          92 118 vstem
          592 594 rmoveto
          106 -500 -700 512 106 -394 193 342 106 -342 189 vlineto
          endchar
        </CharString>
        <CharString name="Eacute">
          18 0 106 193 106 189 106 hstem
          92 118 vstem
          501 874 rmoveto
          -118 50 -106 -148 rlineto
          102 hlineto
          213 -182 rmoveto
          106 -500 -700 512 106 -394 193 342 106 -342 189 vlineto
          endchar
        </CharString>
        <CharString name="Ecaron">
          18 0 106 193 106 189 106 70 150 hstem
          92 118 vstem
          176 920 rmoveto
          108 -150 rlineto
          114 hlineto
          108 150 rlineto
          -102 hlineto
          -63 -93 -63 93 rlineto
          314 -326 rmoveto
          106 -500 -700 512 106 -394 193 342 106 -342 189 vlineto
          endchar
        </CharString>
        <CharString name="Ecircumflex">
          18 0 106 193 106 189 106 79 141 hstem
          92 118 vstem
          500 779 rmoveto
          -103 141 rlineto
          -106 hlineto
          -103 -141 rlineto
          94 hlineto
          62 88 62 -88 rlineto
          186 -185 rmoveto
          106 -500 -700 512 106 -394 193 342 106 -342 189 vlineto
          endchar
        </CharString>
        <CharString name="Edieresis">
          18 0 106 193 106 189 106 94 127 hstemhm
          92 118 -15 121 56 121 hintmask 00000000
          hintmask 11110110
          256 921 rmoveto
          -35 -26 -27 -37 -36 26 -27 35 35 25 27 36 37 -25 27 -35 hvcurveto
          177 hmoveto
          -35 -26 -27 -37 -36 26 -27 35 35 25 27 36 37 -25 27 -35 hvcurveto
          159 -327 rmoveto
          106 vlineto
          hintmask 11101000
          -500 -700 512 106 -394 193 342 106 -342 189 hlineto
          endchar
        </CharString>
        <CharString name="Edotaccent">
          18 0 106 193 106 189 106 83 139 hstem
          92 118 67 134 vstem
          344 922 rmoveto
          -38 -29 -29 -41 -40 29 -29 38 38 29 29 40 41 -29 29 -38 hvcurveto
          248 -328 rmoveto
          106 -500 -700 512 106 -394 193 342 106 -342 189 vlineto
          endchar
        </CharString>
        <CharString name="Egrave">
          18 0 106 193 106 189 106 hstem
          92 118 vstem
          406 777 rmoveto
          -106 148 -118 -50 122 -98 rlineto
          288 -183 rmoveto
          106 -500 -700 512 106 -394 193 342 106 -342 189 vlineto
          endchar
        </CharString>
        <CharString name="Emacron">
          18 0 106 193 106 189 106 109 83 hstemhm
          92 118 7 255 hintmask 00000000
          hintmask 11110100
          472 809 rmoveto
          83 -255 -83 vlineto
          375 -215 rmoveto
          106 vlineto
          hintmask 11111000
          -500 -700 512 106 -394 193 342 106 -342 189 hlineto
          endchar
        </CharString>
        <CharString name="Eogonek">
          27 -201 64 137 98 209 97 198 98 hstem
          92 118 226 61 vstem
          601 602 rmoveto
          98 -509 -700 396 vlineto
          -35 -49 -17 -38 -36 vvcurveto
          -55 40 -23 38 37 35 21 36 24 vhcurveto
          -33 39 rlineto
          -19 -15 -17 -13 -18 hhcurveto
          -17 -13 12 20 23 14 32 36 50 hvcurveto
          66 98 -403 209 351 97 -351 198 hlineto
          endchar
        </CharString>
        <CharString name="Eth">
          157 0 106 211 69 208 106 hstem
          112 117 412 120 vstem
          112 700 rmoveto
          -314 -112 -69 112 -317 283 vlineto
          213 153 148 202 203 -153 147 -209 hvcurveto
          -170 -594 rmoveto
          211 199 69 -199 208 168 vlineto
          138 106 -102 -143 -142 -103 -101 -136 hvcurveto
          endchar
        </CharString>
        <CharString name="Euro">
          152 -5 110 130 64 105 64 130 105 hstem
          131 116 vstem
          693 188 rmoveto
          -51 -54 -72 -32 -70 hhcurveto
          -96 -83 52 78 -42 hvcurveto
          251 64 -274 hlineto
          -4 17 -2 18 18 vvcurveto
          18 2 17 3 17 vhcurveto
          275 64 -251 hlineto
          78 42 83 52 96 hhcurveto
          72 72 -34 -55 52 hvcurveto
          68 86 rlineto
          67 -67 -99 41 -99 hhcurveto
          -165 -135 -96 -139 -49 hvcurveto
          -110 -64 94 hlineto
          -3 -17 -1 -18 0 -18 0 -18 1 -17 -17 flex1
          -94 -64 109 hlineto
          -142 48 134 -98 163 hhcurveto
          100 101 45 70 70 hvcurveto
          endchar
        </CharString>
        <CharString name="F">
          -63 21 -21 287 105 202 106 hstem
          92 118 vstem
          561 594 rmoveto
          1 106 rlineto
          -470 -700 118 287 318 105 -318 202 hlineto
          endchar
        </CharString>
        <CharString name="G">
          111 -5 106 497 105 -98 -20 hstemhm
          34 120 417 103 hintmask 11011000
          571 344 rmoveto
          -195 vlineto
          -30 -50 -59 -18 -52 hhcurveto
          -143 -113 109 140 139 112 109 143 73 75 -30 -50 54 hvcurveto
          hintmask 10111000
          67 87 rlineto
          hintmask 11011000
          60 -69 -100 38 -100 hhcurveto
          -212 -163 -153 -200 -200 161 -155 207 96 105 37 54 71 hvcurveto
          258 vlineto
          endchar
        </CharString>
        <CharString name="Gbreve">
          111 -5 106 497 105 -98 -20 189 77 hstemhm
          34 120 92 78 126 78 43 103 hintmask 11011111
          387 774 rmoveto
          80 58 57 85 3 hvcurveto
          -78 hlineto
          -38 -2 -26 -27 -35 hhcurveto
          -35 -26 27 38 -2 hvcurveto
          -78 hlineto
          -85 3 58 -57 80 hhcurveto
          184 -430 rmoveto
          -195 vlineto
          -30 -50 -59 -18 -52 hhcurveto
          -143 -113 109 140 139 112 109 143 73 75 -30 -50 54 hvcurveto
          hintmask 10111111
          67 87 rlineto
          hintmask 11011111
          60 -69 -100 38 -100 hhcurveto
          -212 -163 -153 -200 -200 161 -155 207 96 105 37 54 71 hvcurveto
          258 vlineto
          endchar
        </CharString>
        <CharString name="Gcommaaccent">
          111 -5 106 497 105 -98 -20 hstemhm
          34 120 177 123 117 103 hintmask 11010100
          571 344 rmoveto
          -195 vlineto
          -30 -50 -59 -18 -52 hhcurveto
          -143 -113 109 140 139 112 109 143 73 75 -30 -50 54 hvcurveto
          hintmask 10110100
          67 87 rlineto
          hintmask 11011100
          60 -69 -100 38 -100 hhcurveto
          -212 -163 -153 -200 -200 161 -155 207 96 105 37 54 71 hvcurveto
          258 vlineto
          -281 -393 rmoveto
          -36 -26 -27 -37 -21 9 -19 18 -12 hvcurveto
          -38 -86 rlineto
          59 hlineto
          57 86 rlineto
          11 16 7 17 19 vvcurveto
          40 -29 24 -32 vhcurveto
          endchar
        </CharString>
        <CharString name="H">
          153 21 -21 290 106 304 -20 hstem
          92 118 371 118 vstem
          699 hmoveto
          700 -118 -304 -371 304 -118 -700 118 290 371 -290 vlineto
          endchar
        </CharString>
        <CharString name="I">
          -336 21 -21 700 -20 hstem
          92 118 vstem
          210 hmoveto
          700 -118 -700 vlineto
          endchar
        </CharString>
        <CharString name="IJ">
          163 -5 114 -88 -21 594 106 hstemhm
          92 118 395 119 hintmask 00000000
          hintmask 01111000
          210 hmoveto
          700 -118 -700 vlineto
          632 700 rmoveto
          -361 -106 242 -374 hlineto
          hintmask 10111000
          -72 -37 -39 -63 -48 -55 27 50 -46 vhcurveto
          -56 -90 rlineto
          -64 52 70 -37 84 hhcurveto
          135 83 80 141 hvcurveto
          endchar
        </CharString>
        <CharString name="Iacute">
          -336 21 -21 700 -20 hstem
          92 118 vstem
          308 874 rmoveto
          -118 50 -106 -148 rlineto
          102 hlineto
          24 -776 rmoveto
          700 -118 -700 vlineto
          endchar
        </CharString>
        <CharString name="Icircumflex">
          -336 21 -21 700 -20 99 141 hstem
          92 118 vstem
          307 779 rmoveto
          -103 141 rlineto
          -106 hlineto
          -103 -141 rlineto
          94 hlineto
          62 88 62 -88 rlineto
          -3 -779 rmoveto
          700 -118 -700 vlineto
          endchar
        </CharString>
        <CharString name="Idieresis">
          -336 21 -21 700 -20 114 127 hstemhm
          2 121 -31 118 -31 121 hintmask 00000000
          hintmask 11110100
          63 921 rmoveto
          -35 -26 -27 -37 -36 26 -27 35 35 25 27 36 37 -25 27 -35 hvcurveto
          177 hmoveto
          -35 -26 -27 -37 -36 26 -27 35 35 25 27 36 37 -25 27 -35 hvcurveto
          hintmask 11101000
          -30 -921 rmoveto
          700 -118 -700 vlineto
          endchar
        </CharString>
        <CharString name="Idotaccent">
          -336 21 -21 700 -20 103 139 hstemhm
          84 134 -126 118 hintmask 00000000
          hintmask 11110000
          151 922 rmoveto
          -38 -29 -29 -41 -40 29 -29 38 38 29 29 40 41 -29 29 -38 hvcurveto
          hintmask 11101000
          59 -922 rmoveto
          700 -118 -700 vlineto
          endchar
        </CharString>
        <CharString name="Igrave">
          -336 21 -21 700 -20 hstem
          92 118 vstem
          212 777 rmoveto
          -106 148 -118 -50 122 -98 rlineto
          100 -777 rmoveto
          700 -118 -700 vlineto
          endchar
        </CharString>
        <CharString name="Imacron">
          -336 21 -21 700 -20 129 83 hstem
          92 118 vstem
          279 809 rmoveto
          83 -255 -83 vlineto
          186 -809 rmoveto
          700 -118 -700 vlineto
          endchar
        </CharString>
        <CharString name="Iogonek">
          -336 -201 64 158 -21 700 -20 hstemhm
          75 62 -45 118 hintmask 00000000
          hintmask 11110000
          216 -105 rmoveto
          -19 -15 -16 -13 -19 hhcurveto
          -17 -12 12 20 23 15 34 34 48 hvcurveto
          hintmask 11101000
          24 700 -118 -700 hlineto
          hintmask 11110000
          35 hlineto
          -33 -47 -19 -39 -37 vvcurveto
          -55 40 -23 39 37 35 21 36 23 vhcurveto
          endchar
        </CharString>
        <CharString name="Itilde">
          -336 21 -21 700 -20 109 82 -27 82 hstemhm
          -10 74 28 118 29 73 hintmask 00000000
          hintmask 11011100
          82 926 rmoveto
          -60 -32 -44 -87 hvcurveto
          74 hlineto
          32 13 17 24 vhcurveto
          hintmask 11100110
          35 25 -55 60 hhcurveto
          60 31 44 87 hvcurveto
          -73 hlineto
          -32 -13 -17 -25 vhcurveto
          hintmask 11011100
          -34 -30 55 -55 hhcurveto
          hintmask 11100100
          128 -926 rmoveto
          700 -118 -700 vlineto
          endchar
        </CharString>
        <CharString name="J">
          -139 -5 114 485 106 hstem
          303 119 vstem
          422 700 rmoveto
          -361 -106 242 -374 hlineto
          -72 -37 -39 -63 -48 -55 27 50 -46 vhcurveto
          -56 -90 rlineto
          -64 52 70 -37 84 hhcurveto
          135 83 80 141 hvcurveto
          endchar
        </CharString>
        <CharString name="Jcircumflex">
          -139 -5 114 485 106 79 141 hstem
          303 119 vstem
          394 779 rmoveto
          -103 141 rlineto
          -106 hlineto
          -103 -141 rlineto
          94 hlineto
          62 88 62 -88 rlineto
          122 -79 rmoveto
          -361 -106 242 -374 hlineto
          -72 -37 -39 -63 -48 -55 27 50 -46 vhcurveto
          -56 -90 rlineto
          -64 52 70 -37 84 hhcurveto
          135 83 80 141 hvcurveto
          endchar
        </CharString>
        <CharString name="K">
          80 21 -21 700 -20 hstem
          92 118 vstem
          559 hmoveto
          142 hlineto
          -289 401 271 299 rlineto
          -139 hlineto
          -334 -362 rlineto
          362 -118 -700 118 178 vlineto
          119 131 rlineto
          endchar
        </CharString>
        <CharString name="Kcommaaccent">
          80 21 -21 700 -20 hstem
          92 118 87 123 vstem
          701 hmoveto
          -289 401 271 299 rlineto
          -139 hlineto
          -334 -362 rlineto
          362 -118 -700 118 178 vlineto
          119 131 230 -309 rlineto
          -200 -49 rmoveto
          -36 -26 -27 -37 -21 9 -19 18 -12 hvcurveto
          -38 -86 rlineto
          59 hlineto
          57 86 rlineto
          11 16 7 17 19 vvcurveto
          40 -29 24 -32 vhcurveto
          endchar
        </CharString>
        <CharString name="L">
          -104 0 107 593 -20 hstem
          92 118 vstem
          210 107 rmoveto
          593 -118 -700 421 107 vlineto
          endchar
        </CharString>
        <CharString name="Lacute">
          -104 0 107 593 -20 hstem
          92 118 vstem
          310 874 rmoveto
          -118 50 -106 -148 rlineto
          102 hlineto
          22 -669 rmoveto
          593 -118 -700 421 107 vlineto
          endchar
        </CharString>
        <CharString name="Lcaron">
          -104 0 107 359 203 31 -20 hstem
          92 118 166 123 vstem
          513 107 rmoveto
          -303 593 -118 -700 421 hlineto
          -148 466 rmoveto
          59 hlineto
          57 86 rlineto
          11 16 7 17 20 vvcurveto
          40 -29 24 -32 -36 -26 -27 -37 -21 9 -19 18 -12 vhcurveto
          endchar
        </CharString>
        <CharString name="Lcommaaccent">
          -104 0 107 593 -20 hstemhm
          92 118 24 123 hintmask 11100000
          513 107 rmoveto
          -303 593 -118 -700 421 hlineto
          hintmask 11110000
          -217 -49 rmoveto
          -36 -26 -27 -37 -21 9 -19 18 -12 hvcurveto
          -38 -86 rlineto
          59 hlineto
          57 86 rlineto
          11 16 7 17 19 vvcurveto
          40 -29 24 -32 vhcurveto
          endchar
        </CharString>
        <CharString name="Ldot">
          -104 0 107 294 127 172 -20 hstem
          92 118 126 120 vstem
          210 107 rmoveto
          593 -118 -700 421 107 vlineto
          -117 421 rmoveto
          -34 -26 -26 -37 -37 26 -27 34 34 26 27 37 37 -26 26 -34 hvcurveto
          endchar
        </CharString>
        <CharString name="Lslash">
          -87 0 107 425 -20 188 -20 hstem
          109 117 vstem
          530 107 rmoveto
          -304 295 hlineto
          180 53 -20 77 -160 -47 rlineto
          215 -117 -250 vlineto
          -103 -30 20 -76 83 24 rlineto
          -368 421 vlineto
          endchar
        </CharString>
        <CharString name="M">
          287 21 -21 523 177 0 -20 hstemhm
          92 111 519.5 109.5 hintmask 10111000
          832 hmoveto
          700 -139 vlineto
          -230 -465 -231 465 rlineto
          -140 -700 111 hlineto
          hintmask 11011000
          523 vlineto
          221 -450 rlineto
          77 hlineto
          221 450 1 -523 rlineto
          endchar
        </CharString>
        <CharString name="N">
          154 21 -21 700 -20 hstem
          92 118 373 116 vstem
          699 hmoveto
          700 -116 -503 vlineto
          -375 503 rlineto
          -116 -700 118 502 hlineto
          373 -502 rlineto
          endchar
        </CharString>
        <CharString name="Nacute">
          154 21 -21 700 -20 hstem
          92 118 373 116 vstem
          553 874 rmoveto
          -118 50 -106 -148 rlineto
          102 hlineto
          268 -776 rmoveto
          700 -116 -503 vlineto
          -375 503 rlineto
          -116 -700 118 502 hlineto
          373 -502 rlineto
          endchar
        </CharString>
        <CharString name="Ncaron">
          154 21 -21 700 -20 90 150 hstem
          92 118 373 116 vstem
          228 920 rmoveto
          108 -150 rlineto
          114 hlineto
          108 150 rlineto
          -102 hlineto
          -63 -93 -63 93 rlineto
          369 -920 rmoveto
          700 -116 -503 vlineto
          -375 503 rlineto
          -116 -700 118 502 hlineto
          373 -502 rlineto
          endchar
        </CharString>
        <CharString name="Ncommaaccent">
          154 21 -21 700 -20 hstem
          92 118 130 123 120 116 vstem
          699 700 rmoveto
          -116 -503 hlineto
          -375 503 rlineto
          -116 -700 118 502 hlineto
          373 -502 rlineto
          116 hlineto
          -297 -49 rmoveto
          -36 -26 -27 -37 -21 9 -19 18 -12 hvcurveto
          -38 -86 rlineto
          59 hlineto
          57 86 rlineto
          11 16 7 17 19 vvcurveto
          40 -29 24 -32 vhcurveto
          endchar
        </CharString>
        <CharString name="Ntilde">
          154 21 -21 700 -20 109 82 -27 82 hstemhm
          92 118 25 74 175 73 26 116 hintmask 00000000
          hintmask 11011101
          327 926 rmoveto
          -60 -32 -44 -87 hvcurveto
          74 hlineto
          32 13 17 24 vhcurveto
          hintmask 11101011
          35 25 -55 60 hhcurveto
          60 31 44 87 hvcurveto
          -73 hlineto
          -32 -13 -17 -25 vhcurveto
          hintmask 11011101
          -34 -30 55 -55 hhcurveto
          hintmask 11101001
          372 -926 rmoveto
          700 -116 -503 vlineto
          -375 503 rlineto
          -116 -700 118 502 hlineto
          373 -502 rlineto
          endchar
        </CharString>
        <CharString name="O">
          172 -5 106 496 106 hstem
          34 120 501 121 vstem
          405 703 rmoveto
          -209 -162 -152 -201 -200 162 -155 209 209 162 155 200 200 -162 153 -209 hvcurveto
          1 -106 rmoveto
          137 112 -108 -139 -139 -112 -110 -137 -137 -115 110 139 139 114 108 138 hvcurveto
          endchar
        </CharString>
        <CharString name="OE">
          459 0 106 193 105 190 106 hstem
          34 120 379 118 vstem
          1045 106 rmoveto
          -394 193 342 105 -342 190 382 106 -629 hlineto
          -209 -161 -154 -196 -198 162 -152 208 hvcurveto
          641 hlineto
          -512 106 rmoveto
          -128 hlineto
          -141 -110 104 139 139 110 105 141 hvcurveto
          128 hlineto
          endchar
        </CharString>
        <CharString name="Oacute">
          172 -5 106 496 106 hstem
          34 120 501 121 vstem
          557 874 rmoveto
          -118 50 -106 -148 rlineto
          102 hlineto
          -30 -73 rmoveto
          -209 -162 -152 -201 -200 162 -155 209 209 162 155 200 200 -162 153 -209 hvcurveto
          1 -106 rmoveto
          137 112 -108 -139 -139 -112 -110 -137 -137 -115 110 139 139 114 108 138 hvcurveto
          endchar
        </CharString>
        <CharString name="Ocircumflex">
          172 -5 106 496 106 76 141 hstem
          34 120 501 121 vstem
          556 779 rmoveto
          -103 141 rlineto
          -106 hlineto
          -103 -141 rlineto
          94 hlineto
          62 88 62 -88 rlineto
          -57 -76 rmoveto
          -209 -162 -152 -201 -200 162 -155 209 209 162 155 200 200 -162 153 -209 hvcurveto
          1 -106 rmoveto
          137 112 -108 -139 -139 -112 -110 -137 -137 -115 110 139 139 114 108 138 hvcurveto
          endchar
        </CharString>
        <CharString name="Odieresis">
          172 -5 106 496 106 91 127 hstem
          34 120 97 121 56 121 106 121 vstem
          312 921 rmoveto
          -35 -26 -27 -37 -36 26 -27 35 35 25 27 36 37 -25 27 -35 hvcurveto
          177 hmoveto
          -35 -26 -27 -37 -36 26 -27 35 35 25 27 36 37 -25 27 -35 hvcurveto
          -84 -218 rmoveto
          -209 -162 -152 -201 -200 162 -155 209 209 162 155 200 200 -162 153 -209 hvcurveto
          1 -106 rmoveto
          137 112 -108 -139 -139 -112 -110 -137 -137 -115 110 139 139 114 108 138 hvcurveto
          endchar
        </CharString>
        <CharString name="Ograve">
          172 -5 106 496 106 hstem
          34 120 501 121 vstem
          462 777 rmoveto
          -106 148 -118 -50 122 -98 rlineto
          45 -74 rmoveto
          -209 -162 -152 -201 -200 162 -155 209 209 162 155 200 200 -162 153 -209 hvcurveto
          1 -106 rmoveto
          137 112 -108 -139 -139 -112 -110 -137 -137 -115 110 139 139 114 108 138 hvcurveto
          endchar
        </CharString>
        <CharString name="Ohungarumlaut">
          172 -5 106 496 106 hstem
          34 120 501 121 vstem
          435 884 rmoveto
          -98 44 -83 -154 rlineto
          89 hlineto
          257 110 rmoveto
          -98 44 -83 -154 rlineto
          89 hlineto
          -103 -71 rmoveto
          -209 -162 -152 -201 -200 162 -155 209 209 162 155 200 200 -162 153 -209 hvcurveto
          1 -106 rmoveto
          137 112 -108 -139 -139 -112 -110 -137 -137 -115 110 139 139 114 108 138 hvcurveto
          endchar
        </CharString>
        <CharString name="Omacron">
          172 -5 106 496 106 106 83 hstem
          34 120 119 255 127 121 vstem
          528 809 rmoveto
          83 -255 -83 vlineto
          132 -106 rmoveto
          -209 -162 -152 -201 -200 162 -155 209 209 162 155 200 200 -162 153 -209 hvcurveto
          1 -106 rmoveto
          137 112 -108 -139 -139 -112 -110 -137 -137 -115 110 139 139 114 108 138 hvcurveto
          endchar
        </CharString>
        <CharString name="Omega">
          244 0 100 501 105 hstem
          82 105 509 105 vstem
          441 706 rmoveto
          -207 -152 -142 -192 -101 57 -111 80 -60 hvcurveto
          -210 -100 333 92 hlineto
          -90 54 -65 113 103 vvcurveto
          139 107 100 147 147 108 -100 -139 -103 -65 -113 -90 -53 vhcurveto
          -93 332 100 -209 vlineto
          80 60 57 112 100 vvcurveto
          192 -153 142 -207 vhcurveto
          endchar
        </CharString>
        <CharString name="Oslash">
          172 -5 106 496 106 0 -20 hstemhm
          34 120 501 121 hintmask 11011000
          582 811 rmoveto
          -70 hlineto
          -38 -114 rlineto
          4 -23 -23 2 -23 hhcurveto
          -209 -162 -152 -201 -145 86 -122 127 -56 hvcurveto
          -51 -149 rlineto
          69 hlineto
          44 128 rlineto
          -7 30 33 -4 33 hhcurveto
          209 162 155 200 hvcurveto
          hintmask 10111000
          155 -97 127 -141 49 vhcurveto
          -384 -331 rmoveto
          hintmask 11011000
          139 114 108 138 11 11 -1 -1 11 vhcurveto
          -157 -462 rlineto
          hintmask 10111000
          -76 43 -52 80 94 vvcurveto
          hintmask 11011000
          252 -249 rmoveto
          -22 -21 3 5 -20 hvcurveto
          159 469 rlineto
          90 -37 63 -87 -104 vvcurveto
          -139 -112 -110 -137 vhcurveto
          endchar
        </CharString>
        <CharString name="Otilde">
          172 -5 106 496 106 86 82 -27 82 hstemhm
          34 120 85 74 175 73 94 121 hintmask 11011101
          331 926 rmoveto
          -60 -32 -44 -87 hvcurveto
          74 hlineto
          32 13 17 24 vhcurveto
          hintmask 11101111
          35 25 -55 60 hhcurveto
          60 31 44 87 hvcurveto
          -73 hlineto
          -32 -13 -17 -25 vhcurveto
          hintmask 11011101
          -34 -30 55 -55 hhcurveto
          74 -223 rmoveto
          -209 -162 -152 -201 -200 162 -155 209 209 162 155 200 200 -162 153 -209 hvcurveto
          1 -106 rmoveto
          137 112 -108 -139 -139 -112 -110 -137 -137 -115 110 139 139 114 108 138 hvcurveto
          endchar
        </CharString>
        <CharString name="P">
          35 21 -21 211 106 277 106 hstem
          92 118 325 113 vstem
          92 700 rmoveto
          -700 118 211 161 vlineto
          176 101 92 158 152 -101 87 -176 hvcurveto
          -161 -106 rmoveto
          156 hlineto
          108 61 -44 -92 -95 -61 -46 -108 hvcurveto
          -156 hlineto
          endchar
        </CharString>
        <CharString name="Q">
          187 -154 102 649 106 hstem
          34 120 501 121 vstem
          770 6 rmoveto
          -36 -46 -46 -22 -37 hhcurveto
          -40 -39 24 41 -38 hvcurveto
          149 46 103 131 160 vvcurveto
          200 -162 153 -209 -209 -162 -152 -201 -200 161 -154 209 -1 vhcurveto
          -94 56 79 -55 88 hhcurveto
          65 71 29 48 54 hvcurveto
          -663 427 rmoveto
          139 114 108 138 137 112 -108 -139 -139 -112 -110 -137 -137 -115 110 139 vhcurveto
          endchar
        </CharString>
        <CharString name="R">
          85 21 -21 211 106 277 106 hstem
          92 118 336 112 vstem
          536 hmoveto
          134 hlineto
          -157 234 rlineto
          93 36 52 79 112 vvcurveto
          152 -103 87 -179 vhcurveto
          -284 -700 118 211 166 hlineto
          11 11 0 1 10 hvcurveto
          -198 105 rmoveto
          277 166 vlineto
          108 62 -44 -92 -95 -62 -46 -108 hvcurveto
          endchar
        </CharString>
        <CharString name="Racute">
          85 21 -21 211 106 277 106 hstem
          92 118 336 112 vstem
          390 776 rmoveto
          122 98 -118 50 -106 -148 rlineto
          248 -776 rmoveto
          134 hlineto
          -157 234 rlineto
          93 36 52 79 112 vvcurveto
          152 -103 87 -179 vhcurveto
          -284 -700 118 211 166 hlineto
          11 11 0 1 10 hvcurveto
          -198 105 rmoveto
          277 166 vlineto
          108 62 -44 -92 -95 -62 -46 -108 hvcurveto
          endchar
        </CharString>
        <CharString name="Rcaron">
          85 21 -21 211 106 277 106 70 150 hstem
          92 118 336 112 vstem
          295 770 rmoveto
          114 hlineto
          108 150 rlineto
          -102 hlineto
          -63 -93 -63 93 rlineto
          -102 hlineto
          349 -920 rmoveto
          134 hlineto
          -157 234 rlineto
          93 36 52 79 112 vvcurveto
          152 -103 87 -179 vhcurveto
          -284 -700 118 211 166 hlineto
          11 11 0 1 10 hvcurveto
          -198 105 rmoveto
          277 166 vlineto
          108 62 -44 -92 -95 -62 -46 -108 hvcurveto
          endchar
        </CharString>
        <CharString name="Rcommaaccent">
          85 21 -21 211 106 277 106 hstem
          92 118 94 123 119 112 vstem
          670 hmoveto
          -157 234 rlineto
          93 36 52 79 112 vvcurveto
          152 -103 87 -179 vhcurveto
          -284 -700 118 211 166 hlineto
          11 11 0 1 10 hvcurveto
          128 -212 rlineto
          -326 317 rmoveto
          277 166 vlineto
          108 62 -44 -92 -95 -62 -46 -108 hvcurveto
          -10 -366 rmoveto
          -36 -26 -27 -37 -21 9 -19 18 -12 hvcurveto
          -38 -86 rlineto
          59 hlineto
          57 86 rlineto
          11 16 7 17 19 vvcurveto
          40 -29 24 -32 vhcurveto
          endchar
        </CharString>
        <CharString name="S">
          -16 -4 111 487 111 hstem
          67 132 246 131 vstem
          322 705 rmoveto
          -152 -103 -75 -120 hvcurveto
          -249 378 87 -156 vvcurveto
          -54 -49 -31 -82 -75 -90 36 66 -72 vhcurveto
          -51 -102 rlineto
          -66 72 104 -45 110 hhcurveto
          154 110 77 125 hvcurveto
          1 252 -378 -82 153 vvcurveto
          47 45 26 69 53 76 -19 -46 76 vhcurveto
          49 104 rlineto
          43 -65 -89 29 -91 hhcurveto
          endchar
        </CharString>
        <CharString name="Sacute">
          -16 -4 111 487 111 hstem
          67 132 246 131 vstem
          476 874 rmoveto
          -118 50 -106 -148 rlineto
          102 hlineto
          -32 -71 rmoveto
          -152 -103 -75 -120 hvcurveto
          -249 378 87 -156 vvcurveto
          -54 -49 -31 -82 -75 -90 36 66 -72 vhcurveto
          -51 -102 rlineto
          -66 72 104 -45 110 hhcurveto
          154 110 77 125 hvcurveto
          1 252 -378 -82 153 vvcurveto
          47 45 26 69 53 76 -19 -46 76 vhcurveto
          49 104 rlineto
          43 -65 -89 29 -91 hhcurveto
          endchar
        </CharString>
        <CharString name="Scaron">
          -16 -4 111 487 111 65 150 hstem
          67 132 246 131 vstem
          151 920 rmoveto
          108 -150 rlineto
          114 hlineto
          108 150 rlineto
          -102 hlineto
          -63 -93 -63 93 rlineto
          69 -215 rmoveto
          -152 -103 -75 -120 hvcurveto
          -249 378 87 -156 vvcurveto
          -54 -49 -31 -82 -75 -90 36 66 -72 vhcurveto
          -51 -102 rlineto
          -66 72 104 -45 110 hhcurveto
          154 110 77 125 hvcurveto
          1 252 -378 -82 153 vvcurveto
          47 45 26 69 53 76 -19 -46 76 vhcurveto
          49 104 rlineto
          43 -65 -89 29 -91 hhcurveto
          endchar
        </CharString>
        <CharString name="Scedilla">
          -16 -224 62 -13 -21 192 111 487 111 hstemhm
          67 132 146 68 32 131 hintmask 01111110
          199 521 rmoveto
          47 45 26 69 53 76 -19 -46 76 vhcurveto
          49 104 rlineto
          43 -65 -89 29 -91 hhcurveto
          -152 -103 -75 -120 hvcurveto
          -249 378 87 -156 vvcurveto
          -54 -49 -31 -82 -75 -90 36 66 -72 vhcurveto
          -51 -102 69 -63 98 -44 105 -4 rlinecurve
          hintmask 10111110
          -36 -84 rlineto
          3 11 13 2 11 hhcurveto
          33 15 -19 -19 -20 -17 -21 -29 -20 -21 7 13 -17 hvcurveto
          hintmask 01111110
          -22 -54 rlineto
          hintmask 10111110
          -17 23 32 -11 33 hhcurveto
          59 47 37 58 44 -28 27 -42 8 hvcurveto
          23 49 rlineto
          125 17 85 72 110 vvcurveto
          hintmask 01111110
          1 252 -378 -82 153 vvcurveto
          endchar
        </CharString>
        <CharString name="Scommaaccent">
          -16 -4 111 487 111 hstem
          67 132 61 123 62 131 vstem
          199 521 rmoveto
          47 45 26 69 53 76 -19 -46 76 vhcurveto
          49 104 rlineto
          43 -65 -89 29 -91 hhcurveto
          -152 -103 -75 -120 hvcurveto
          -249 378 87 -156 vvcurveto
          -54 -49 -31 -82 -75 -90 36 66 -72 vhcurveto
          -51 -102 rlineto
          -66 72 104 -45 110 hhcurveto
          154 110 77 125 hvcurveto
          1 252 -378 -82 153 vvcurveto
          123 -570 rmoveto
          -36 -26 -27 -37 -21 9 -19 18 -12 hvcurveto
          -38 -86 rlineto
          59 hlineto
          57 86 rlineto
          11 16 7 17 19 vvcurveto
          40 -29 24 -32 vhcurveto
          endchar
        </CharString>
        <CharString name="T">
          -59 21 -21 594 106 hstem
          230 118 vstem
          570 594 rmoveto
          106 -561 -106 221 -594 118 594 vlineto
          endchar
        </CharString>
        <CharString name="Tcaron">
          -59 21 -21 594 106 70 150 hstem
          230 118 vstem
          129 920 rmoveto
          108 -150 rlineto
          114 hlineto
          108 150 rlineto
          -102 hlineto
          -63 -93 -63 93 rlineto
          339 -326 rmoveto
          106 -561 -106 221 -594 118 594 vlineto
          endchar
        </CharString>
        <CharString name="Tcedilla">
          -59 -224 62 -13 -21 217 -21 594 106 hstemhm
          230 118 -43 68 hintmask 01111000
          327 hmoveto
          21 594 222 106 -561 -106 221 -594 hlineto
          hintmask 10110100
          29 hlineto
          -37 -88 rlineto
          3 11 13 2 11 hhcurveto
          33 15 -19 -19 -20 -17 -21 -29 -20 -21 7 13 -17 hvcurveto
          hintmask 01111000
          -22 -54 rlineto
          hintmask 10110100
          -17 23 32 -11 33 hhcurveto
          59 47 37 58 44 -28 27 -42 8 hvcurveto
          endchar
        </CharString>
        <CharString name="Tcommaaccent">
          -59 21 -21 594 106 hstemhm
          220 123 -113 118 hintmask 11010000
          570 700 rmoveto
          -561 -106 221 -594 118 594 222 hlineto
          hintmask 11100000
          -288 -643 rmoveto
          -36 -26 -27 -37 -21 9 -19 18 -12 hvcurveto
          -38 -86 rlineto
          59 hlineto
          57 86 rlineto
          11 16 7 17 19 vvcurveto
          40 -29 24 -32 vhcurveto
          endchar
        </CharString>
        <CharString name="Thorn">
          41 21 -21 122 98 283 98 -98 197 hstemhm
          92 118 323 120 hintmask 11101100
          210 601 rmoveto
          hintmask 11011100
          99 -118 -700 118 122 147 vlineto
          190 106 89 156 hvcurveto
          hintmask 11101100
          149 -106 85 -190 vhcurveto
          -147 -381 rmoveto
          283 142 vlineto
          119 62 -48 -91 -95 -62 -49 -119 hvcurveto
          endchar
        </CharString>
        <CharString name="U">
          126 -5 106 599 -20 hstem
          78 118 373 118 vstem
          687 700 rmoveto
          -118 -410 hlineto
          -119 -71 -70 -114 -115 -73 71 118 vhcurveto
          410 -118 -410 vlineto
          -183 116 -112 189 189 115 112 183 vhcurveto
          endchar
        </CharString>
        <CharString name="Uacute">
          126 -5 106 599 -20 hstem
          78 118 373 118 vstem
          539 874 rmoveto
          -118 50 -106 -148 rlineto
          102 hlineto
          270 -76 rmoveto
          -118 -410 hlineto
          -119 -71 -70 -114 -115 -73 71 118 vhcurveto
          410 -118 -410 vlineto
          -183 116 -112 189 189 115 112 183 vhcurveto
          endchar
        </CharString>
        <CharString name="Ucircumflex">
          126 -5 106 599 -20 99 141 hstem
          78 118 373 118 vstem
          538 779 rmoveto
          -103 141 rlineto
          -106 hlineto
          -103 -141 rlineto
          94 hlineto
          62 88 62 -88 rlineto
          243 -79 rmoveto
          -118 -410 hlineto
          -119 -71 -70 -114 -115 -73 71 118 vhcurveto
          410 -118 -410 vlineto
          -183 116 -112 189 189 115 112 183 vhcurveto
          endchar
        </CharString>
        <CharString name="Udieresis">
          126 -5 106 599 -20 114 127 hstem
          78 118 37 121 56 121 38 118 vstem
          294 921 rmoveto
          -35 -26 -27 -37 -36 26 -27 35 35 25 27 36 37 -25 27 -35 hvcurveto
          177 hmoveto
          -35 -26 -27 -37 -36 26 -27 35 35 25 27 36 37 -25 27 -35 hvcurveto
          216 -221 rmoveto
          -118 -410 hlineto
          -119 -71 -70 -114 -115 -73 71 118 vhcurveto
          410 -118 -410 vlineto
          -183 116 -112 189 189 115 112 183 vhcurveto
          endchar
        </CharString>
        <CharString name="Ugrave">
          126 -5 106 599 -20 hstem
          78 118 373 118 vstem
          444 777 rmoveto
          -106 148 -118 -50 122 -98 rlineto
          345 -77 rmoveto
          -118 -410 hlineto
          -119 -71 -70 -114 -115 -73 71 118 vhcurveto
          410 -118 -410 vlineto
          -183 116 -112 189 189 115 112 183 vhcurveto
          endchar
        </CharString>
        <CharString name="Uhungarumlaut">
          126 -5 106 599 -20 hstem
          78 118 373 118 vstem
          417 884 rmoveto
          -98 44 -83 -154 rlineto
          89 hlineto
          257 110 rmoveto
          -98 44 -83 -154 rlineto
          89 hlineto
          197 -74 rmoveto
          -118 -410 hlineto
          -119 -71 -70 -114 -115 -73 71 118 vhcurveto
          410 -118 -410 vlineto
          -183 116 -112 189 189 115 112 183 vhcurveto
          endchar
        </CharString>
        <CharString name="Umacron">
          126 -5 106 599 -20 129 83 hstem
          78 118 59 255 59 118 vstem
          510 809 rmoveto
          83 -255 -83 vlineto
          432 -109 rmoveto
          -118 -410 hlineto
          -119 -71 -70 -114 -115 -73 71 118 vhcurveto
          410 -118 -410 vlineto
          -183 116 -112 189 189 115 112 183 vhcurveto
          endchar
        </CharString>
        <CharString name="Uogonek">
          127 -201 64 132 106 599 -20 hstem
          78 117 174 62 138 118 vstem
          687 700 rmoveto
          -118 -410 hlineto
          -119 -71 -70 -114 -115 -74 71 118 vhcurveto
          410 -117 -410 vlineto
          -183 116 -112 189 12 11 0 1 11 vhcurveto
          -31 -45 -17 -39 -35 vvcurveto
          -55 40 -23 39 37 35 21 36 23 vhcurveto
          -33 39 rlineto
          -19 -15 -16 -13 -19 hhcurveto
          -17 -12 12 20 24 17 36 36 52 hvcurveto
          128 34 75 102 147 vvcurveto
          endchar
        </CharString>
        <CharString name="Uring">
          126 -5 106 599 -20 57 52 128 52 hstem
          78 118 68 50 136 50 69 118 vstem
          382 969 rmoveto
          -65 -53 -53 -63 -64 53 -52 65 65 53 52 64 63 -53 53 -65 hvcurveto
          -52 vmoveto
          37 31 -29 -35 -35 -31 -29 -37 -37 -31 29 35 35 31 29 37 hvcurveto
          305 -217 rmoveto
          -118 -410 hlineto
          -119 -71 -70 -114 -115 -73 71 118 vhcurveto
          410 -118 -410 vlineto
          -183 116 -112 189 189 115 112 183 vhcurveto
          endchar
        </CharString>
        <CharString name="V">
          52 0 131 -110 -21 700 -20 hstemhm
          3 684 hintmask 01110000
          404 hmoveto
          283 700 rlineto
          -123 hlineto
          hintmask 10110000
          -218 -569 -216 569 rlineto
          -127 hlineto
          279 -700 rlineto
          endchar
        </CharString>
        <CharString name="W">
          398 0 131 -110 -21 700 -20 hstemhm
          3 1043 hintmask 01110000
          812 hmoveto
          234 700 rlineto
          -122 hlineto
          hintmask 10110000
          -169 -569 -170 569 -116 -1 -169 -568 -170 569 rlineto
          -127 hlineto
          232 -700 rlineto
          122 hlineto
          168 546 166 -546 rlineto
          endchar
        </CharString>
        <CharString name="Wacute">
          398 0 131 -110 -21 700 -20 hstemhm
          3 1043 hintmask 01110000
          680 874 rmoveto
          -118 50 -106 -148 rlineto
          102 hlineto
          254 -776 rmoveto
          234 700 rlineto
          -122 hlineto
          hintmask 10110000
          -169 -569 -170 569 -116 -1 -169 -568 -170 569 rlineto
          -127 hlineto
          232 -700 rlineto
          122 hlineto
          168 546 166 -546 rlineto
          endchar
        </CharString>
        <CharString name="Wcircumflex">
          398 0 131 -110 -21 700 -20 99 141 hstemhm
          3 1043 hintmask 01111000
          679 779 rmoveto
          -103 141 rlineto
          -106 hlineto
          -103 -141 rlineto
          94 hlineto
          62 88 62 -88 rlineto
          227 -779 rmoveto
          234 700 rlineto
          -122 hlineto
          hintmask 10111000
          -169 -569 -170 569 -116 -1 -169 -568 -170 569 rlineto
          -127 hlineto
          232 -700 rlineto
          122 hlineto
          168 546 166 -546 rlineto
          endchar
        </CharString>
        <CharString name="Wdieresis">
          398 0 131 -110 -21 700 -20 114 127 hstemhm
          374 121 56 121 hintmask 01111100
          435 921 rmoveto
          -35 -26 -27 -37 -36 26 -27 35 35 25 27 36 37 -25 27 -35 hvcurveto
          177 hmoveto
          -35 -26 -27 -37 -36 26 -27 35 35 25 27 36 37 -25 27 -35 hvcurveto
          200 -921 rmoveto
          234 700 rlineto
          -122 hlineto
          hintmask 10111100
          -169 -569 -170 569 -116 -1 -169 -568 -170 569 rlineto
          -127 hlineto
          232 -700 rlineto
          122 hlineto
          168 546 166 -546 rlineto
          endchar
        </CharString>
        <CharString name="Wgrave">
          398 0 131 -110 -21 700 -20 hstemhm
          3 1043 hintmask 01110000
          585 777 rmoveto
          -106 148 -118 -50 122 -98 rlineto
          329 -777 rmoveto
          234 700 rlineto
          -122 hlineto
          hintmask 10110000
          -169 -569 -170 569 -116 -1 -169 -568 -170 569 rlineto
          -127 hlineto
          232 -700 rlineto
          122 hlineto
          168 546 166 -546 rlineto
          endchar
        </CharString>
        <CharString name="X">
          54 21 -21 700 -20 hstem
          15 656 vstem
          416 364 rmoveto
          235 336 rlineto
          -138 hlineto
          -172 -243 -171 243 rlineto
          -137 hlineto
          237 -341 -255 -359 rlineto
          138 hlineto
          188 264 189 -264 rlineto
          141 hlineto
          endchar
        </CharString>
        <CharString name="Y">
          -1 21 -21 700 -20 hstem
          262 117 vstem
          379 233 rmoveto
          257 467 rlineto
          -120 hlineto
          -196 -341 -200 341 rlineto
          -119 hlineto
          261 -471 rlineto
          -229 117 vlineto
          endchar
        </CharString>
        <CharString name="Yacute">
          -1 21 -21 700 -20 hstem
          262 117 vstem
          353 776 rmoveto
          122 98 -118 50 -106 -148 rlineto
          128 -543 rmoveto
          257 467 rlineto
          -120 hlineto
          -196 -341 -200 341 rlineto
          -119 hlineto
          261 -471 rlineto
          -229 117 vlineto
          endchar
        </CharString>
        <CharString name="Ycircumflex">
          -1 21 -21 700 -20 99 141 hstem
          262 117 vstem
          256 779 rmoveto
          62 88 62 -88 rlineto
          94 hlineto
          -103 141 rlineto
          -106 hlineto
          -103 -141 rlineto
          217 -546 rmoveto
          257 467 rlineto
          -120 hlineto
          -196 -341 -200 341 rlineto
          -119 hlineto
          261 -471 rlineto
          -229 117 vlineto
          endchar
        </CharString>
        <CharString name="Ydieresis">
          -1 21 -21 700 -20 114 127 hstemhm
          169 121 -28 117 -33 121 hintmask 00000000
          hintmask 11110100
          230 794 rmoveto
          35 25 27 36 37 -25 27 -35 -35 -26 -27 -37 -36 26 -27 35 hvcurveto
          177 hmoveto
          35 25 27 36 37 -25 27 -35 -35 -26 -27 -37 -36 26 -27 35 hvcurveto
          hintmask 11101000
          -28 -561 rmoveto
          257 467 rlineto
          -120 hlineto
          -196 -341 -200 341 rlineto
          -119 hlineto
          261 -471 rlineto
          -229 117 vlineto
          endchar
        </CharString>
        <CharString name="Ygrave">
          -1 21 -21 700 -20 hstem
          262 117 vstem
          278 777 rmoveto
          102 hlineto
          -106 148 -118 -50 rlineto
          223 -642 rmoveto
          257 467 rlineto
          -120 hlineto
          -196 -341 -200 341 rlineto
          -119 hlineto
          261 -471 rlineto
          -229 117 vlineto
          endchar
        </CharString>
        <CharString name="Z">
          28 0 106 488 106 hstem
          37 591 vstem
          623 615 rmoveto
          85 -573 -106 414 vlineto
          -427 -509 rlineto
          -85 591 106 -431 vlineto
          endchar
        </CharString>
        <CharString name="Zacute">
          28 0 106 488 106 hstem
          37 591 vstem
          499 874 rmoveto
          -118 50 -106 -148 rlineto
          102 hlineto
          246 -161 rmoveto
          85 -573 -106 414 vlineto
          -427 -509 rlineto
          -85 591 106 -431 vlineto
          endchar
        </CharString>
        <CharString name="Zcaron">
          28 0 106 488 106 70 150 hstem
          37 591 vstem
          174 920 rmoveto
          108 -150 rlineto
          114 hlineto
          108 150 rlineto
          -102 hlineto
          -63 -93 -63 93 rlineto
          347 -305 rmoveto
          85 -573 -106 414 vlineto
          -427 -509 rlineto
          -85 591 106 -431 vlineto
          endchar
        </CharString>
        <CharString name="Zdotaccent">
          28 0 106 488 106 83 139 hstem
          275 134 vstem
          342 922 rmoveto
          -38 -29 -29 -41 -40 29 -29 38 38 29 29 40 41 -29 29 -38 hvcurveto
          281 -307 rmoveto
          85 -573 -106 414 vlineto
          -427 -509 rlineto
          -85 591 106 -431 vlineto
          endchar
        </CharString>
        <CharString name="a">
          -52 -5 91 -65 -21 236 84 123 93 hstemhm
          41 108 254 113.5 hintmask 00000000
          hintmask 01111100
          404 hmoveto
          113 hlineto
          -1 349 rlineto
          117 -1 -77 70 -137 hhcurveto
          -101 -54 -23 -44 -74 hvcurveto
          47 -80 rlineto
          36 53 53 18 51 hhcurveto
          84 43 -40 -67 hvcurveto
          -16 -161 vlineto
          -128 -1 -73 -62 -97 vvcurveto
          hintmask 10111100
          -94 72 -71 115 77 61 23 47 38 vhcurveto
          -152 21 rmoveto
          -64 -39 31 48 51 35 20 75 hvcurveto
          144 -49 hlineto
          -58 -6 -63 -43 -82 hhcurveto
          endchar
        </CharString>
        <CharString name="aacute">
          -52 -5 91 -65 -21 236 84 123 93 170 -20 hstemhm
          41 108 254 113.5 hintmask 10111110
          325 608 rmoveto
          122 98 -118 50 -106 -148 rlineto
          hintmask 01111110
          181 -608 rmoveto
          113 hlineto
          -1 349 rlineto
          117 -1 -77 70 -137 hhcurveto
          -101 -54 -23 -44 -74 hvcurveto
          47 -80 rlineto
          36 53 53 18 51 hhcurveto
          84 43 -40 -67 hvcurveto
          -16 -161 vlineto
          -128 -1 -73 -62 -97 vvcurveto
          hintmask 10111110
          -94 72 -71 115 77 61 23 47 38 vhcurveto
          -152 21 rmoveto
          -64 -39 31 48 51 35 20 75 hvcurveto
          144 -49 hlineto
          -58 -6 -63 -43 -82 hhcurveto
          endchar
        </CharString>
        <CharString name="abreve">
          -52 -5 91 -65 -21 236 84 123 93 70 77 -77 142 hstemhm
          41 108 0 78 126 78 -28 113.5 hintmask 0000000000000000
          hintmask 1011010110000000
          290 606 rmoveto
          80 58 57 85 3 hvcurveto
          -78 hlineto
          hintmask 1011101010000000
          -38 -2 -26 -27 -35 hhcurveto
          hintmask 1011010101000000
          -35 -26 27 38 -2 hvcurveto
          -78 hlineto
          hintmask 1011010110000000
          -85 3 58 -57 80 hhcurveto
          hintmask 0111011001000000
          114 -606 rmoveto
          113 hlineto
          -1 349 rlineto
          117 -1 -77 70 -137 hhcurveto
          -101 -54 -23 -44 -74 hvcurveto
          47 -80 rlineto
          36 53 53 18 51 hhcurveto
          84 43 -40 -67 hvcurveto
          -16 -161 vlineto
          -128 -1 -73 -62 -97 vvcurveto
          hintmask 1011011001000000
          -94 72 -71 115 77 61 23 47 38 vhcurveto
          -152 21 rmoveto
          -64 -39 31 48 51 35 20 75 hvcurveto
          144 -49 hlineto
          -58 -6 -63 -43 -82 hhcurveto
          endchar
        </CharString>
        <CharString name="acircumflex">
          -52 -5 91 -65 -21 236 84 123 93 75 141 -53 53 hstemhm
          41 108 254 113.5 hintmask 10111011
          228 611 rmoveto
          hintmask 10110111
          62 88 rlineto
          hintmask 01111011
          62 -88 rlineto
          94 hlineto
          -103 141 rlineto
          -106 hlineto
          -103 -141 rlineto
          270 -611 rmoveto
          113 hlineto
          -1 349 rlineto
          117 -1 -77 70 -137 hhcurveto
          -101 -54 -23 -44 -74 hvcurveto
          47 -80 rlineto
          36 53 53 18 51 hhcurveto
          84 43 -40 -67 hvcurveto
          -16 -161 vlineto
          -128 -1 -73 -62 -97 vvcurveto
          hintmask 10111011
          -94 72 -71 115 77 61 23 47 38 vhcurveto
          -152 21 rmoveto
          -64 -39 31 48 51 35 20 75 hvcurveto
          144 -49 hlineto
          -58 -6 -63 -43 -82 hhcurveto
          endchar
        </CharString>
        <CharString name="acute">
          706 -20 hstem
          62 224 vstem
          286 706 rmoveto
          -118 50 -106 -148 rlineto
          102 hlineto
          endchar
        </CharString>
        <CharString name="adieresis">
          -52 -5 91 -65 -21 236 84 123 93 90 127 hstemhm
          41 108 -8 121 56 121 -36 113.5 hintmask 0000000000000000
          hintmask 1011101100000000
          202 626 rmoveto
          35 25 27 36 37 -25 27 -35 -35 -26 -27 -37 -36 26 -27 35 hvcurveto
          177 hmoveto
          35 25 27 36 37 -25 27 -35 -35 -26 -27 -37 -36 26 -27 35 hvcurveto
          hintmask 0111110010000000
          25 -626 rmoveto
          113 hlineto
          -1 349 rlineto
          117 -1 -77 70 -137 hhcurveto
          -101 -54 -23 -44 -74 hvcurveto
          47 -80 rlineto
          36 53 53 18 51 hhcurveto
          84 43 -40 -67 hvcurveto
          -16 -161 vlineto
          -128 -1 -73 -62 -97 vvcurveto
          hintmask 1011110010000000
          -94 72 -71 115 77 61 23 47 38 vhcurveto
          -152 21 rmoveto
          -64 -39 31 48 51 35 20 75 hvcurveto
          144 -49 hlineto
          -58 -6 -63 -43 -82 hhcurveto
          endchar
        </CharString>
        <CharString name="ae">
          336 -5 81 -80 93 152 62 -59 62 137 93 -84 84 hstemhm
          41 108 257 8 412 115 hintmask 1010011110000000
          677 536 rmoveto
          -79 -65 -29 -51 -45 hvcurveto
          51 -35 -64 29 -88 hhcurveto
          -77 -77 -23 -41 -75 hvcurveto
          hintmask 1001101110000000
          29 -83 rlineto
          35 59 60 19 57 hhcurveto
          84 44 -40 -67 hvcurveto
          -30 -162 vlineto
          -127 -1 -75 -54 -96 vvcurveto
          -94 72 -66 114 105 79 43 86 43 vhcurveto
          hintmask 0110011110000000
          -80 41 80 -48 105 hhcurveto
          92 76 33 57 53 hvcurveto
          -62 65 rlineto
          -40 -39 -53 -22 -58 hhcurveto
          -90 -66 58 94 -12 hvcurveto
          420 hlineto
          hintmask 1010011110000000
          176 6 -104 119 -166 hhcurveto
          -156 -233 rmoveto
          87 12 60 62 85 hhcurveto
          87 58 -62 -87 3 hvcurveto
          -412 -116 rmoveto
          -81 -33 -57 -30 -71 hhcurveto
          -63 -41 36 53 hvcurveto
          hintmask 1001011110000000
          51 42 28 74 vhcurveto
          141 -44 hlineto
          23 -5 2 -10 2 -9 3 -8 rlinecurve
          endchar
        </CharString>
        <CharString name="agrave">
          -52 -5 91 -65 -21 236 84 123 93 171 -20 hstemhm
          41 108 254 113.5 hintmask 10111110
          250 609 rmoveto
          102 hlineto
          -106 148 -118 -50 rlineto
          hintmask 01111110
          276 -707 rmoveto
          113 hlineto
          -1 349 rlineto
          117 -1 -77 70 -137 hhcurveto
          -101 -54 -23 -44 -74 hvcurveto
          47 -80 rlineto
          36 53 53 18 51 hhcurveto
          84 43 -40 -67 hvcurveto
          -16 -161 vlineto
          -128 -1 -73 -62 -97 vvcurveto
          hintmask 10111110
          -94 72 -71 115 77 61 23 47 38 vhcurveto
          -152 21 rmoveto
          -64 -39 31 48 51 35 20 75 hvcurveto
          144 -49 hlineto
          -58 -6 -63 -43 -82 hhcurveto
          endchar
        </CharString>
        <CharString name="amacron">
          -52 -5 91 -65 -21 236 84 123 93 105 83 hstemhm
          41 108 14 255 -15 113.5 hintmask 00000000
          hintmask 10111110
          418 641 rmoveto
          83 -255 -83 vlineto
          hintmask 01111101
          241 -641 rmoveto
          113 hlineto
          -1 349 rlineto
          117 -1 -77 70 -137 hhcurveto
          -101 -54 -23 -44 -74 hvcurveto
          47 -80 rlineto
          36 53 53 18 51 hhcurveto
          84 43 -40 -67 hvcurveto
          -16 -161 vlineto
          -128 -1 -73 -62 -97 vvcurveto
          hintmask 10111101
          -94 72 -71 115 77 61 23 47 38 vhcurveto
          -152 21 rmoveto
          -64 -39 31 48 51 35 20 75 hvcurveto
          144 -49 hlineto
          -58 -6 -63 -43 -82 hhcurveto
          endchar
        </CharString>
        <CharString name="ampersand">
          25 -5 87 551 72 hstemhm
          57 95 -11 91 177 91 hintmask 11101000
          597 -19 rmoveto
          59 60 -114 111 28 38 24 45 21 50 rlinecurve
          -75 56 -18 -48 -21 -42 -24 -36 rlinecurve
          -60 59 -49 50 -38 43 rrcurveto
          86 45 84 50 96 vvcurveto
          86 -72 61 -105 vhcurveto
          hintmask 11011000
          -109 -73 -65 -93 -50 21 -50 46 -62 hvcurveto
          hintmask 11101000
          -79 -42 -72 -53 -99 vvcurveto
          -113 95 -83 125 77 72 34 59 62 vhcurveto
          hintmask 11011000
          -256 460 rmoveto
          48 36 37 56 52 33 -30 -46 -62 -57 -36 -68 -35 vhcurveto
          -35 48 -17 39 37 vvcurveto
          49 -466 rmoveto
          hintmask 11101000
          -72 -57 48 70 57 45 37 58 33 hvcurveto
          44 -50 56 -57 70 -70 rrcurveto
          hintmask 11011000
          -43 -44 -49 -25 -51 hhcurveto
          endchar
        </CharString>
        <CharString name="aogonek">
          -48 -201 64 132 91 -65 -21 236 84 123 93 hstemhm
          41 108 222 62 -29 113 hintmask 11011101
          301 536 rmoveto
          -102 -53 -23 -44 -74 hvcurveto
          47 -80 rlineto
          36 53 53 18 50 hhcurveto
          85 42 -40 -67 1 hvcurveto
          -16 -162 vlineto
          -127 -1 -73 -62 -97 vvcurveto
          -94 71 -71 116 77 61 23 47 38 vhcurveto
          hintmask 10111101
          -65 vlineto
          hintmask 10111110
          21 hlineto
          -35 -46 -19 -40 -37 vvcurveto
          -55 40 -23 39 37 35 21 36 23 vhcurveto
          -33 39 rlineto
          -19 -15 -16 -13 -18 hhcurveto
          -18 -12 12 20 23 15 34 35 48 hvcurveto
          hintmask 10111101
          34 349 hlineto
          hintmask 11011101
          117 -2 -77 70 -137 hhcurveto
          103 -300 rmoveto
          -50 vlineto
          -52 -3 -69 -48 -80 hhcurveto
          -64 -39 31 48 51 34 20 76 hvcurveto
          endchar
        </CharString>
        <CharString name="approxequal">
          -140 144 90 -83 140 74 89 -32 89 hstemhm
          66 80 208 79 hintmask 00000000
          hintmask 10011100
          163 511 rmoveto
          -64 -33 -47 -93 hvcurveto
          80 hlineto
          33 13 18 26 vhcurveto
          hintmask 10101100
          41 42 -57 68 hhcurveto
          64 33 47 93 hvcurveto
          -79 hlineto
          -33 -14 -18 -25 vhcurveto
          hintmask 10011100
          -41 -47 57 -64 hhcurveto
          hintmask 01101100
          -220 vmoveto
          -64 -33 -47 -93 hvcurveto
          80 hlineto
          33 13 17 26 vhcurveto
          hintmask 10101100
          41 42 -57 68 hhcurveto
          64 33 47 93 hvcurveto
          -79 hlineto
          -33 -14 -17 -25 vhcurveto
          hintmask 01101100
          -41 -47 57 -64 hhcurveto
          endchar
        </CharString>
        <CharString name="aring">
          -52 -5 91 -65 -21 236 84 123 93 33 52 128 52 hstemhm
          41 108 23 50 136 50 -5 113.5 hintmask 0000000000000000
          hintmask 1011111110000000
          290 569 rmoveto
          65 53 52 64 63 -53 53 -65 -65 -53 -53 -63 -64 53 -52 65 hvcurveto
          180 vmoveto
          37 31 -29 -35 -35 -31 -29 -37 -37 -31 29 35 35 31 29 37 hvcurveto
          hintmask 0111111001000000
          114 -749 rmoveto
          113 hlineto
          -1 349 rlineto
          117 -1 -77 70 -137 hhcurveto
          -101 -54 -23 -44 -74 hvcurveto
          47 -80 rlineto
          36 53 53 18 51 hhcurveto
          84 43 -40 -67 hvcurveto
          -16 -161 vlineto
          -128 -1 -73 -62 -97 vvcurveto
          hintmask 1011111001000000
          -94 72 -71 115 77 61 23 47 38 vhcurveto
          -152 21 rmoveto
          -64 -39 31 48 51 35 20 75 hvcurveto
          144 -49 hlineto
          -58 -6 -63 -43 -82 hhcurveto
          endchar
        </CharString>
        <CharString name="asciicircum">
          -100 455 71 hstem
          32 473 vstem
          416 132 rmoveto
          89 hlineto
          -186 394 rlineto
          -101 hlineto
          -186 -394 rlineto
          89 hlineto
          148 323 rlineto
          endchar
        </CharString>
        <CharString name="asciitilde">
          -140 248 90 -83 140 hstemhm
          66 80 208 79 hintmask 00000000
          hintmask 01110000
          163 395 rmoveto
          -64 -33 -47 -93 hvcurveto
          80 hlineto
          33 13 17 26 vhcurveto
          hintmask 10110000
          41 42 -57 68 hhcurveto
          64 33 47 93 hvcurveto
          -79 hlineto
          -33 -14 -17 -25 vhcurveto
          hintmask 01110000
          -41 -47 57 -64 hhcurveto
          endchar
        </CharString>
        <CharString name="asterisk">
          -290 408 313 hstem
          144.5 59 vstem
          203 511 rmoveto
          89 -53 30 56 -90 51 90 49 -30 56 -89 -52 1 103 rlineto
          -60 hlineto
          1 -103 -89 53 -31 -57 90 -49 -90 -51 31 -55 89 52 -1 -103 rlineto
          60 hlineto
          endchar
        </CharString>
        <CharString name="at">
          336 -153 83 93 72 -60 98 275 100 113 81 hstemhm
          34 86 108 117 261 108 140 86 hintmask 1101111110000000
          493 702 rmoveto
          -258 -201 -189 -246 -241 192 -179 254 76 99 27 42 59 hvcurveto
          -41 73 rlineto
          -40 -56 -78 -19 -59 hhcurveto
          -204 -156 142 195 198 165 156 208 222 139 -153 -199 -103 -45 -71 -49 -27 -19 16 38 hvcurveto
          349 -108 -65 vlineto
          21 -10 -60 54 -88 hhcurveto
          -133 -87 -107 -132 hvcurveto
          hintmask 1011111110000000
          -140 109 -94 122 69 62 29 60 41 vhcurveto
          hintmask 1101111110000000
          2 -20 rlineto
          -56 11 44 -25 61 hhcurveto
          112 79 98 151 249 -190 181 -257 hvcurveto
          -24 -294 rmoveto
          79 51 -60 -75 hvcurveto
          hintmask 1011111110000000
          -78 -49 -62 -79 -76 -50 64 77 vhcurveto
          hintmask 1101111110000000
          74 50 60 74 vhcurveto
          endchar
        </CharString>
        <CharString name="atilde">
          -52 -5 91 -65 -21 236 84 123 93 85 82 -82 131 -76 82 hstemhm
          41 108 -20 74 175 73 -48 113.5 hintmask 0000000000000000
          hintmask 1011001010100000
          240 676 rmoveto
          hintmask 1011100101000000
          35 25 -55 60 hhcurveto
          hintmask 1011010101000000
          60 31 44 87 hvcurveto
          -73 hlineto
          hintmask 1011100011000000
          -32 -13 -17 -25 vhcurveto
          -34 -30 55 -55 hhcurveto
          hintmask 1011001010100000
          -60 -32 -44 -87 hvcurveto
          74 hlineto
          32 13 17 24 vhcurveto
          hintmask 0111100100100000
          164 -676 rmoveto
          113 hlineto
          -1 349 rlineto
          117 -1 -77 70 -137 hhcurveto
          -101 -54 -23 -44 -74 hvcurveto
          47 -80 rlineto
          36 53 53 18 51 hhcurveto
          84 43 -40 -67 hvcurveto
          -16 -161 vlineto
          -128 -1 -73 -62 -97 vvcurveto
          hintmask 1011100100100000
          -94 72 -71 115 77 61 23 47 38 vhcurveto
          -152 21 rmoveto
          -64 -39 31 48 51 35 20 75 hvcurveto
          144 -49 hlineto
          -58 -6 -63 -43 -82 hhcurveto
          endchar
        </CharString>
        <CharString name="b">
          42 -4 98 -73 -21 440 96 206 -20 hstemhm
          90 115 324 116 hintmask 10111100
          391 536 rmoveto
          -83 -64 -34 -62 -39 hvcurveto
          302 -115 vlineto
          hintmask 01111100
          -742 115 vlineto
          hintmask 10111100
          92 vlineto
          -62 39 64 -34 85 hhcurveto
          152 100 109 159 162 -103 110 -151 hvcurveto
          -24 -442 rmoveto
          -95 -67 71 103 100 67 72 95 95 67 -73 -99 -102 -67 -72 -95 hvcurveto
          endchar
        </CharString>
        <CharString name="backslash">
          -93 -117 933 hstem
          130 415 vstem
          228 816 rmoveto
          -98 hlineto
          317 -933 rlineto
          98 hlineto
          endchar
        </CharString>
        <CharString name="bar">
          -369 -116 926 hstem
          91 87 vstem
          178 -116 rmoveto
          926 -87 -926 vlineto
          endchar
        </CharString>
        <CharString name="braceleft">
          -309 -126 92 295 95 295 92 hstem
          110 104 vstem
          214 580 rmoveto
          50 24 21 71 vhcurveto
          92 -43 vlineto
          -112 -44 -35 -92 hvcurveto
          -207 vlineto
          -38 -13 -15 -30 vhcurveto
          -31 -95 31 hlineto
          30 13 -15 -38 hvcurveto
          -206 vlineto
          -93 44 -35 112 vhcurveto
          43 92 hlineto
          -71 -24 21 50 hvcurveto
          164 vlineto
          64 -19 31 -51 12 vhcurveto
          51 13 19 31 64 vvcurveto
          endchar
        </CharString>
        <CharString name="braceright">
          -236 -126 92 295 95 295 92 hstem
          224 104 vstem
          402 356 rmoveto
          -31 hlineto
          -30 -13 15 38 hvcurveto
          207 vlineto
          92 -44 35 -112 vhcurveto
          -43 -92 hlineto
          71 24 -21 -50 hvcurveto
          -164 vlineto
          -64 19 -31 51 -12 vhcurveto
          -51 -13 -19 -31 -64 vvcurveto
          -164 vlineto
          -50 -24 -21 -71 vhcurveto
          -92 43 vlineto
          112 44 35 93 hvcurveto
          206 vlineto
          38 13 15 30 vhcurveto
          31 hlineto
          endchar
        </CharString>
        <CharString name="bracketleft">
          -293 -124 92 682 92 hstem
          92 103 vstem
          319 650 rmoveto
          92 -227 -866 227 92 -124 682 vlineto
          endchar
        </CharString>
        <CharString name="bracketright">
          -165 -124 92 682 92 hstem
          278 103 vstem
          381 742 rmoveto
          -227 -92 124 -682 -124 -92 227 hlineto
          endchar
        </CharString>
        <CharString name="breve">
          607 77 -77 142 hstemhm
          34 78 126 78 hintmask 01110000
          238 749 rmoveto
          hintmask 10110000
          -38 -2 -26 -27 -35 hhcurveto
          hintmask 01110000
          -35 -26 27 38 -2 hvcurveto
          -78 hlineto
          -85 3 58 -57 80 hhcurveto
          80 58 57 85 3 hvcurveto
          endchar
        </CharString>
        <CharString name="brokenbar">
          -369 -116 926 hstem
          91 87 vstem
          178 464 rmoveto
          346 -87 -346 vlineto
          87 -580 rmoveto
          346 -87 -346 vlineto
          endchar
        </CharString>
        <CharString name="bullet">
          -357 168 198 hstem
          46 189 vstem
          140 366 rmoveto
          -54 -40 -41 -57 -57 40 -43 54 55 40 43 57 57 -40 41 -55 hvcurveto
          endchar
        </CharString>
        <CharString name="bulletoperator">
          -357 168 198 hstem
          46 189 vstem
          140 366 rmoveto
          -54 -40 -41 -57 -57 40 -43 54 55 40 43 57 57 -40 41 -55 hvcurveto
          endchar
        </CharString>
        <CharString name="c">
          -74 -4 99 340 101 hstem
          35 115 vstem
          303 536 rmoveto
          -158 -110 -110 -161 -160 110 -109 158 101 77 36 63 48 hvcurveto
          -64 64 rlineto
          -42 -36 -54 -22 -67 hhcurveto
          -92 -66 69 101 101 66 69 92 hvcurveto
          64 1 51 -23 37 -38 63 74 rcurveline
          56 -49 -75 31 -96 hhcurveto
          endchar
        </CharString>
        <CharString name="cacute">
          -74 -4 99 340 101 170 -20 hstem
          35 115 vstem
          444 706 rmoveto
          -118 50 -106 -148 rlineto
          102 hlineto
          -19 -72 rmoveto
          -158 -110 -110 -161 -160 110 -109 158 101 77 36 63 48 hvcurveto
          -64 64 rlineto
          -42 -36 -54 -22 -67 hhcurveto
          -92 -66 69 101 101 66 69 92 hvcurveto
          64 1 51 -23 37 -38 63 74 rcurveline
          56 -49 -75 31 -96 hhcurveto
          endchar
        </CharString>
        <CharString name="caron">
          605 150 hstem
          10 330 vstem
          10 755 rmoveto
          108 -150 rlineto
          114 hlineto
          108 150 rlineto
          -102 hlineto
          -63 -93 -63 93 rlineto
          endchar
        </CharString>
        <CharString name="ccaron">
          -74 -4 99 340 101 66 150 hstem
          35 115 vstem
          120 752 rmoveto
          108 -150 rlineto
          114 hlineto
          108 150 rlineto
          -102 hlineto
          -63 -93 -63 93 rlineto
          81 -216 rmoveto
          -158 -110 -110 -161 -160 110 -109 158 101 77 36 63 48 hvcurveto
          -64 64 rlineto
          -42 -36 -54 -22 -67 hhcurveto
          -92 -66 69 101 101 66 69 92 hvcurveto
          64 1 51 -23 37 -38 63 74 rcurveline
          56 -49 -75 31 -96 hhcurveto
          endchar
        </CharString>
        <CharString name="ccedilla">
          -74 -224 62 -13 -21 113 178 -97 97 -76 -21 437 101 hstemhm
          35 115 168 68 hintmask 00000000
          hintmask 01010111
          465 159 rmoveto
          -42 -36 -54 -22 -67 hhcurveto
          -92 -66 69 101 101 66 69 92 hvcurveto
          64 1 51 -23 37 -38 63 74 rcurveline
          56 -49 -75 31 -96 hhcurveto
          -158 -110 -110 -161 -149 95 -105 141 -13 hvcurveto
          hintmask 10100111
          -36 -86 rlineto
          3 11 13 2 11 hhcurveto
          33 15 -19 -19 -20 -17 -21 -29 -20 -21 7 13 -17 hvcurveto
          hintmask 01001111
          -22 -54 rlineto
          hintmask 10010111
          -17 23 32 -11 33 hhcurveto
          59 47 37 58 44 -28 27 -42 8 hvcurveto
          23 48 83 7 65 35 42 55 rlinecurve
          endchar
        </CharString>
        <CharString name="cedilla">
          -224 62 -13 -21 113 94 hstemhm
          204 68 hintmask 01110000
          231 11 rmoveto
          -68 hlineto
          -42 -99 rlineto
          3 11 13 2 11 hhcurveto
          33 15 -19 -19 hvcurveto
          hintmask 10110000
          -20 -17 -21 -29 -20 -21 7 13 -17 vhcurveto
          hintmask 01110000
          -22 -54 rlineto
          hintmask 10110000
          -17 23 32 -11 33 hhcurveto
          59 47 37 58 44 -28 27 -42 8 hvcurveto
          endchar
        </CharString>
        <CharString name="cent">
          -74 19 -21 22 -21 534 -20 21 -20 hstemhm
          35 115 109 87 hintmask 01011100
          465 159 rmoveto
          -29 -34 -40 -21 -50 -6 rrcurveto
          335 vlineto
          46 -7 39 -21 29 -30 63 74 rcurveline
          -41 47 -60 30 -76 8 rrcurveto
          150 -87 vlineto
          hintmask 01101100
          -151 vlineto
          -134 -19 -90 -103 -146 vvcurveto
          -145 90 -103 134 -18 vhcurveto
          -141 87 vlineto
          hintmask 10011100
          140 vlineto
          80 9 62 34 41 54 rrcurveto
          -379 170 rmoveto
          82 43 61 66 20 vhcurveto
          -326 vlineto
          -66 20 -43 61 82 vvcurveto
          endchar
        </CharString>
        <CharString name="circumflex">
          614 141 hstem
          19 312 vstem
          331 614 rmoveto
          -103 141 rlineto
          -106 hlineto
          -103 -141 rlineto
          94 hlineto
          62 88 62 -88 rlineto
          endchar
        </CharString>
        <CharString name="colon">
          -426 -9 132 165 132 hstem
          46 126 vstem
          109 420 rmoveto
          -36 -27 -27 -38 -39 27 -28 36 36 27 28 39 38 -27 27 -36 hvcurveto
          -297 vmoveto
          -36 -27 -27 -38 -39 27 -28 36 36 27 28 39 38 -27 27 -36 hvcurveto
          endchar
        </CharString>
        <CharString name="comma">
          -424 -82 203 hstem
          47 123 vstem
          109 121 rmoveto
          -36 -26 -27 -37 -21 9 -19 18 -12 hvcurveto
          -38 -87 rlineto
          59 hlineto
          57 86 rlineto
          11 16 7 17 20 vvcurveto
          40 -29 24 -32 vhcurveto
          endchar
        </CharString>
        <CharString name="commaaccent">
          -638 -251 202 hstem
          47 123 vstem
          109 -49 rmoveto
          -36 -26 -27 -37 -21 9 -19 18 -12 hvcurveto
          -38 -86 rlineto
          59 hlineto
          57 86 rlineto
          11 16 7 17 19 vvcurveto
          40 -29 24 -32 vhcurveto
          endchar
        </CharString>
        <CharString name="copyright">
          107 9 60 107 55 236 53 109 60 hstem
          34 57 107 60 396 57 vstem
          373 689 rmoveto
          -191 -148 -156 -185 -185 147 -154 190 191 149 156 185 186 -148 153 -190 hvcurveto
          -60 vmoveto
          159 122 -126 -153 -153 -123 -128 -160 -159 -121 126 153 153 122 128 160 hvcurveto
          5 -109 rmoveto
          -101 -79 -74 -97 -98 78 -75 100 49 49 22 34 35 hvcurveto
          -35 39 rlineto
          -25 -26 -36 -15 -33 hhcurveto
          -68 -53 53 66 65 53 52 68 35 34 -16 -26 26 hvcurveto
          35 42 rlineto
          33 -34 -49 20 -48 hhcurveto
          endchar
        </CharString>
        <CharString name="currency">
          73 17 -21 61 98 331 97 -46 -20 hstemhm
          87 92 355 91 hintmask 11011100
          625 319 rmoveto
          56 -18 52 -31 43 vhcurveto
          100 100 -65 69 -103 -102 rlineto
          hintmask 11101100
          29 -44 -52 17 -57 hhcurveto
          -56 -52 -17 -30 -44 hvcurveto
          -103 103 -65 -69 100 -100 rlineto
          -30 -43 -18 -52 -56 vvcurveto
          -56 19 -53 31 -43 vhcurveto
          -102 -102 65 -69 106 105 rlineto
          -28 43 51 -16 55 hhcurveto
          55 52 16 28 43 hvcurveto
          106 -105 65 69 -102 102 rlineto
          hintmask 11011100
          32 43 19 52 57 vvcurveto
          -270 -164 rmoveto
          -97 -79 74 90 hvcurveto
          hintmask 11101100
          92 79 75 97 99 80 -75 -92 vhcurveto
          hintmask 11011100
          -90 -80 -74 -99 vhcurveto
          endchar
        </CharString>
        <CharString name="d">
          44 -5 96 -70 -21 439 98 205 -20 hstemhm
          35 115 327 115 hintmask 10111100
          592 742 rmoveto
          -115 -302 hlineto
          62 -39 -64 35 -86 hhcurveto
          -150 -103 -109 -160 -162 102 -111 153 85 64 34 62 38 hvcurveto
          hintmask 01111100
          -91 115 vlineto
          hintmask 10111100
          -278 91 rmoveto
          -97 -66 72 101 -1 hvcurveto
          102 1 67 73 96 hhcurveto
          96 67 -72 -103 -101 -67 -72 -96 hvcurveto
          endchar
        </CharString>
        <CharString name="dagger">
          -102 380 106 213 -20 hstem
          212 109 vstem
          321 486 rmoveto
          213 -109 -213 -197 -106 197 -570 109 570 200 106 vlineto
          endchar
        </CharString>
        <CharString name="daggerdbl">
          -102 44 105 231 106 213 -20 hstem
          212 109 vstem
          321 380 rmoveto
          200 106 -200 213 -109 -213 -197 -106 197 -231 -197 -105 197 -234 109 234 200 105 -200 hlineto
          endchar
        </CharString>
        <CharString name="dcaron">
          81 -5 96 -70 -21 439 98 205 -20 hstemhm
          35 115 327 115 60 123 hintmask 10111100
          477 742 rmoveto
          -302 vlineto
          62 -39 -64 35 -86 hhcurveto
          -150 -103 -109 -160 -162 102 -111 153 85 64 34 62 38 hvcurveto
          hintmask 01111110
          -91 115 742 vlineto
          122 -57 rmoveto
          -36 -26 -27 -37 -21 9 -19 18 -12 hvcurveto
          -38 -87 rlineto
          59 hlineto
          57 86 rlineto
          11 16 7 17 20 vvcurveto
          40 -29 24 -32 vhcurveto
          hintmask 10111100
          -400 -594 rmoveto
          -97 -66 72 101 -1 hvcurveto
          102 1 67 73 96 hhcurveto
          96 67 -72 -103 -101 -67 -72 -96 hvcurveto
          endchar
        </CharString>
        <CharString name="dcroat">
          41 -5 96 -70 -21 439 98 79 66 -66 126 hstemhm
          35 115 327 115 hintmask 10101110
          661 616 rmoveto
          hintmask 10110110
          66 -69 vlineto
          hintmask 10101110
          60 -115 vlineto
          hintmask 10110110
          -60 -99 vlineto
          hintmask 10101110
          -66 99 -176 vlineto
          62 -39 -64 35 -86 hhcurveto
          -150 -103 -109 -160 -162 102 -111 153 85 64 34 62 38 hvcurveto
          hintmask 01101110
          -91 115 616 vlineto
          hintmask 10101110
          -278 -525 rmoveto
          -97 -66 72 101 -1 hvcurveto
          102 1 67 73 96 hhcurveto
          96 67 -72 -103 -101 -67 -72 -96 hvcurveto
          endchar
        </CharString>
        <CharString name="degree">
          -292 580 52 127 51 hstem
          81 49 134 49 vstem
          197 810 rmoveto
          -64 -52 -52 -63 -63 53 -52 63 64 52 52 63 63 -52 52 -64 hvcurveto
          -51 vmoveto
          37 30 -30 -34 -34 -30 -29 -37 -37 -30 29 34 34 30 30 37 hvcurveto
          endchar
        </CharString>
        <CharString name="dieresis">
          -250 626 127 hstem
          26 121 56 121 vstem
          87 753 rmoveto
          -35 -26 -27 -37 -36 26 -27 35 35 25 27 36 37 -25 27 -35 hvcurveto
          177 hmoveto
          -35 -26 -27 -37 -36 26 -27 35 35 25 27 36 37 -25 27 -35 hvcurveto
          endchar
        </CharString>
        <CharString name="divide">
          -140 90 127 68 79 81 127 hstem
          183 121 vstem
          243 572 rmoveto
          -35 -25 -27 -36 -37 25 -27 35 35 26 27 37 36 -26 27 -35 hvcurveto
          220 -287 rmoveto
          79 -428 -79 vlineto
          208 -68 rmoveto
          -35 -25 -27 -36 -37 25 -27 35 35 26 27 37 36 -26 27 -35 hvcurveto
          endchar
        </CharString>
        <CharString name="divisionslash">
          -307 -117 933 hstem
          -21 415 vstem
          77 -117 rmoveto
          317 933 rlineto
          -98 hlineto
          -317 -933 rlineto
          endchar
        </CharString>
        <CharString name="dollar">
          -17 19 -21 22 -21 703 -20 21 -20 hstemhm
          67 132 76 88 82 131 hintmask 01010100
          363 589 rmoveto
          46 -8 55 -19 54 -33 49 104 rcurveline
          -55 37 -73 26 -76 7 rrcurveto
          131 -88 vlineto
          hintmask 10101100
          -132 vlineto
          -126 -14 -82 -71 -107 vvcurveto
          -133 108 -37 100 -30 vhcurveto
          -200 vlineto
          -66 10 -72 34 -60 55 -51 -102 rcurveline
          64 -59 89 -42 96 -8 rrcurveto
          -140 88 vlineto
          hintmask 01011110
          141 vlineto
          127 15 86 73 111 vvcurveto
          1 137 -112 38 -102 31 rrcurveto
          -164 117 rmoveto
          38 29 24 47 8 vhcurveto
          -157 vlineto
          -45 18 -31 25 44 vvcurveto
          164 -238 rmoveto
          48 -19 34 -25 -47 vvcurveto
          -42 -30 -28 -52 -11 vhcurveto
          endchar
        </CharString>
        <CharString name="dotaccent">
          615 139 hstem
          108 134 vstem
          175 754 rmoveto
          -38 -29 -29 -41 -40 29 -29 38 38 29 29 40 41 -29 29 -38 hvcurveto
          endchar
        </CharString>
        <CharString name="dotlessi">
          -354 21 -21 532 -20 hstem
          85 114 vstem
          199 hmoveto
          532 -114 -532 vlineto
          endchar
        </CharString>
        <CharString name="dotlessj">
          -364 -198 96 634 -20 hstem
          84 115 vstem
          199 532 rmoveto
          -115 -539 hlineto
          -63 -25 -33 -47 1 vhcurveto
          -26 1 -25 8 -23 15 -29 -84 rcurveline
          36 -23 44 -12 47 -1 rrcurveto
          102 -1 61 63 112 vvcurveto
          endchar
        </CharString>
        <CharString name="e">
          -50 -4 93 133 84 138 92 hstem
          453 100 vstem
          304 536 rmoveto
          -158 -1 -111 -109 -161 vvcurveto
          -160 108 -109 164 92 76 33 57 52 vhcurveto
          -61 65 rlineto
          -40 -39 -53 -22 -58 hhcurveto
          -84 -63 51 82 -18 hvcurveto
          402 hlineto
          192 14 -76 122 -187 hhcurveto
          -155 -230 rmoveto
          85 13 59 53 84 hhcurveto
          87 57 -52 -86 4 hvcurveto
          endchar
        </CharString>
        <CharString name="eacute">
          -50 -4 93 133 84 138 92 170 -20 hstem
          453 100 vstem
          333 608 rmoveto
          122 98 -118 50 -106 -148 rlineto
          73 -72 rmoveto
          -158 -1 -111 -109 -161 vvcurveto
          -160 108 -109 164 92 76 33 57 52 vhcurveto
          -61 65 rlineto
          -40 -39 -53 -22 -58 hhcurveto
          -84 -63 51 82 -18 hvcurveto
          402 hlineto
          192 14 -76 122 -187 hhcurveto
          -155 -230 rmoveto
          85 13 59 53 84 hhcurveto
          87 57 -52 -86 4 hvcurveto
          endchar
        </CharString>
        <CharString name="ecaron">
          -50 -4 93 133 84 138 92 66 150 hstem
          453 100 vstem
          239 602 rmoveto
          114 hlineto
          108 150 rlineto
          -102 hlineto
          -63 -93 -63 93 rlineto
          -102 hlineto
          173 -216 rmoveto
          -158 -1 -111 -109 -161 vvcurveto
          -160 108 -109 164 92 76 33 57 52 vhcurveto
          -61 65 rlineto
          -40 -39 -53 -22 -58 hhcurveto
          -84 -63 51 82 -18 hvcurveto
          402 hlineto
          192 14 -76 122 -187 hhcurveto
          -155 -230 rmoveto
          85 13 59 53 84 hhcurveto
          87 57 -52 -86 4 hvcurveto
          endchar
        </CharString>
        <CharString name="ecircumflex">
          -50 -4 93 133 84 138 92 75 141 -53 53 hstemhm
          453 100 hintmask 11110100
          237 611 rmoveto
          hintmask 11101100
          62 88 rlineto
          hintmask 11110100
          62 -88 rlineto
          94 hlineto
          -103 141 rlineto
          -106 hlineto
          -103 -141 rlineto
          161 -75 rmoveto
          -158 -1 -111 -109 -161 vvcurveto
          -160 108 -109 164 92 76 33 57 52 vhcurveto
          -61 65 rlineto
          -40 -39 -53 -22 -58 hhcurveto
          -84 -63 51 82 -18 hvcurveto
          402 hlineto
          192 14 -76 122 -187 hhcurveto
          -155 -230 rmoveto
          85 13 59 53 84 hhcurveto
          87 57 -52 -86 4 hvcurveto
          endchar
        </CharString>
        <CharString name="edieresis">
          -50 -4 93 133 84 138 92 90 127 hstemhm
          150 121 56 121 5 100 hintmask 11111010
          211 626 rmoveto
          35 25 27 36 37 -25 27 -35 -35 -26 -27 -37 -36 26 -27 35 hvcurveto
          hintmask 11111100
          177 hmoveto
          35 25 27 36 37 -25 27 -35 -35 -26 -27 -37 -36 26 -27 35 hvcurveto
          hintmask 11111010
          -84 -90 rmoveto
          -158 -1 -111 -109 -161 vvcurveto
          -160 108 -109 164 92 76 33 57 52 vhcurveto
          -61 65 rlineto
          -40 -39 -53 -22 -58 hhcurveto
          -84 -63 51 82 -18 hvcurveto
          402 hlineto
          192 14 -76 122 -187 hhcurveto
          -155 -230 rmoveto
          85 13 59 53 84 hhcurveto
          87 57 -52 -86 4 hvcurveto
          endchar
        </CharString>
        <CharString name="edotaccent">
          -50 -4 93 133 84 138 92 79 139 hstem
          232 134 87 100 vstem
          299 615 rmoveto
          38 29 29 40 41 -29 29 -38 -38 -29 -29 -41 -40 29 -29 38 hvcurveto
          5 -79 rmoveto
          -158 -1 -111 -109 -161 vvcurveto
          -160 108 -109 164 92 76 33 57 52 vhcurveto
          -61 65 rlineto
          -40 -39 -53 -22 -58 hhcurveto
          -84 -63 51 82 -18 hvcurveto
          402 hlineto
          192 14 -76 122 -187 hhcurveto
          -155 -230 rmoveto
          85 13 59 53 84 hhcurveto
          87 57 -52 -86 4 hvcurveto
          endchar
        </CharString>
        <CharString name="egrave">
          -50 -4 93 133 84 138 92 171 -20 hstem
          453 100 vstem
          258 609 rmoveto
          102 hlineto
          -106 148 -118 -50 rlineto
          168 -171 rmoveto
          -158 -1 -111 -109 -161 vvcurveto
          -160 108 -109 164 92 76 33 57 52 vhcurveto
          -61 65 rlineto
          -40 -39 -53 -22 -58 hhcurveto
          -84 -63 51 82 -18 hvcurveto
          402 hlineto
          192 14 -76 122 -187 hhcurveto
          -155 -230 rmoveto
          85 13 59 53 84 hhcurveto
          87 57 -52 -86 4 hvcurveto
          endchar
        </CharString>
        <CharString name="eight">
          -12 -5 93 235 92 205 85 hstemhm
          44 112 -77 100 268 101 -77 112 hintmask 00000000
          hintmask 11101100
          313 705 rmoveto
          -143 -91 -67 -110 -68 41 -55 68 -31 hvcurveto
          hintmask 11110010
          -89 -28 -55 -66 -86 vvcurveto
          -123 104 -76 165 166 104 76 125 85 -54 65 -85 28 vhcurveto
          hintmask 11110100
          65 29 39 53 68 vvcurveto
          hintmask 11101100
          112 -91 69 -144 vhcurveto
          -85 vmoveto
          85 49 -38 -65 -65 -49 -37 -85 -84 -50 37 65 65 50 38 84 hvcurveto
          hintmask 11110010
          -297 vmoveto
          100 58 -43 -73 -76 -58 -43 -100 -100 -57 43 76 73 58 43 99 hvcurveto
          endchar
        </CharString>
        <CharString name="eight.dnom">
          -231 -3 62 127 62 112 56 hstemhm
          35 79 -57 70 153 71 -58 79 hintmask 00000000
          hintmask 11101100
          203 416 rmoveto
          -89 -57 -40 -65 -39 24 -33 40 -18 hvcurveto
          hintmask 11110010
          -53 -18 -33 -39 -49 vvcurveto
          -73 65 -45 104 103 65 45 74 49 -31 38 -51 18 vhcurveto
          hintmask 11110100
          37 17 24 32 38 vvcurveto
          hintmask 11101100
          67 -58 41 -90 vhcurveto
          1 -56 rmoveto
          48 28 -21 -35 -36 -28 -20 -48 -49 -28 20 36 35 28 21 49 hvcurveto
          hintmask 11110010
          -1 -174 rmoveto
          58 32 -23 -40 -41 -33 -23 -56 -57 -33 23 42 39 33 23 56 hvcurveto
          endchar
        </CharString>
        <CharString name="eight.numr">
          -231 283 63 127 62 111 57 hstemhm
          35 79 -57 70 153 71 -58 79 hintmask 00000000
          hintmask 11101100
          203 703 rmoveto
          -89 -57 -40 -65 -40 24 -32 40 -18 hvcurveto
          hintmask 11110010
          -53 -18 -33 -39 -49 vvcurveto
          -73 65 -46 104 103 65 46 74 48 -31 39 -51 18 vhcurveto
          hintmask 11110100
          37 17 24 31 39 vvcurveto
          hintmask 11101100
          67 -58 41 -90 vhcurveto
          1 -57 rmoveto
          48 28 -20 -36 -35 -28 -20 -48 -49 -28 20 35 36 28 20 49 hvcurveto
          hintmask 11110010
          -1 -173 rmoveto
          58 32 -23 -40 -42 -33 -22 -56 -57 -33 23 41 40 33 23 56 hvcurveto
          endchar
        </CharString>
        <CharString name="ellipsis">
          -30 -9 127 hstem
          46 120 78 120 78 120 vstem
          106 118 rmoveto
          -34 -26 -26 -37 -37 26 -27 34 34 26 27 37 37 -26 26 -34 hvcurveto
          198 hmoveto
          -34 -26 -26 -37 -37 26 -27 34 34 26 27 37 37 -26 26 -34 hvcurveto
          198 hmoveto
          -34 -26 -26 -37 -37 26 -27 34 34 26 27 37 37 -26 26 -34 hvcurveto
          endchar
        </CharString>
        <CharString name="emacron">
          -50 -4 93 133 84 138 92 105 83 hstemhm
          171 255 27 100 hintmask 00000000
          hintmask 11111100
          426 641 rmoveto
          83 -255 -83 vlineto
          hintmask 11110100
          133 -105 rmoveto
          -158 -1 -111 -109 -161 vvcurveto
          -160 108 -109 164 92 76 33 57 52 vhcurveto
          -61 65 rlineto
          -40 -39 -53 -22 -58 hhcurveto
          -84 -63 51 82 -18 hvcurveto
          402 hlineto
          192 14 -76 122 -187 hhcurveto
          -155 -230 rmoveto
          85 13 59 53 84 hhcurveto
          87 57 -52 -86 4 hvcurveto
          endchar
        </CharString>
        <CharString name="emdash">
          53 225 79 hstem
          0 691 vstem
          691 225 rmoveto
          79 -691 -79 vlineto
          endchar
        </CharString>
        <CharString name="endash">
          -233 225 79 hstem
          0 405 vstem
          405 225 rmoveto
          79 -405 -79 vlineto
          endchar
        </CharString>
        <CharString name="eogonek">
          -50 -201 64 133 92 134 84 138 91 hstemhm
          35 114 212 62 30 101 hintmask 00000000
          hintmask 11111110
          304 535 rmoveto
          -174 -4 -95 -113 -151 vvcurveto
          -162 110 -109 157 vhcurveto
          hintmask 11111100
          46 37 9 23 39 hvcurveto
          -41 -55 -22 -52 -43 vvcurveto
          -57 40 -22 39 39 33 23 34 22 vhcurveto
          -33 39 rlineto
          -17 -13 -16 -15 -19 hhcurveto
          -18 -12 11 23 45 44 73 60 71 hvcurveto
          -61 65 rlineto
          -40 -39 -55 -23 -56 hhcurveto
          -90 -57 54 80 -18 hvcurveto
          hintmask 11111110
          403 hlineto
          13 196 -86 122 -177 -5 rrcurveto
          2 -91 rmoveto
          86 57 -56 -82 4 hvcurveto
          -304 hlineto
          82 8 63 56 86 hhcurveto
          endchar
        </CharString>
        <CharString name="equal">
          -140 180 79 131 79 hstem
          35 428 vstem
          463 390 rmoveto
          79 -428 -79 vlineto
          428 -210 rmoveto
          79 -428 -79 vlineto
          endchar
        </CharString>
        <CharString name="estimated">
          171 18 18 276 16 275 18 hstem
          70 122 426 122 vstem
          740 312 rmoveto
          7 vlineto
          167 -150 135 -185 -185 -150 -135 -167 -166 150 -135 185 107 98 47 70 60 vhcurveto
          -49 hlineto
          -60 -51 -78 -39 -86 hhcurveto
          -81 -74 34 55 -51 hvcurveto
          -4 5 -4 6 8 vvcurveto
          164 vlineto
          3 2 1 3 vhcurveto
          421 21 rmoveto
          -3 -2 -2 -3 vhcurveto
          -416 hlineto
          -3 -2 2 3 hvcurveto
          162 vlineto
          8 4 7 5 5 vhcurveto
          54 52 72 34 81 hhcurveto
          79 72 -33 -52 52 hvcurveto
          5 -5 4 -7 -8 vvcurveto
          endchar
        </CharString>
        <CharString name="eth">
          -48 -5 102 262 84 161 -20 163 -20 hstem
          36 110 288 122 vstem
          503 636 rmoveto
          -18 60 -133 -44 -45 37 -51 32 -57 26 rlinecurve
          -76 -53 44 -21 41 -27 38 -29 rlinecurve
          -115 -38 19 -60 152 50 67 -63 50 -73 22 -71 rlinecurve
          49 -32 -70 32 -76 hhcurveto
          -138 -89 -86 -133 -139 97 -90 149 166 108 106 164 122 -56 120 -95 97 hvcurveto
          -116 -507 rmoveto
          -86 -57 52 82 78 56 50 87 88 57 -52 -81 -78 -57 -51 -88 hvcurveto
          endchar
        </CharString>
        <CharString name="exclam">
          -428 -9 132 hstemhm
          57 126 -118 109 hintmask 10100000
          174 519 rmoveto
          172 -109 -172 vlineto
          18 -296 rlineto
          73 hlineto
          hintmask 11000000
          -36 -100 rmoveto
          -36 -27 -27 -38 -39 27 -28 36 36 27 28 39 38 -27 27 -36 hvcurveto
          endchar
        </CharString>
        <CharString name="exclamdown">
          -429 408 132 hstemhm
          54 126 -117 109 hintmask 00000000
          hintmask 11000000
          117 408 rmoveto
          36 27 27 38 39 -27 28 -36 -36 -27 -28 -39 -38 27 -27 36 hvcurveto
          hintmask 10100000
          -54 -395 rmoveto
          -173 109 173 vlineto
          -18 295 rlineto
          -73 hlineto
          endchar
        </CharString>
        <CharString name="f">
          -295 21 -21 426 86 135 100 -37 -20 hstemhm
          107 114 hintmask 00000000
          hintmask 11101000
          293 647 rmoveto
          24 27 -9 -16 22 hvcurveto
          hintmask 11011000
          44 88 rlineto
          hintmask 11101000
          25 -34 -43 12 -43 hhcurveto
          -92 -91 -59 -124 hvcurveto
          -52 -70 -86 70 -426 114 426 139 86 -139 63 vlineto
          50 33 22 39 vhcurveto
          endchar
        </CharString>
        <CharString name="fi">
          -11 21 -21 427 86 -86 105 83 139 -108 101 hstemhm
          107 114 197 134 -124 114 hintmask 00000000
          hintmask 11010110
          485 615 rmoveto
          38 29 29 40 41 -29 29 -38 -38 -29 -29 -41 -40 29 -29 38 hvcurveto
          -378 -102 rmoveto
          -70 hlineto
          hintmask 10101101
          -86 70 -427 114 427 139 vlineto
          hintmask 11001101
          86 -139 62 vlineto
          52 31 19 41 28 33 -9 -14 31 vhcurveto
          4 100 rlineto
          16 -28 -35 8 -36 hhcurveto
          -89 -94 -56 -127 hvcurveto
          hintmask 10101101
          321 -32 rmoveto
          -532 114 532 vlineto
          endchar
        </CharString>
        <CharString name="firsttonechinese">
          641 83 hstem
          48 255 vstem
          303 641 rmoveto
          83 -255 -83 vlineto
          endchar
        </CharString>
        <CharString name="five">
          -61 -4 102 241 105 150 106 hstem
          79 109 220 126 vstem
          506 594 rmoveto
          -1 106 rlineto
          -426 -370 hlineto
          5 47 95 4 42 hhcurveto
          90 55 -44 -71 -79 -55 -47 -91 -63 -70 27 47 -56 hvcurveto
          -47 -96 rlineto
          -48 69 97 -32 83 hhcurveto
          157 102 93 142 123 -98 90 -152 hvcurveto
          -96 -1 rlineto
          151 vlineto
          endchar
        </CharString>
        <CharString name="five.dnom">
          -261 -3 64 133 63 90 66 hstem
          57 77 120 89 vstem
          134 347 rmoveto
          191 66 -268 -228 hlineto
          6 29 61 3 24 hhcurveto
          52 31 -23 -39 -45 -31 -26 -52 -38 -42 18 32 -34 hvcurveto
          -34 -66 rlineto
          -28 43 62 -20 52 hhcurveto
          99 64 55 85 73 -61 47 -95 -13 -25 -3 -4 -15 hvcurveto
          endchar
        </CharString>
        <CharString name="five.numr">
          -261 284 64 132 63 90 67 hstem
          57 77 120 89 vstem
          134 633 rmoveto
          191 67 -268 -228 hlineto
          5 29 61 3 24 hhcurveto
          52 31 -23 -38 -45 -31 -26 -52 -38 -42 17 33 -34 hvcurveto
          -34 -66 rlineto
          -29 43 62 -19 52 hhcurveto
          99 64 55 85 73 -61 46 -95 -13 -25 -2 -4 -15 hvcurveto
          endchar
        </CharString>
        <CharString name="fiveeighths">
          276 -3 62 -38 -21 186 62 36 64 12 56 64 63 90 67 hstemhm
          57 77 120 89 199 79 -57 70 153 71 -58 79 hintmask 1010111111001000
          134 633 rmoveto
          191 67 -268 -228 hlineto
          5 29 61 3 24 hhcurveto
          52 31 -23 -38 hvcurveto
          hintmask 0111111111001000
          -45 -31 -26 -52 -38 -42 17 33 -34 vhcurveto
          -34 -66 rlineto
          -29 43 62 -19 52 hhcurveto
          99 64 55 85 73 -61 46 -95 -13 -25 -2 -4 -15 hvcurveto
          -4 -537 rmoveto
          111 hlineto
          514 700 rlineto
          -110 hlineto
          hintmask 1010111110110000
          65 -284 rmoveto
          -89 -57 -40 -65 -39 24 -33 40 -18 hvcurveto
          hintmask 1010111111001000
          -53 -18 -33 -39 -49 vvcurveto
          -73 65 -45 104 103 65 45 74 49 -31 38 -51 18 vhcurveto
          hintmask 1010111111010000
          37 17 24 32 38 vvcurveto
          hintmask 1010111110110000
          67 -58 41 -90 vhcurveto
          1 -56 rmoveto
          48 28 -21 -35 -36 -28 -20 -48 -49 -28 20 36 35 28 21 49 hvcurveto
          hintmask 1010111111001000
          -1 -174 rmoveto
          58 32 -23 -40 -41 -33 -23 -56 -57 -33 23 42 39 33 23 56 hvcurveto
          endchar
        </CharString>
        <CharString name="fl">
          13 21 -21 428 85 142 97 -10 -20 hstemhm
          107 114 225 115 hintmask 11011100
          107 513 rmoveto
          -69 hlineto
          -1 -85 rlineto
          70 -428 114 428 139 hlineto
          1 85 rlineto
          -140 hlineto
          hintmask 11101100
          48 vlineto
          56 39 39 53 -1 vhcurveto
          25 27 -9 -17 22 hvcurveto
          3 100 -26 14 -38 8 -35 1 rlinecurve
          -108 1 -76 -72 -103 vvcurveto
          hintmask 11011100
          454 164 rmoveto
          -115 -742 115 hlineto
          endchar
        </CharString>
        <CharString name="florin">
          -266 -199 96 487 80 191 97 hstem
          -119 565 vstem
          334 655 rmoveto
          23 28 -10 -16 20 hvcurveto
          41 85 -32 22 -50 15 -46 1 rlinecurve
          -102 1 -74 -66 -13 -104 -15 -119 rcurveline
          -69 hlineto
          -9 -80 rlineto
          69 hlineto
          -49 -397 -7 -55 -24 -36 -47 1 rlinecurve
          -21 1 -26 10 -18 16 -32 -85 rcurveline
          27 -22 44 -15 38 -1 102 -1 63 66 13 104 51 414 rcurveline
          140 hlineto
          9 80 rlineto
          -140 hlineto
          13 103 7 55 37 34 49 -1 rlinecurve
          endchar
        </CharString>
        <CharString name="four">
          -39 21 -21 172 105 423 -20 hstem
          364 110 vstem
          156 277 rmoveto
          227 423 rlineto
          -114 hlineto
          -239 -440 rlineto
          -88 334 -172 110 172 102 105 -102 166 -110 -166 vlineto
          endchar
        </CharString>
        <CharString name="four.dnom">
          -244 0 159 -62 62 hstemhm
          232 79 hintmask 10100000
          232 159 rmoveto
          -120 hlineto
          139 254 rlineto
          -80 hlineto
          hintmask 01100000
          -143 -257 rlineto
          -59 204 vlineto
          hintmask 10100000
          -97 79 vlineto
          hintmask 01100000
          97 61 vlineto
          hintmask 10100000
          62 -61 vlineto
          hintmask 01100000
          102 -79 vlineto
          endchar
        </CharString>
        <CharString name="four.numr">
          -244 384 62 254 -20 hstem
          232 79 vstem
          232 446 rmoveto
          -120 hlineto
          139 254 rlineto
          -80 hlineto
          -143 -257 rlineto
          -59 204 -97 79 97 61 62 -61 101 -79 vlineto
          endchar
        </CharString>
        <CharString name="fraction">
          -558 21 -21 700 -20 hstem
          -277 625 vstem
          -277 hmoveto
          111 hlineto
          514 700 rlineto
          -110 hlineto
          endchar
        </CharString>
        <CharString name="g">
          2 -197 95 128 90 327 93 -4 -20 hstemhm
          35 108 308 114 hintmask 00000000
          hintmask 11011100
          565 532 rmoveto
          -114 hlineto
          hintmask 11101100
          -86 vlineto
          -37 58 -61 33 -82 -1 rrcurveto
          -141 -1 -95 -102 -150 vvcurveto
          -153 96 -104 144 80 60 32 58 36 vhcurveto
          -67 vlineto
          -92 -66 -59 -101 -65 -52 21 37 -50 vhcurveto
          -49 -83 rlineto
          -44 65 73 -26 83 hhcurveto
          167 109 96 153 hvcurveto
          -267 64 rmoveto
          -92 -62 68 96 -1 hvcurveto
          95 1 63 68 91 hhcurveto
          90 63 -67 -96 -96 -63 -68 -90 hvcurveto
          endchar
        </CharString>
        <CharString name="gbreve">
          2 -197 95 128 90 327 93 -4 -20 94 77 -77 142 hstemhm
          35 108 36 78 126 78 -10 114 hintmask 1110011101000000
          320 606 rmoveto
          hintmask 1110011110000000
          80 58 57 85 3 hvcurveto
          -78 hlineto
          hintmask 1110101110000000
          -38 -2 -26 -27 -35 hhcurveto
          hintmask 1110011101000000
          -35 -26 27 38 -2 hvcurveto
          -78 hlineto
          -85 3 58 -57 80 hhcurveto
          hintmask 1101011101000000
          245 -74 rmoveto
          -114 hlineto
          hintmask 1110011101000000
          -86 vlineto
          -37 58 -61 33 -82 -1 rrcurveto
          -141 -1 -95 -102 -150 vvcurveto
          -153 96 -104 144 80 60 32 58 36 vhcurveto
          -67 vlineto
          -92 -66 -59 -101 -65 -52 21 37 -50 vhcurveto
          -49 -83 rlineto
          -44 65 73 -26 83 hhcurveto
          167 109 96 153 hvcurveto
          -267 64 rmoveto
          -92 -62 68 96 -1 hvcurveto
          95 1 63 68 91 hhcurveto
          90 63 -67 -96 -96 -63 -68 -90 hvcurveto
          endchar
        </CharString>
        <CharString name="gcommaaccent">
          2 -197 95 128 90 327 93 -4 -20 69 202 hstemhm
          35 108 110 123 75 114 hintmask 11101111
          314 581 rmoveto
          36 26 27 37 21 -9 19 -18 12 hvcurveto
          38 86 rlineto
          -59 hlineto
          -57 -86 rlineto
          -11 -16 -7 -17 -19 vvcurveto
          -40 29 -24 32 vhcurveto
          hintmask 11011111
          251 -49 rmoveto
          -114 hlineto
          hintmask 11101111
          -86 vlineto
          -37 58 -61 33 -82 -1 rrcurveto
          -141 -1 -95 -102 -150 vvcurveto
          -153 96 -104 144 80 60 32 58 36 vhcurveto
          -67 vlineto
          -92 -66 -59 -101 -65 -52 21 37 -50 vhcurveto
          -49 -83 rlineto
          -44 65 73 -26 83 hhcurveto
          167 109 96 153 hvcurveto
          -267 64 rmoveto
          -92 -62 68 96 -1 hvcurveto
          95 1 63 68 91 hhcurveto
          90 63 -67 -96 -96 -63 -68 -90 hvcurveto
          endchar
        </CharString>
        <CharString name="germandbls">
          16 0 89 236 88 241 93 hstemhm
          78 114 263 111 -72 112 hintmask 00000000
          hintmask 11111000
          333 747 rmoveto
          -159 -96 -102 -157 hvcurveto
          -488 114 496 vlineto
          97 53 61 86 74 50 -45 -73 -75 -55 -48 -86 vhcurveto
          -88 13 vlineto
          hintmask 11110100
          101 66 -43 -75 -69 -56 -49 -86 hvcurveto
          -60 -89 51 hlineto
          160 103 88 122 96 -66 57 -90 18 hvcurveto
          hintmask 11111000
          71 27 45 68 78 vvcurveto
          117 -96 76 -137 vhcurveto
          endchar
        </CharString>
        <CharString name="grave">
          707 -20 hstem
          56 224 vstem
          280 609 rmoveto
          -106 148 -118 -50 122 -98 rlineto
          endchar
        </CharString>
        <CharString name="greater">
          -140 94 473 hstem
          386 77 vstem
          35 183 rmoveto
          -89 vlineto
          428 186 rlineto
          101 vlineto
          -428 186 rlineto
          -89 vlineto
          351 -148 rlineto
          endchar
        </CharString>
        <CharString name="greaterequal">
          -140 20 80 hstem
          386 77 vstem
          35 252 rmoveto
          -86 vlineto
          428 181 rlineto
          99 vlineto
          -428 182 rlineto
          -87 vlineto
          351 -144 rlineto
          77 -377 rmoveto
          80 -428 -80 vlineto
          endchar
        </CharString>
        <CharString name="guillemotleft">
          -182 86 348 hstem
          23 392 vstem
          128 260 rmoveto
          107 174 rlineto
          -96 hlineto
          -116 -174 116 -174 rlineto
          96 hlineto
          73 174 rmoveto
          107 174 rlineto
          -96 hlineto
          -116 -174 116 -174 rlineto
          96 hlineto
          endchar
        </CharString>
        <CharString name="guillemotright">
          -170 87 348 hstem
          76 392 vstem
          183 261 rmoveto
          -107 -174 rlineto
          96 hlineto
          116 174 -116 174 rlineto
          -96 hlineto
          287 -174 rmoveto
          -107 -174 rlineto
          96 hlineto
          116 174 -116 174 rlineto
          -96 hlineto
          endchar
        </CharString>
        <CharString name="guilsinglleft">
          -362 86 348 hstem
          23 212 vstem
          128 260 rmoveto
          107 174 rlineto
          -96 hlineto
          -116 -174 116 -174 rlineto
          96 hlineto
          endchar
        </CharString>
        <CharString name="guilsinglright">
          -350 86 349 hstem
          76 212 vstem
          183 261 rmoveto
          -107 -175 rlineto
          96 hlineto
          116 175 -116 174 rlineto
          -96 hlineto
          endchar
        </CharString>
        <CharString name="h">
          31 21 -21 428 108 206 -20 hstem
          90 115 280 115 vstem
          402 536 rmoveto
          -91 -68 -33 -75 -38 hvcurveto
          314 -115 -742 115 262 vlineto
          94 57 71 95 1 vhcurveto
          80 48 -49 -80 hvcurveto
          -299 115 331 vlineto
          127 -74 78 -124 vhcurveto
          endchar
        </CharString>
        <CharString name="hbar">
          177 21 -21 428 108 53 69 -69 153 hstemhm
          90 115 280 115 hintmask 11011100
          402 536 rmoveto
          -91 -68 -33 -75 -38 hvcurveto
          161 141 vlineto
          hintmask 11101100
          69 -141 vlineto
          hintmask 11011100
          84 -115 vlineto
          hintmask 11101100
          -84 -84 vlineto
          hintmask 11011100
          -69 84 -589 115 262 vlineto
          94 57 71 95 1 vhcurveto
          80 48 -49 -80 hvcurveto
          -299 115 331 vlineto
          127 -74 78 -124 vhcurveto
          endchar
        </CharString>
        <CharString name="hungarumlaut">
          609 154 hstem
          2 346 vstem
          183 719 rmoveto
          -98 44 -83 -154 rlineto
          89 hlineto
          257 110 rmoveto
          -98 44 -83 -154 rlineto
          89 hlineto
          endchar
        </CharString>
        <CharString name="hyphen">
          -270 265 79 hstem
          61 246 vstem
          307 265 rmoveto
          79 -246 -79 vlineto
          endchar
        </CharString>
        <CharString name="i">
          -354 21 -21 532 -20 103 139 hstemhm
          75 134 -124 114 hintmask 00000000
          hintmask 11110000
          142 754 rmoveto
          -38 -29 -29 -41 -40 29 -29 38 38 29 29 40 41 -29 29 -38 hvcurveto
          hintmask 11101000
          57 -754 rmoveto
          532 -114 -532 vlineto
          endchar
        </CharString>
        <CharString name="iacute">
          -354 21 -21 532 -20 194 -20 hstem
          85 114 vstem
          299 706 rmoveto
          -118 50 -106 -148 rlineto
          102 hlineto
          22 -608 rmoveto
          532 -114 -532 vlineto
          endchar
        </CharString>
        <CharString name="icircumflex">
          -354 21 -21 532 -20 99 141 -53 53 hstemhm
          85 114 hintmask 11101000
          298 611 rmoveto
          -103 141 rlineto
          -106 hlineto
          -103 -141 rlineto
          94 hlineto
          hintmask 11011000
          62 88 rlineto
          hintmask 11101000
          62 -88 rlineto
          -5 -611 rmoveto
          532 -114 -532 vlineto
          endchar
        </CharString>
        <CharString name="idieresis">
          -354 21 -21 532 -20 114 127 hstemhm
          -7 121 -29 114 -29 121 hintmask 00000000
          hintmask 11110100
          54 753 rmoveto
          -35 -26 -27 -37 -36 26 -27 35 35 25 27 36 37 -25 27 -35 hvcurveto
          177 hmoveto
          -35 -26 -27 -37 -36 26 -27 35 35 25 27 36 37 -25 27 -35 hvcurveto
          hintmask 11101000
          -32 -753 rmoveto
          532 -114 -532 vlineto
          endchar
        </CharString>
        <CharString name="igrave">
          -354 21 -21 532 -20 195 -20 hstem
          85 114 vstem
          204 609 rmoveto
          -106 148 -118 -50 122 -98 rlineto
          97 -609 rmoveto
          532 -114 -532 vlineto
          endchar
        </CharString>
        <CharString name="ij">
          -67 -199 101 119 -21 532 -20 102 140 hstemhm
          75 134 -124 114 156 141 -128 114 hintmask 00000000
          hintmask 11111010
          142 754 rmoveto
          -38 -29 -29 -41 -40 29 -29 38 38 29 29 40 41 -29 29 -38 hvcurveto
          283 hmoveto
          -40 -30 -29 -41 -40 30 -30 40 42 29 30 40 41 -29 29 -42 hvcurveto
          hintmask 11110101
          -226 -754 rmoveto
          532 -114 -532 vlineto
          397 532 rmoveto
          -114 -558 hlineto
          -51 -28 -21 -35 -22 -25 9 15 -21 vhcurveto
          -38 -89 rlineto
          -23 31 40 -13 40 hhcurveto
          85 87 58 126 hvcurveto
          endchar
        </CharString>
        <CharString name="imacron">
          -354 21 -21 532 -20 129 83 hstem
          85 114 vstem
          270 641 rmoveto
          83 -255 -83 vlineto
          184 -641 rmoveto
          532 -114 -532 vlineto
          endchar
        </CharString>
        <CharString name="infinity">
          237 100 84 235 84 hstem
          35 80 645 80 vstem
          647 503 rmoveto
          -112 -54 -64 -70 -44 hvcurveto
          70 -45 -54 64 -110 hhcurveto
          -111 -82 -86 -116 -115 82 -86 111 112 54 64 70 44 hvcurveto
          -70 45 54 -64 110 hhcurveto
          111 82 86 116 115 -82 86 -111 hvcurveto
          -318 vmoveto
          -85 -44 53 63 -40 hvcurveto
          64 39 44 54 86 hhcurveto
          65 48 -49 -68 -68 -48 -49 -65 hvcurveto
          -419 -1 rmoveto
          -65 -48 49 68 68 48 49 65 85 44 -53 -63 40 hvcurveto
          -64 -40 -44 -54 -85 hhcurveto
          endchar
        </CharString>
        <CharString name="integral">
          -296 -128 85 -43 -21 861 88 hstemhm
          119 87 -64 86 hintmask 01101000
          346 823 rmoveto
          13 -29 -22 6 -26 hhcurveto
          hintmask 01110000
          -108 -42 -61 -157 hvcurveto
          hintmask 10101000
          -120 23 -293 -129 vvcurveto
          -90 -22 -35 -56 -20 -15 5 11 -22 vhcurveto
          hintmask 01101000
          -15 -80 rlineto
          hintmask 10101000
          -15 26 24 -6 35 hhcurveto
          109 42 61 157 hvcurveto
          hintmask 01110000
          129 -22 297 118 vvcurveto
          88 21 32 55 17 15 -3 -8 18 vhcurveto
          endchar
        </CharString>
        <CharString name="iogonek">
          -371 -201 64 158 -21 532 -20 102 140 hstemhm
          58 62 -52 134 -124 115 hintmask 00000000
          hintmask 11110100
          135 754 rmoveto
          -38 -29 -29 -41 -41 29 -29 38 39 28 29 41 41 -28 29 -39 hvcurveto
          hintmask 11110010
          58 -754 rmoveto
          532 -115 -532 vlineto
          hintmask 11111000
          32 hlineto
          -33 -47 -19 -39 -37 vvcurveto
          -55 40 -23 39 37 35 21 36 23 vhcurveto
          -33 39 rlineto
          -19 -15 -16 -13 -18 hhcurveto
          -18 -12 12 20 23 15 34 34 48 hvcurveto
          endchar
        </CharString>
        <CharString name="itilde">
          -354 21 -21 532 -20 109 82 -82 131 -76 82 hstemhm
          -19 74 30 114 31 73 hintmask 00000000
          hintmask 11001110
          73 758 rmoveto
          -60 -32 -44 -87 hvcurveto
          74 hlineto
          32 13 17 24 vhcurveto
          hintmask 11100011
          35 25 -55 60 hhcurveto
          hintmask 11010011
          60 31 44 87 hvcurveto
          -73 hlineto
          hintmask 11100011
          -32 -13 -17 -25 vhcurveto
          hintmask 11001110
          -34 -30 55 -55 hhcurveto
          hintmask 11100010
          126 -758 rmoveto
          532 -114 -532 vlineto
          endchar
        </CharString>
        <CharString name="j">
          -351 -199 101 630 -20 102 140 hstemhm
          71 141 -128 114 hintmask 00000000
          hintmask 11110000
          141 754 rmoveto
          -40 -30 -29 -41 -40 30 -30 40 42 29 30 40 41 -29 29 -42 hvcurveto
          hintmask 11101000
          57 -222 rmoveto
          -114 -558 hlineto
          -51 -28 -21 -35 -22 -25 9 15 -21 vhcurveto
          -38 -89 rlineto
          -23 31 40 -13 40 hhcurveto
          85 87 58 126 hvcurveto
          endchar
        </CharString>
        <CharString name="jcircumflex">
          -364 -198 96 634 -20 99 141 -53 53 hstemhm
          84 115 hintmask 11101000
          293 611 rmoveto
          -103 141 rlineto
          -106 hlineto
          -103 -141 rlineto
          94 hlineto
          hintmask 11011000
          62 88 rlineto
          hintmask 11101000
          62 -88 rlineto
          -79 vmoveto
          -115 -539 hlineto
          -63 -25 -33 -47 1 vhcurveto
          -26 1 -25 8 -23 15 -29 -84 rcurveline
          36 -23 44 -12 47 -1 rrcurveto
          102 -1 61 63 112 vvcurveto
          endchar
        </CharString>
        <CharString name="k">
          -43 21 -21 532 -20 230 -20 hstem
          90 115 vstem
          295 244 rmoveto
          156 -244 rlineto
          136 hlineto
          -212 326 197 206 rlineto
          -132 hlineto
          -235 -238 rlineto
          448 -115 -742 115 149 vlineto
          endchar
        </CharString>
        <CharString name="kcedilla">
          -43 -221 62 -14 -21 215 -21 532 -20 230 -20 hstemhm
          90 115 -53 68 hintmask 01111100
          173 hmoveto
          32 149 hlineto
          90 95 156 -244 rlineto
          136 hlineto
          -212 326 197 206 rlineto
          -132 hlineto
          -235 -238 rlineto
          448 -115 -742 vlineto
          hintmask 10111010
          16 hlineto
          -34 -72 rlineto
          1 8 15 2 9 hhcurveto
          28 20 -17 -26 hvcurveto
          -27 1 -21 -20 -32 hhcurveto
          -18 -21 8 11 -13 hvcurveto
          hintmask 01111100
          -23 -54 rlineto
          hintmask 10111010
          -17 23 35 -10 27 hhcurveto
          67 44 39 59 -1 hvcurveto
          -1 38 -28 31 -41 7 rrcurveto
          endchar
        </CharString>
        <CharString name="kgreenlandic">
          -48 21 -21 532 -20 hstem
          85 114 vstem
          291 244 rmoveto
          155 -244 rlineto
          136 hlineto
          -212 326 197 206 rlineto
          -132 hlineto
          -236 -238 rlineto
          238 -114 -532 114 148 vlineto
          endchar
        </CharString>
        <CharString name="l">
          -343 21 -21 742 -20 hstem
          90 115 vstem
          205 hmoveto
          742 -115 -742 vlineto
          endchar
        </CharString>
        <CharString name="lacute">
          -343 21 -21 742 -20 hstem
          90 115 vstem
          305 916 rmoveto
          -118 50 -106 -148 rlineto
          102 hlineto
          22 -818 rmoveto
          742 -115 -742 vlineto
          endchar
        </CharString>
        <CharString name="lcaron">
          -318 21 -21 742 -20 hstem
          90 115 48 123 vstem
          90 742 rmoveto
          -742 115 742 vlineto
          110 -57 rmoveto
          -36 -26 -27 -37 -21 9 -19 18 -12 hvcurveto
          -38 -87 rlineto
          59 hlineto
          57 86 rlineto
          11 16 7 17 20 vvcurveto
          40 -29 24 -32 vhcurveto
          endchar
        </CharString>
        <CharString name="lcommaaccent">
          -343 21 -21 742 -20 hstemhm
          90 115 -113 123 hintmask 11100000
          205 hmoveto
          742 -115 -742 vlineto
          hintmask 11010000
          64 -49 rmoveto
          -36 -26 -27 -37 -21 9 -19 18 -12 hvcurveto
          -38 -86 rlineto
          59 hlineto
          57 86 rlineto
          11 16 7 17 19 vvcurveto
          40 -29 24 -32 vhcurveto
          endchar
        </CharString>
        <CharString name="ldot">
          -305 21 -21 246 128 368 -20 hstem
          90 115 37 123 vstem
          205 hmoveto
          742 -115 -742 vlineto
          214 374 rmoveto
          -36 -26 -27 -38 -36 26 -27 36 35 26 27 36 38 -26 27 -35 hvcurveto
          endchar
        </CharString>
        <CharString name="less">
          -140 89 473 hstem
          35 77 vstem
          463 473 rmoveto
          89 vlineto
          -428 -186 rlineto
          -101 vlineto
          428 -186 rlineto
          89 vlineto
          -351 148 rlineto
          endchar
        </CharString>
        <CharString name="lessequal">
          -140 20 80 hstem
          35 77 vstem
          463 536 rmoveto
          87 vlineto
          -428 -182 rlineto
          -99 vlineto
          428 -181 rlineto
          87 vlineto
          -351 144 rlineto
          351 -372 rmoveto
          80 -428 -80 vlineto
          endchar
        </CharString>
        <CharString name="literSign">
          -171 -4 88 552 70 hstem
          97 89.8899993896 174.11000061 71 vstem
          322 706 rmoveto
          -79 -68 -63 -141 -26 hvcurveto
          -42 -262 -81 -59 20 -56 51 35 rlineto
          -100 34 -64 95 74 68 38 87 58 vhcurveto
          -40 48 rlineto
          -46 -38 -42 -39 -54 hhcurveto
          -58 -17 44 91 15 hvcurveto
          119 98 121 127 136 vvcurveto
          82 -44 44 -66 vhcurveto
          -2 -70 rmoveto
          24 17 -20 -38 -82 -66 -102 -88 -77 hvcurveto
          33 195 rlineto
          89 16 31 35 33 hhcurveto
          endchar
        </CharString>
        <CharString name="logicalnot">
          -76 325 79 hstem
          402 84 vstem
          486 404 rmoveto
          -451 -79 367 -180 84 hlineto
          endchar
        </CharString>
        <CharString name="lozenge">
          -102 -18 694 hstem
          35 466 vstem
          501 330 rmoveto
          -233 346 -233 -346 232 -348 rlineto
          -126 348 rmoveto
          127 185 127 -185 -128 -185 rlineto
          endchar
        </CharString>
        <CharString name="lslash">
          -328 21 -21 532 -20 230 -20 hstem
          107 115 vstem
          222 421 rmoveto
          115 34 -20 77 -95 -28 rlineto
          238 -115 -272 vlineto
          -128 -38 20 -76 108 32 rlineto
          -388 115 vlineto
          endchar
        </CharString>
        <CharString name="m">
          405 21 -21 429 107 -4 -20 hstemhm
          85 114 273 115 272 115 hintmask 11011100
          779 536 rmoveto
          -97 -71 -39 -89 -34 hvcurveto
          81 -25 -65 47 -95 hhcurveto
          -88 -68 -32 -75 -37 hvcurveto
          hintmask 10111100
          103 -114 -532 114 263 vlineto
          hintmask 11011100
          93 56 70 92 3 vhcurveto
          78 47 -49 -81 hvcurveto
          -299 115 263 vlineto
          93 55 70 91 3 vhcurveto
          78 48 -49 -81 hvcurveto
          -299 115 331 vlineto
          127 -73 78 -122 vhcurveto
          endchar
        </CharString>
        <CharString name="macron">
          641 83 hstem
          48 255 vstem
          303 641 rmoveto
          83 -255 -83 vlineto
          endchar
        </CharString>
        <CharString name="minus">
          -140 285 79 hstem
          35 428 vstem
          463 285 rmoveto
          79 -428 -79 vlineto
          endchar
        </CharString>
        <CharString name="mu">
          37 -173 -21 190 108 -83 -21 532 -20 hstemhm
          90 115 270 115 hintmask 11011100
          590 532 rmoveto
          -115 -262 hlineto
          -93 -54 -71 -92 -2 vhcurveto
          -77 -47 49 80 hvcurveto
          299 -115 -726 115 203 vlineto
          -8 24 26 -5 30 hhcurveto
          87 1 67 33 36 74 rrcurveto
          hintmask 10111100
          -104 115 vlineto
          endchar
        </CharString>
        <CharString name="multiply">
          -140 145 359 hstem
          72 355 vstem
          304 325 rmoveto
          123 123 -53 56 -124 -125 -125 125 -53 -56 123 -123 -123 -124 53 -56 125 125 124 -125 53 56 rlineto
          endchar
        </CharString>
        <CharString name="n">
          25 21 -21 428 108 -4 -20 hstemhm
          85 115 279 115 hintmask 11011000
          396 536 rmoveto
          -90 -68 -32 -74 -38 hvcurveto
          hintmask 10111000
          102 -115 -532 115 283 vlineto
          hintmask 11011000
          8 83 55 61 88 1 rrcurveto
          80 48 -49 -80 hvcurveto
          -299 115 331 vlineto
          127 -74 78 -124 vhcurveto
          endchar
        </CharString>
        <CharString name="nacute">
          25 21 -21 428 108 -4 -20 194 -20 hstemhm
          85 115 279 115 hintmask 11011100
          381 608 rmoveto
          122 98 -118 50 -106 -148 rlineto
          117 -72 rmoveto
          -90 -68 -32 -74 -38 hvcurveto
          hintmask 10111100
          102 -115 -532 115 283 vlineto
          hintmask 11011100
          8 83 55 61 88 1 rrcurveto
          80 48 -49 -80 hvcurveto
          -299 115 331 vlineto
          127 -74 78 -124 vhcurveto
          endchar
        </CharString>
        <CharString name="nbspace">
          -380 endchar
        </CharString>
        <CharString name="ncaron">
          25 21 -21 428 108 -4 -20 90 150 hstemhm
          85 115 279 115 hintmask 11011100
          286 602 rmoveto
          114 hlineto
          108 150 rlineto
          -102 hlineto
          -63 -93 -63 93 rlineto
          -102 hlineto
          218 -216 rmoveto
          -90 -68 -32 -74 -38 hvcurveto
          hintmask 10111100
          102 -115 -532 115 283 vlineto
          hintmask 11011100
          8 83 55 61 88 1 rrcurveto
          80 48 -49 -80 hvcurveto
          -299 115 331 vlineto
          127 -74 78 -124 vhcurveto
          endchar
        </CharString>
        <CharString name="ncommaaccent">
          25 21 -21 428 108 -4 -20 hstemhm
          85 115 80 123 76 115 hintmask 11010100
          396 536 rmoveto
          -90 -68 -32 -74 -38 hvcurveto
          hintmask 10110100
          102 -115 -532 115 283 vlineto
          hintmask 11010100
          8 83 55 61 88 1 rrcurveto
          80 48 -49 -80 hvcurveto
          -299 115 331 vlineto
          127 -74 78 -124 vhcurveto
          hintmask 11011100
          -54 -585 rmoveto
          -36 -26 -27 -37 -21 9 -19 18 -12 hvcurveto
          -38 -86 rlineto
          59 hlineto
          57 86 rlineto
          11 16 7 17 19 vvcurveto
          40 -29 24 -32 vhcurveto
          endchar
        </CharString>
        <CharString name="nine">
          -23 -5 98 154 93 263 102 hstem
          42 110 306 115 vstem
          271 -5 rmoveto
          185 117 146 223 215 -108 126 -177 -149 -97 -90 -145 -136 85 -87 140 88 66 34 65 37 hvcurveto
          -151 4 -63 -102 -136 hhcurveto
          -53 -59 16 28 -43 hvcurveto
          -46 -89 rlineto
          -32 57 83 -21 69 hhcurveto
          18 345 rmoveto
          -85 -52 49 80 85 57 49 85 101 45 -69 -61 -1 hvcurveto
          -72 1 -56 -61 -95 hhcurveto
          endchar
        </CharString>
        <CharString name="nine.dnom">
          -235 -3 66 81 63 141 68 hstem
          33 79 172 81 vstem
          176 -3 rmoveto
          115 74 86 130 127 -67 76 -111 -93 -61 -53 -86 -80 54 -53 83 58 40 26 38 16 hvcurveto
          -92 7 -42 -53 -78 hhcurveto
          -34 -34 9 17 -26 hvcurveto
          -33 -60 rlineto
          -20 37 50 -12 45 hhcurveto
          12 210 rmoveto
          -48 -28 26 43 46 30 26 49 57 24 -36 -34 -40 -30 -31 -54 hvcurveto
          endchar
        </CharString>
        <CharString name="nine.numr">
          -235 283 67 81 63 140 69 hstem
          33 79 172 81 vstem
          176 283 rmoveto
          115 74 86 131 127 -67 76 -111 -93 -61 -53 -86 -81 54 -52 83 58 40 26 38 16 hvcurveto
          -93 7 -42 -52 -78 hhcurveto
          -34 -34 9 17 -26 hvcurveto
          -33 -60 rlineto
          -20 37 50 -13 45 hhcurveto
          12 211 rmoveto
          -48 -28 25 44 45 30 26 49 57 24 -35 -34 -40 -30 -31 -54 hvcurveto
          endchar
        </CharString>
        <CharString name="notequal">
          -140 180 79 131 79 hstem
          35 428 vstem
          308 390 rmoveto
          155 79 -130 hlineto
          46 144 rlineto
          -88 hlineto
          -46 -144 rlineto
          -210 -79 185 hlineto
          -41 -131 rlineto
          -144 -79 119 hlineto
          -47 -149 rlineto
          88 hlineto
          47 149 rlineto
          221 79 -196 hlineto
          endchar
        </CharString>
        <CharString name="ntilde">
          25 21 -21 428 108 -4 -20 109 82 -82 131 -76 82 hstemhm
          85 115 -15 74 175 73 -28 115 hintmask 0000000000000000
          hintmask 1100010101000000
          296 676 rmoveto
          hintmask 1101001010000000
          35 25 -55 60 hhcurveto
          hintmask 1100101010000000
          60 31 44 87 hvcurveto
          -73 hlineto
          hintmask 1101000110000000
          -32 -13 -17 -25 vhcurveto
          -34 -30 55 -55 hhcurveto
          hintmask 1100010101000000
          -60 -32 -44 -87 hvcurveto
          74 hlineto
          32 13 17 24 vhcurveto
          hintmask 1101001001000000
          100 -140 rmoveto
          -90 -68 -32 -74 -38 hvcurveto
          hintmask 1011001001000000
          102 -115 -532 115 283 vlineto
          hintmask 1101001001000000
          8 83 55 61 88 1 rrcurveto
          80 48 -49 -80 hvcurveto
          -299 115 331 vlineto
          127 -74 78 -124 vhcurveto
          endchar
        </CharString>
        <CharString name="numbersign">
          87 21 -21 173 86 176 86 179 -20 hstem
          27 669 vstem
          546 435 rmoveto
          143 hlineto
          7 86 rlineto
          -139 hlineto
          22 179 rlineto
          -85 hlineto
          -22 -179 rlineto
          -177 hlineto
          22 179 rlineto
          -85 hlineto
          -22 -179 rlineto
          -142 hlineto
          -8 -86 rlineto
          139 hlineto
          -21 -176 rlineto
          -143 hlineto
          -8 -86 rlineto
          140 hlineto
          -21 -173 rlineto
          84 hlineto
          22 173 rlineto
          177 hlineto
          -21 -173 rlineto
          84 hlineto
          22 173 rlineto
          142 hlineto
          8 86 rlineto
          -140 hlineto
          -63 176 rmoveto
          -21 -176 rlineto
          -178 hlineto
          22 176 rlineto
          endchar
        </CharString>
        <CharString name="o">
          -13 -4 96 345 99 hstem
          35 115 325 115 vstem
          313 536 rmoveto
          -165 -113 -109 -161 -160 113 -110 165 164 113 110 160 161 -113 109 -164 hvcurveto
          -99 vmoveto
          95 67 -70 -102 -103 -67 -70 -95 -96 -67 70 103 102 67 70 96 hvcurveto
          endchar
        </CharString>
        <CharString name="oacute">
          -13 -4 96 345 99 170 -20 hstem
          35 115 325 115 vstem
          469 706 rmoveto
          -118 50 -106 -148 rlineto
          102 hlineto
          -34 -72 rmoveto
          -165 -113 -109 -161 -160 113 -110 165 164 113 110 160 161 -113 109 -164 hvcurveto
          -99 vmoveto
          95 67 -70 -102 -103 -67 -70 -95 -96 -67 70 103 102 67 70 96 hvcurveto
          endchar
        </CharString>
        <CharString name="ocircumflex">
          -13 -4 96 345 99 75 141 -53 53 hstemhm
          35 115 325 115 hintmask 11101100
          469 611 rmoveto
          -103 141 rlineto
          -106 hlineto
          -103 -141 rlineto
          94 hlineto
          hintmask 11011100
          62 88 rlineto
          hintmask 11101100
          62 -88 rlineto
          -62 -75 rmoveto
          -165 -113 -109 -161 -160 113 -110 165 164 113 110 160 161 -113 109 -164 hvcurveto
          -99 vmoveto
          95 67 -70 -102 -103 -67 -70 -95 -96 -67 70 103 102 67 70 96 hvcurveto
          endchar
        </CharString>
        <CharString name="odieresis">
          -13 -4 96 345 99 90 127 hstemhm
          35 115 14 121 56 121 13 115 hintmask 00000000
          hintmask 11111110
          225 753 rmoveto
          -35 -26 -27 -37 -36 26 -27 35 35 25 27 36 37 -25 27 -35 hvcurveto
          177 hmoveto
          -35 -26 -27 -37 -36 26 -27 35 35 25 27 36 37 -25 27 -35 hvcurveto
          hintmask 11110010
          -89 -217 rmoveto
          -165 -113 -109 -161 -160 113 -110 165 164 113 110 160 161 -113 109 -164 hvcurveto
          -99 vmoveto
          95 67 -70 -102 -103 -67 -70 -95 -96 -67 70 103 102 67 70 96 hvcurveto
          endchar
        </CharString>
        <CharString name="oe">
          402 -4 93 -93 96 149 62 134 99 -85 85 hstemhm
          35 115 742 115 hintmask 01101110
          742 536 rmoveto
          -96 -74 -45 -73 -42 hvcurveto
          74 -41 -76 44 -100 hhcurveto
          -165 -113 -109 -161 -160 113 -110 165 99 76 44 74 42 hvcurveto
          -74 41 74 -44 99 hhcurveto
          93 76 33 57 53 hvcurveto
          hintmask 10101110
          -61 65 rlineto
          -40 -40 -53 -22 -58 hhcurveto
          -92 -66 58 94 -12 hvcurveto
          423 hlineto
          hintmask 01101110
          176 5 -104 119 -166 hhcurveto
          -158 -233 rmoveto
          88 12 61 60 86 hhcurveto
          87 59 -61 -87 3 hvcurveto
          -579 -211 rmoveto
          -96 -67 70 103 hvcurveto
          hintmask 01110110
          102 67 70 96 95 67 -70 -102 vhcurveto
          hintmask 01101110
          -103 -67 -70 -95 vhcurveto
          endchar
        </CharString>
        <CharString name="ogonek">
          -201 64 -64 213 hstemhm
          89 61 hintmask 00000000
          hintmask 01100000
          149 12 rmoveto
          hintmask 10100000
          -38 -51 -22 -44 -40 vvcurveto
          -55 40 -23 39 37 35 21 36 23 vhcurveto
          -33 39 rlineto
          -19 -15 -17 -13 -17 hhcurveto
          -18 -13 12 20 hvcurveto
          hintmask 01100000
          25 18 38 40 54 vhcurveto
          endchar
        </CharString>
        <CharString name="ograve">
          -13 -4 96 345 99 171 -20 hstem
          35 115 325 115 vstem
          374 609 rmoveto
          -106 148 -118 -50 122 -98 rlineto
          41 -73 rmoveto
          -165 -113 -109 -161 -160 113 -110 165 164 113 110 160 161 -113 109 -164 hvcurveto
          -99 vmoveto
          95 67 -70 -102 -103 -67 -70 -95 -96 -67 70 103 102 67 70 96 hvcurveto
          endchar
        </CharString>
        <CharString name="ohungarumlaut">
          -13 -4 96 345 99 hstem
          35 115 325 115 vstem
          348 716 rmoveto
          -98 44 -83 -154 rlineto
          89 hlineto
          257 110 rmoveto
          -98 44 -83 -154 rlineto
          89 hlineto
          -108 -70 rmoveto
          -165 -113 -109 -161 -160 113 -110 165 164 113 110 160 161 -113 109 -164 hvcurveto
          -99 vmoveto
          95 67 -70 -102 -103 -67 -70 -95 -96 -67 70 103 102 67 70 96 hvcurveto
          endchar
        </CharString>
        <CharString name="omacron">
          -13 -4 96 345 99 105 83 hstem
          35 115 35 255 35 115 vstem
          440 641 rmoveto
          83 -255 -83 vlineto
          128 -105 rmoveto
          -165 -113 -109 -161 -160 113 -110 165 164 113 110 160 161 -113 109 -164 hvcurveto
          -99 vmoveto
          95 67 -70 -102 -103 -67 -70 -95 -96 -67 70 103 102 67 70 96 hvcurveto
          endchar
        </CharString>
        <CharString name="one">
          -251 21 -21 595 105 hstem
          150 118 vstem
          268 hmoveto
          700 -255 -105 137 -595 vlineto
          endchar
        </CharString>
        <CharString name="one.dnom">
          -376 21 -21 345 68 hstem
          99 84 vstem
          99 hmoveto
          84 413 -167 -68 83 hlineto
          endchar
        </CharString>
        <CharString name="one.numr">
          -376 631 69 hstem
          99 84 vstem
          99 287 rmoveto
          84 413 -167 -69 83 hlineto
          endchar
        </CharString>
        <CharString name="oneeighth">
          196 -3 62 -38 -21 186 62 112 56 215 69 hstemhm
          99 84 279 79 -57 70 153 71 -58 79 hintmask 1011111001000000
          99 287 rmoveto
          84 413 -167 -69 83 hlineto
          hintmask 0111110110000000
          -49 -631 rmoveto
          111 hlineto
          514 700 rlineto
          -110 hlineto
          65 -284 rmoveto
          -89 -57 -40 -65 -39 24 -33 40 -18 hvcurveto
          hintmask 1011111001000000
          -53 -18 -33 -39 -49 vvcurveto
          -73 65 -45 104 103 65 45 74 49 -31 38 -51 18 vhcurveto
          hintmask 1011111010000000
          37 17 24 32 38 vvcurveto
          hintmask 0111110110000000
          67 -58 41 -90 vhcurveto
          1 -56 rmoveto
          48 28 -21 -35 hvcurveto
          hintmask 1011110110000000
          -36 -28 -20 -48 -49 -28 20 36 vhcurveto
          hintmask 0111110110000000
          35 28 21 49 vhcurveto
          hintmask 1011111001000000
          -1 -174 rmoveto
          58 32 -23 -40 -41 -33 -23 -56 -57 -33 23 42 39 33 23 56 hvcurveto
          endchar
        </CharString>
        <CharString name="onehalf">
          201 0 67 280 69 215 69 hstem
          99 84 516 87 vstem
          99 287 rmoveto
          84 413 -167 -69 83 hlineto
          -49 -631 rmoveto
          111 hlineto
          514 700 rlineto
          -110 hlineto
          82 -284 rmoveto
          -58 -56 -22 -38 -49 hvcurveto
          33 -61 rlineto
          32 37 44 20 36 hhcurveto
          41 24 -18 -29 -22 -20 -32 -29 -29 hvcurveto
          -157 -160 rlineto
          -57 311 67 -206 vlineto
          108 108 rlineto
          48 46 32 47 43 vvcurveto
          64 -57 41 -82 vhcurveto
          endchar
        </CharString>
        <CharString name="onequarter">
          179 0 159 -62 62 472 69 hstemhm
          99 84 472 79 hintmask 10111000
          99 287 rmoveto
          84 413 -167 -69 83 hlineto
          -49 -631 rmoveto
          111 hlineto
          514 700 rlineto
          -110 hlineto
          90 -541 rmoveto
          -120 hlineto
          139 254 rlineto
          -80 hlineto
          hintmask 01111000
          -143 -257 rlineto
          -59 204 vlineto
          hintmask 10111000
          -97 79 vlineto
          hintmask 01111000
          97 61 vlineto
          hintmask 10111000
          62 -61 vlineto
          hintmask 01111000
          102 -79 vlineto
          endchar
        </CharString>
        <CharString name="onesuperior">
          -376 631 69 hstem
          99 84 vstem
          99 287 rmoveto
          84 413 -167 -69 83 hlineto
          endchar
        </CharString>
        <CharString name="ordfeminine">
          -253 455 54 91 41 73 63 hstem
          33 76 146 80 vstem
          198 777 rmoveto
          -48 -50 -14 -23 -48 hvcurveto
          20 -56 rlineto
          19 38 36 11 33 hhcurveto
          51 25 -22 -37 hvcurveto
          -14 -97 vlineto
          -80 -1 -45 -32 -58 vvcurveto
          -56 41 -39 67 51 39 18 35 25 vhcurveto
          -50 79 206 vlineto
          71 -50 42 -87 vhcurveto
          -30 -268 rmoveto
          -36 -23 19 29 28 24 15 41 hvcurveto
          81 -42 hlineto
          -34 -18 -30 -15 -39 hhcurveto
          endchar
        </CharString>
        <CharString name="ordmasculine">
          -231 456 64 190 66 hstem
          30 81 183 83 vstem
          203 776 rmoveto
          -103 -70 -64 -96 -96 70 -64 103 103 71 64 96 96 -71 64 -103 hvcurveto
          -66 vmoveto
          54 37 -38 -57 -57 -37 -38 -54 -54 -38 38 57 57 38 38 54 hvcurveto
          endchar
        </CharString>
        <CharString name="oslash">
          -13 -4 87 -61 -21 446 89 -5 -20 25 -20 hstemhm
          35 109 338 108 hintmask 10100110
          468 665 rmoveto
          -52 hlineto
          hintmask 10010110
          -43 -134 rlineto
          hintmask 01100110
          3 -19 -20 2 -21 hhcurveto
          -165 -113 -109 -161 -122 66 -93 105 -37 hvcurveto
          -52 -160 rlineto
          52 hlineto
          48 147 rlineto
          hintmask 10001110
          -3 18 20 -2 21 hhcurveto
          164 113 110 160 123 -66 92 -103 37 hvcurveto
          -277 -253 rmoveto
          hintmask 10100110
          108 69 74 100 11 11 -1 -2 10 vhcurveto
          -111 -343 rlineto
          hintmask 10001110
          -56 28 -34 59 77 vvcurveto
          169 -182 rmoveto
          -11 -11 1 2 -10 hvcurveto
          111 343 rlineto
          55 -28 35 -60 -76 vvcurveto
          -109 -70 -73 -99 vhcurveto
          endchar
        </CharString>
        <CharString name="otilde">
          -13 -4 96 345 99 85 82 -82 131 -76 82 hstemhm
          35 115 1 74 175 73 2 115 hintmask 0000000000000000
          hintmask 1100101010000000
          243 758 rmoveto
          -60 -32 -44 -87 hvcurveto
          74 hlineto
          32 13 17 24 vhcurveto
          hintmask 1110010100000000
          35 25 -55 60 hhcurveto
          hintmask 1101010100000000
          60 31 44 87 hvcurveto
          -73 hlineto
          hintmask 1110010100000000
          -32 -13 -17 -25 vhcurveto
          hintmask 1100101010000000
          -34 -30 55 -55 hhcurveto
          hintmask 1110010010000000
          70 -222 rmoveto
          -165 -113 -109 -161 -160 113 -110 165 164 113 110 160 161 -113 109 -164 hvcurveto
          -99 vmoveto
          95 67 -70 -102 -103 -67 -70 -95 -96 -67 70 103 102 67 70 96 hvcurveto
          endchar
        </CharString>
        <CharString name="p">
          42 -173 -21 190 98 346 96 -4 -20 hstemhm
          90 115 324 116 hintmask 11101100
          391 536 rmoveto
          -83 -64 -34 -62 -39 hvcurveto
          hintmask 11011100
          92 -115 -726 115 286 vlineto
          -62 39 64 -34 85 hhcurveto
          152 100 109 159 hvcurveto
          hintmask 11101100
          162 -103 110 -151 vhcurveto
          -24 -442 rmoveto
          -95 -67 71 103 100 67 72 95 95 67 -73 -99 -102 -67 -72 -95 hvcurveto
          endchar
        </CharString>
        <CharString name="paragraph">
          -23 -88 -21 779 72 hstem
          217 87 131 88 vstem
          523 -109 rmoveto
          851 -299 vlineto
          -162 -63 -97 -100 -74 38 -115 149 hvcurveto
          31 -465 87 779 131 -779 hlineto
          endchar
        </CharString>
        <CharString name="parenleft">
          -319 742 -20 hstem
          77 108 vstem
          199 742 rmoveto
          -79 -114 -43 -153 -166 vvcurveto
          -166 43 -153 79 -114 vhcurveto
          104 hlineto
          -73 114 -45 153 166 vvcurveto
          166 45 153 73 114 vhcurveto
          endchar
        </CharString>
        <CharString name="parenright">
          -293 742 -20 hstem
          237 108 vstem
          119 742 rmoveto
          73 -114 45 -153 -166 vvcurveto
          -166 -45 -153 -73 -114 vhcurveto
          104 hlineto
          79 114 43 153 166 vvcurveto
          166 -43 153 -79 114 vhcurveto
          endchar
        </CharString>
        <CharString name="partialdiff">
          -23 -5 102 262 94 153 99 hstem
          36 110 306 115 vstem
          270 705 rmoveto
          -72 -82 -25 -38 -60 hvcurveto
          46 -90 rlineto
          35 46 57 19 57 hhcurveto
          132 70 -101 -173 -12 hvcurveto
          73 -25 -67 48 -98 hhcurveto
          -138 -88 -88 -136 -144 98 -90 148 178 107 128 219 219 -115 144 -182 hvcurveto
          13 -346 rmoveto
          95 55 -59 -74 -60 -44 -69 -101 -85 -57 49 85 81 52 47 85 hvcurveto
          endchar
        </CharString>
        <CharString name="percent">
          335 -2 68 218 68 -4 67 219 68 hstemhm
          38 77 217 76 157 77 217 76 hintmask 10111111
          223 702 rmoveto
          -115 -70 -78 -130 hvcurveto
          hintmask 11011111
          -131 70 -79 115 115 70 79 131 vhcurveto
          hintmask 10111111
          130 -70 78 -115 vhcurveto
          -53 -702 rmoveto
          111 hlineto
          514 700 rlineto
          -110 hlineto
          -462 -66 rmoveto
          69 40 -51 -89 hvcurveto
          hintmask 11011111
          -90 -40 -52 -69 -69 -39 52 90 vhcurveto
          hintmask 10111111
          89 39 51 69 vhcurveto
          527 -219 rmoveto
          -115 -70 -78 -130 -131 70 -78 115 115 70 78 131 130 -70 78 -115 hvcurveto
          -67 vmoveto
          69 40 -52 -89 -90 -40 -51 -69 -69 -39 51 90 89 39 52 69 hvcurveto
          endchar
        </CharString>
        <CharString name="period">
          -420 -9 132 hstem
          46 126 vstem
          109 123 rmoveto
          -36 -27 -27 -38 -39 27 -28 36 36 27 28 39 38 -27 27 -36 hvcurveto
          endchar
        </CharString>
        <CharString name="periodcentered">
          -426 224 126 hstem
          46 120 vstem
          106 350 rmoveto
          -34 -26 -26 -37 -36 26 -27 34 34 26 27 36 37 -26 26 -34 hvcurveto
          endchar
        </CharString>
        <CharString name="perthousand">
          782 -2 68 218 68 -4 67 219 68 hstemhm
          38 77 217 76 157 77 217 76 76 77 217 76 hintmask 1011111111000000
          223 702 rmoveto
          -115 -70 -78 -130 hvcurveto
          hintmask 0100110000000000
          -131 70 -79 115 115 70 79 131 vhcurveto
          hintmask 1011111111000000
          130 -70 78 -115 vhcurveto
          -53 -702 rmoveto
          111 hlineto
          514 700 rlineto
          -110 hlineto
          -462 -66 rmoveto
          69 40 -51 -89 hvcurveto
          hintmask 0100110000000000
          -90 -40 -52 -69 -69 -39 52 90 vhcurveto
          hintmask 1011111111000000
          89 39 51 69 vhcurveto
          527 -219 rmoveto
          -115 -70 -78 -130 -131 70 -78 115 115 70 78 131 130 -70 78 -115 hvcurveto
          446 hmoveto
          -115 -70 -78 -130 -131 70 -78 115 115 70 78 131 130 -70 78 -115 hvcurveto
          -446 -67 rmoveto
          69 40 -52 -89 -90 -40 -51 -69 -69 -39 51 90 89 39 52 69 hvcurveto
          446 hmoveto
          69 40 -52 -89 -90 -40 -51 -69 -69 -39 51 90 89 39 52 69 hvcurveto
          endchar
        </CharString>
        <CharString name="pi">
          87 21 -21 444 88 hstem
          -10 91 391 96 vstem
          715 444 rmoveto
          88 -552 vlineto
          -100 -74 -66 -86 1 hvcurveto
          1 -42 14 -49 22 -36 80 31 rcurveline
          -16 24 -10 29 23 vvcurveto
          49 -1 41 35 56 hhcurveto
          51 hlineto
          -49 -444 rlineto
          96 hlineto
          50 444 rlineto
          147 -444 96 444 hlineto
          endchar
        </CharString>
        <CharString name="plus">
          -140 285 79 175 -20 hstem
          212 75 vstem
          463 285 rmoveto
          79 -176 175 -75 -175 -177 -79 177 -175 75 175 vlineto
          endchar
        </CharString>
        <CharString name="plusminus">
          -140 20 80 252 78 171 -20 hstem
          212 75 vstem
          463 430 rmoveto
          -176 171 -75 -171 -177 -78 177 -171 75 171 176 hlineto
          -428 -252 rmoveto
          -80 428 80 vlineto
          endchar
        </CharString>
        <CharString name="product">
          112 -173 -21 838 98 hstem
          92 115 336 115 vstem
          658 -194 rmoveto
          936 -566 -936 115 838 336 -838 vlineto
          endchar
        </CharString>
        <CharString name="q">
          44 -173 -21 189 96 348 98 -5 -20 hstemhm
          35 115 327 115 hintmask 00000000
          hintmask 11011100
          592 532 rmoveto
          -115 hlineto
          hintmask 11101100
          -92 vlineto
          62 -39 -64 35 -86 hhcurveto
          -150 -103 -109 -160 -162 102 -111 153 85 64 34 62 38 hvcurveto
          -285 115 vlineto
          -278 285 rmoveto
          -97 -66 72 101 -1 hvcurveto
          102 1 67 73 96 hhcurveto
          96 67 -72 -103 -101 -67 -72 -96 hvcurveto
          endchar
        </CharString>
        <CharString name="question">
          -195 -9 132 474 98 hstemhm
          5 90 51 126 -106 88 51 107 hintmask 11101100
          95 495 rmoveto
          68 3 39 34 65 hhcurveto
          62 41 -28 -58 hvcurveto
          -121 -139 -1 -161 vvcurveto
          88 hlineto
          135 158 7 158 vvcurveto
          109 -80 58 -120 -124 -79 -72 -127 -4 vhcurveto
          hintmask 11110100
          204 -373 rmoveto
          -36 -27 -27 -38 -39 27 -28 36 36 27 28 39 38 -27 27 -36 hvcurveto
          endchar
        </CharString>
        <CharString name="questiondown">
          -195 -164 98 474 132 hstemhm
          31 107 33 126 -108 88 71 90 hintmask 00000000
          hintmask 11110100
          234 408 rmoveto
          36 27 27 38 39 -27 28 -36 -36 -27 -28 -39 -38 27 -27 36 hvcurveto
          114 -372 rmoveto
          -68 -3 -39 -34 -65 hhcurveto
          -62 -41 28 59 hvcurveto
          hintmask 11101100
          120 139 1 161 vvcurveto
          -88 hlineto
          -135 -158 -7 -158 vvcurveto
          -109 80 -58 120 124 79 73 126 4 vhcurveto
          endchar
        </CharString>
        <CharString name="quotedbl">
          -276 454 246 hstem
          60 88 66 88 vstem
          148 454 rmoveto
          246 -88 -246 vlineto
          242 hmoveto
          246 -88 -246 vlineto
          endchar
        </CharString>
        <CharString name="quotedblbase">
          -275 -82 203 hstemhm
          47 123 26 123 hintmask 11000000
          109 121 rmoveto
          -36 -26 -27 -37 -21 9 -19 18 -12 hvcurveto
          -38 -87 rlineto
          59 hlineto
          57 86 rlineto
          11 16 7 17 20 vvcurveto
          40 -29 24 -32 vhcurveto
          hintmask 11100000
          149 hmoveto
          -36 -26 -27 -37 -21 9 -19 18 -12 hvcurveto
          -38 -87 rlineto
          59 hlineto
          57 86 rlineto
          11 16 7 17 20 vvcurveto
          40 -29 24 -32 vhcurveto
          endchar
        </CharString>
        <CharString name="quotedblleft">
          -342 503 203 -87 87 0 -20 hstemhm
          36 123 26 123 hintmask 00110000
          170 706 rmoveto
          -59 hlineto
          -57 -86 rlineto
          hintmask 10010000
          -11 -16 -7 -17 -20 vvcurveto
          -40 29 -24 32 36 26 27 37 vhcurveto
          hintmask 01010000
          21 -9 19 -18 12 vhcurveto
          187 87 rmoveto
          hintmask 00111000
          -59 hlineto
          -57 -86 rlineto
          hintmask 10011000
          -11 -16 -7 -17 -20 vvcurveto
          -40 29 -24 32 36 26 27 37 vhcurveto
          hintmask 01011000
          21 -9 19 -18 12 vhcurveto
          endchar
        </CharString>
        <CharString name="quotedblright">
          -305 498 203 0 -20 hstemhm
          47 123 26 123 hintmask 01100000
          109 701 rmoveto
          -36 -26 -27 -37 hvcurveto
          hintmask 10100000
          -21 9 -19 18 -12 vhcurveto
          -38 -87 rlineto
          59 hlineto
          57 86 rlineto
          11 16 7 17 20 vvcurveto
          hintmask 01100000
          40 -29 24 -32 vhcurveto
          hintmask 01110000
          149 hmoveto
          -36 -26 -27 -37 hvcurveto
          hintmask 10110000
          -21 9 -19 18 -12 vhcurveto
          -38 -87 rlineto
          59 hlineto
          57 86 rlineto
          11 16 7 17 20 vvcurveto
          hintmask 01110000
          40 -29 24 -32 vhcurveto
          endchar
        </CharString>
        <CharString name="quoteleft">
          -424 619 87 0 -20 hstemhm
          36 123 hintmask 01100000
          170 706 rmoveto
          -59 hlineto
          -57 -87 rlineto
          -11 -16 -7 -16 -20 vvcurveto
          -41 29 -23 32 vhcurveto
          hintmask 10100000
          36 26 26 38 21 -9 19 -18 12 hvcurveto
          endchar
        </CharString>
        <CharString name="quoteright">
          -424 700 -20 hstem
          47 123 vstem
          109 700 rmoveto
          -36 -26 -26 -38 -21 9 -19 18 -12 hvcurveto
          -38 -86 rlineto
          59 hlineto
          57 86 rlineto
          11 16 7 16 20 vvcurveto
          41 -29 23 -32 vhcurveto
          endchar
        </CharString>
        <CharString name="quotesinglbase">
          -424 -82 203 hstem
          47 123 vstem
          109 121 rmoveto
          -36 -26 -27 -37 -21 9 -19 18 -12 hvcurveto
          -38 -87 rlineto
          59 hlineto
          57 86 rlineto
          11 16 7 17 20 vvcurveto
          40 -29 24 -32 vhcurveto
          endchar
        </CharString>
        <CharString name="quotesingle">
          -430 454 246 hstemhm
          60 88 hintmask 00000000
          hintmask 11000000
          148 454 rmoveto
          246 -88 -246 vlineto
          endchar
        </CharString>
        <CharString name="r">
          -244 21 -21 426 110 -4 -20 hstemhm
          85 115 hintmask 10110000
          200 532 rmoveto
          -115 -532 115 278 hlineto
          hintmask 11010000
          9 91 68 63 107 -6 rrcurveto
          110 vlineto
          -84 -64 -38 -72 -36 hvcurveto
          endchar
        </CharString>
        <CharString name="racute">
          -244 21 -21 426 110 -4 -20 194 -20 hstemhm
          85 115 hintmask 10111000
          238 608 rmoveto
          122 98 -118 50 -106 -148 rlineto
          64 -76 rmoveto
          -115 -532 115 278 hlineto
          hintmask 11011000
          9 91 68 63 107 -6 rrcurveto
          110 vlineto
          -84 -64 -38 -72 -36 hvcurveto
          endchar
        </CharString>
        <CharString name="radical">
          51 302 97 351 -20 hstem
          11 675 vstem
          213 399 rmoveto
          -202 -97 123 hlineto
          151 -456 rlineto
          123 hlineto
          278 904 rlineto
          -110 hlineto
          -229 -779 rlineto
          endchar
        </CharString>
        <CharString name="rcaron">
          -244 21 -21 426 110 -4 -20 90 150 hstemhm
          85 115 hintmask 10111000
          143 602 rmoveto
          114 hlineto
          108 150 rlineto
          -102 hlineto
          -63 -93 -63 93 rlineto
          -102 hlineto
          165 -220 rmoveto
          -115 -532 115 278 hlineto
          hintmask 11011000
          9 91 68 63 107 -6 rrcurveto
          110 vlineto
          -84 -64 -38 -72 -36 hvcurveto
          endchar
        </CharString>
        <CharString name="rcommaaccent">
          -244 21 -21 426 110 -4 -20 hstemhm
          84 123 -122 115 hintmask 10101000
          200 532 rmoveto
          -115 -532 115 278 hlineto
          hintmask 11001000
          9 91 68 63 107 -6 rrcurveto
          110 vlineto
          -84 -64 -38 -72 -36 hvcurveto
          hintmask 10110000
          -54 -475 rmoveto
          -36 -26 -27 -37 -21 9 -19 18 -12 hvcurveto
          -38 -86 rlineto
          59 hlineto
          57 86 rlineto
          11 16 7 17 19 vvcurveto
          40 -29 24 -32 vhcurveto
          endchar
        </CharString>
        <CharString name="registered">
          107 9 60 223 48 140 48 101 60 hstem
          34 57 153 57 162 54 137 57 vstem
          373 689 rmoveto
          -191 -148 -156 -185 -185 147 -154 190 191 149 156 185 186 -148 153 -190 hvcurveto
          -2 -620 rmoveto
          -159 -121 126 153 153 122 128 160 159 122 -126 -153 -153 -123 -128 -160 hvcurveto
          146 343 rmoveto
          74 -49 42 -88 vhcurveto
          -136 -338 57 102 79 hlineto
          15 hlineto
          63 -102 rlineto
          66 hlineto
          -78 113 rlineto
          46 18 25 38 53 vvcurveto
          -216 -72 rmoveto
          140 79 vlineto
          52 31 -24 -45 -45 -31 -26 -52 hvcurveto
          endchar
        </CharString>
        <CharString name="ring">
          569 52 128 52 hstem
          57 50 136 50 vstem
          175 801 rmoveto
          -65 -53 -53 -63 -64 53 -52 65 65 53 52 64 63 -53 53 -65 hvcurveto
          -52 vmoveto
          37 31 -29 -35 -35 -31 -29 -37 -37 -31 29 35 35 31 29 37 hvcurveto
          endchar
        </CharString>
        <CharString name="s">
          -168 -4 90 359 92 hstem
          48 109 170 112 vstem
          244 537 rmoveto
          -102 -94 -46 -108 hvcurveto
          -1 -192 280 61 -109 vvcurveto
          -40 -38 -17 -49 -58 -74 25 41 -46 vhcurveto
          -41 -82 rlineto
          -48 53 83 -26 78 hhcurveto
          107 97 49 109 hvcurveto
          1 193 -283 -53 98 vvcurveto
          38 33 15 45 47 59 -18 -29 47 vhcurveto
          42 85 rlineto
          34 -48 -71 20 -67 hhcurveto
          endchar
        </CharString>
        <CharString name="sacute">
          -168 -4 90 359 92 169 -20 hstem
          48 109 170 112 vstem
          398 706 rmoveto
          -118 50 -106 -148 rlineto
          102 hlineto
          -32 -71 rmoveto
          -102 -94 -46 -108 hvcurveto
          -1 -192 280 61 -109 vvcurveto
          -40 -38 -17 -49 -58 -74 25 41 -46 vhcurveto
          -41 -82 rlineto
          -48 53 83 -26 78 hhcurveto
          107 97 49 109 hvcurveto
          1 193 -283 -53 98 vvcurveto
          38 33 15 45 47 59 -18 -29 47 vhcurveto
          42 85 rlineto
          34 -48 -71 20 -67 hhcurveto
          endchar
        </CharString>
        <CharString name="scaron">
          -168 -4 90 359 92 65 150 hstem
          48 109 170 112 vstem
          73 752 rmoveto
          108 -150 rlineto
          114 hlineto
          108 150 rlineto
          -102 hlineto
          -63 -93 -63 93 rlineto
          69 -215 rmoveto
          -102 -94 -46 -108 hvcurveto
          -1 -192 280 61 -109 vvcurveto
          -40 -38 -17 -49 -58 -74 25 41 -46 vhcurveto
          -41 -82 rlineto
          -48 53 83 -26 78 hhcurveto
          107 97 49 109 hvcurveto
          1 193 -283 -53 98 vvcurveto
          38 33 15 45 47 59 -18 -29 47 vhcurveto
          42 85 rlineto
          34 -48 -71 20 -67 hhcurveto
          endchar
        </CharString>
        <CharString name="scedilla">
          -168 -224 62 -13 -21 193 89 359 92 hstemhm
          48 109 106 68 -4 112 hintmask 01111010
          157 392 rmoveto
          38 33 15 45 47 59 -18 -29 47 vhcurveto
          42 85 rlineto
          34 -48 -71 20 -67 hhcurveto
          -102 -94 -46 -108 hvcurveto
          -1 -192 280 61 -109 vvcurveto
          -40 -38 -17 -49 -58 -74 25 41 -46 vhcurveto
          -41 -82 rlineto
          hintmask 10111100
          49 -44 74 -26 72 -3 -36 -85 rcurveline
          3 11 13 2 11 hhcurveto
          33 15 -19 -19 -20 -17 -21 -29 -20 -21 7 13 -17 hvcurveto
          hintmask 01111010
          -22 -54 rlineto
          hintmask 10111100
          -17 23 32 -11 33 hhcurveto
          59 47 37 58 44 -28 27 -42 8 hvcurveto
          24 50 rlineto
          hintmask 01111010
          85 13 69 49 92 vvcurveto
          1 193 -283 -53 98 vvcurveto
          endchar
        </CharString>
        <CharString name="scommaaccent">
          -168 -4 90 359 92 hstemhm
          48 109 21 123 26 112 hintmask 11101000
          157 392 rmoveto
          38 33 15 45 47 59 -18 -29 47 vhcurveto
          42 85 rlineto
          34 -48 -71 20 -67 hhcurveto
          -102 -94 -46 -108 hvcurveto
          -1 -192 280 61 -109 vvcurveto
          -40 -38 -17 -49 -58 -74 25 41 -46 vhcurveto
          -41 -82 rlineto
          -48 53 83 -26 78 hhcurveto
          107 97 49 109 hvcurveto
          1 193 -283 -53 98 vvcurveto
          hintmask 11111000
          83 -441 rmoveto
          -36 -26 -27 -37 -21 9 -19 18 -12 hvcurveto
          -38 -86 rlineto
          59 hlineto
          57 86 rlineto
          11 16 7 17 19 vvcurveto
          40 -29 24 -32 vhcurveto
          endchar
        </CharString>
        <CharString name="section">
          -139 -85 82 15 -21 622 81 hstemhm
          42 100 -79 100 181 103 -81 102 hintmask 01110010
          259 694 rmoveto
          hintmask 01101010
          -119 -77 -60 -84 -53 25 -32 76 -31 hvcurveto
          hintmask 10110100
          -75 -18 -47 -46 -63 -182 302 47 -112 vvcurveto
          -35 -43 -28 -62 -61 -65 23 45 -57 vhcurveto
          hintmask 01110010
          -35 -74 rlineto
          hintmask 10110100
          -49 60 80 -27 81 hhcurveto
          123 82 62 86 58 -27 30 -60 26 hvcurveto
          hintmask 01101010
          60 18 48 53 58 186 -305 -51 113 vvcurveto
          35 38 24 59 45 53 -15 -31 54 vhcurveto
          36 74 rlineto
          hintmask 01110010
          36 -60 -64 17 -65 hhcurveto
          -17 -318 rmoveto
          72 52 -31 -46 -37 -33 -27 -64 -71 -56 33 47 37 36 24 64 hvcurveto
          endchar
        </CharString>
        <CharString name="semicolon">
          -422 288 132 hstem
          46 126 vstem
          109 288 rmoveto
          36 27 28 39 38 -27 27 -36 -36 -27 -27 -38 -39 27 -28 36 hvcurveto
          -167 vmoveto
          -36 -26 -27 -37 -21 9 -19 18 -12 hvcurveto
          -38 -87 rlineto
          59 hlineto
          57 86 rlineto
          11 16 7 17 20 vvcurveto
          40 -29 24 -32 vhcurveto
          endchar
        </CharString>
        <CharString name="seven">
          -68 21 -21 594 106 hstem
          37 104.5 vstem
          546 610 rmoveto
          90 -509 -204 104 vlineto
          1 98 rlineto
          272 hlineto
          -272 -594 rlineto
          125 hlineto
          endchar
        </CharString>
        <CharString name="seven.dnom">
          -264 21 -21 347 66 hstem
          32 74 vstem
          184 hmoveto
          167 353 rlineto
          60 -319 -127 74 61 154 vlineto
          -165 -347 rlineto
          endchar
        </CharString>
        <CharString name="seven.numr">
          -264 633 67 hstem
          32 74 vstem
          184 287 rmoveto
          167 353 rlineto
          60 -319 -128 74 61 154 vlineto
          -165 -346 rlineto
          endchar
        </CharString>
        <CharString name="seveneighths">
          243 -3 62 -38 -21 186 62 112 56 217 67 hstemhm
          32 74 403 79 -57 70 153 71 -58 79 hintmask 1011111001000000
          184 287 rmoveto
          167 353 rlineto
          60 -319 -128 74 61 154 vlineto
          -165 -346 rlineto
          hintmask 0111110110000000
          2 -287 rmoveto
          111 hlineto
          514 700 rlineto
          -110 hlineto
          65 -284 rmoveto
          -89 -57 -40 -65 -39 24 -33 40 -18 hvcurveto
          hintmask 1011111001000000
          -53 -18 -33 -39 -49 vvcurveto
          -73 65 -45 104 103 65 45 74 49 -31 38 -51 18 vhcurveto
          hintmask 1011111010000000
          37 17 24 32 38 vvcurveto
          hintmask 0111110110000000
          67 -58 41 -90 vhcurveto
          1 -56 rmoveto
          48 28 -21 -35 hvcurveto
          hintmask 1011110110000000
          -36 -28 -20 -48 -49 -28 20 36 vhcurveto
          hintmask 0111110110000000
          35 28 21 49 vhcurveto
          hintmask 1011111001000000
          -1 -174 rmoveto
          58 32 -23 -40 -41 -33 -23 -56 -57 -33 23 42 39 33 23 56 hvcurveto
          endchar
        </CharString>
        <CharString name="six">
          -23 -5 102 263 93 154 98 hstem
          48 115 306 110 vstem
          350 705 rmoveto
          -185 -117 -146 -223 -215 108 -126 177 149 97 90 145 136 -85 87 -140 -88 -66 -34 -65 -37 hvcurveto
          151 -4 63 102 136 hhcurveto
          53 59 -16 -28 43 hvcurveto
          46 89 rlineto
          32 -57 -83 21 -69 hhcurveto
          -18 -345 rmoveto
          85 52 -49 -80 -85 -57 -49 -85 -101 -45 69 61 1 hvcurveto
          72 -1 56 61 95 hhcurveto
          endchar
        </CharString>
        <CharString name="six.dnom">
          -237 -3 68 141 62 82 66 hstem
          38 82 172 78 vstem
          228 416 rmoveto
          -116 -74 -86 -131 -127 68 -75 110 93 61 53 86 80 -53 52 -83 -58 -41 -25 -38 -15 hvcurveto
          92 -7 42 53 77 hhcurveto
          34 34 -9 -17 27 hvcurveto
          32 60 rlineto
          20 -36 -51 12 -44 hhcurveto
          -13 -210 rmoveto
          48 29 -25 -44 -46 -31 -26 -49 -56 -25 36 33 41 31 31 53 hvcurveto
          endchar
        </CharString>
        <CharString name="six.numr">
          -237 283 69 140 63 81 67 hstem
          38 82 172 78 vstem
          228 703 rmoveto
          -116 -74 -86 -131 -127 68 -76 110 93 61 54 85 81 -53 52 -83 -58 -41 -25 -39 -15 hvcurveto
          92 -7 42 53 77 hhcurveto
          34 34 -9 -17 27 hvcurveto
          32 61 rlineto
          19 -36 -51 13 -44 hhcurveto
          -13 -211 rmoveto
          48 29 -25 -43 -46 -31 -26 -49 -56 -25 35 34 40 31 31 53 hvcurveto
          endchar
        </CharString>
        <CharString name="slash">
          -307 -117 933 hstem
          -21 415 vstem
          77 -117 rmoveto
          317 933 rlineto
          -98 hlineto
          -317 -933 rlineto
          endchar
        </CharString>
        <CharString name="softhyphen">
          -270 265 79 hstem
          61 246 vstem
          307 265 rmoveto
          79 -246 -79 vlineto
          endchar
        </CharString>
        <CharString name="space">
          -380 endchar
        </CharString>
        <CharString name="sterling">
          -91 0 96 202 84 217 106 hstem
          120 118 vstem
          238 96 rmoveto
          202 176 84 -176 98 vlineto
          79 38 40 69 49 48 -26 -50 42 vhcurveto
          47 92 rlineto
          58 -51 -71 32 -76 hhcurveto
          -136 -77 -80 -142 hvcurveto
          -101 -83 -84 83 -202 -83 -96 481 96 vlineto
          endchar
        </CharString>
        <CharString name="summation">
          -27 -138 106 669 106 hstem
          32 576 vstem
          598 637 rmoveto
          106 -558 -92 vlineto
          286 -345 -294 -353 rlineto
          -91 576 106 -434 vlineto
          279 339 -277 330 rlineto
          endchar
        </CharString>
        <CharString name="t">
          -231 -5 104 327 86 hstem
          106 114 vstem
          357 122 rmoveto
          -15 -31 -25 -8 -24 hhcurveto
          -36 -21 17 55 hvcurveto
          255 157 86 -157 146 -114 -146 -75 -86 75 -276 vlineto
          -109 69 -46 80 45 44 14 25 42 vhcurveto
          endchar
        </CharString>
        <CharString name="tcaron">
          -256 -5 104 327 86 74 72 hstem
          106 114 68 123 vstem
          350 789 rmoveto
          -36 -26 -27 -37 -21 9 -19 18 -12 hvcurveto
          -38 -87 rlineto
          59 hlineto
          57 86 rlineto
          11 16 7 17 20 vvcurveto
          40 -29 24 -32 vhcurveto
          -73 -690 rmoveto
          -36 -21 17 55 hvcurveto
          255 157 86 -157 146 -114 -146 -75 -86 75 -276 vlineto
          -109 69 -46 80 45 44 14 25 42 vhcurveto
          -29 88 rlineto
          -15 -31 -25 -8 -24 hhcurveto
          endchar
        </CharString>
        <CharString name="tcedilla">
          -231 -224 62 -13 -21 214 -21 429 86 hstemhm
          106 114 54 68 hintmask 01111000
          295 -1 rmoveto
          31 5 31 12 29 18 -29 88 rcurveline
          -15 -31 -25 -8 -24 hhcurveto
          -36 -21 17 55 hvcurveto
          255 157 86 -157 146 -114 -146 -75 -86 75 -276 vlineto
          -96 54 -47 67 -10 vhcurveto
          hintmask 10111100
          -36 -85 rlineto
          3 11 13 2 11 hhcurveto
          33 15 -19 -19 -20 -17 -21 -29 -20 -21 7 13 -17 hvcurveto
          hintmask 01111000
          -22 -54 rlineto
          hintmask 10111100
          -17 23 32 -11 33 hhcurveto
          59 47 37 58 44 -28 27 -42 8 hvcurveto
          endchar
        </CharString>
        <CharString name="tcommaaccent">
          -231 -5 104 327 86 hstemhm
          106 114 -31 123 hintmask 11100000
          357 122 rmoveto
          -15 -31 -25 -8 -24 hhcurveto
          -36 -21 17 55 hvcurveto
          255 157 86 -157 146 -114 -146 -75 -86 75 -276 vlineto
          -109 69 -46 80 45 44 14 25 42 vhcurveto
          hintmask 11010000
          -135 -83 rmoveto
          -36 -26 -27 -37 -21 9 -19 18 -12 hvcurveto
          -38 -86 rlineto
          59 hlineto
          57 86 rlineto
          11 16 7 17 19 vvcurveto
          40 -29 24 -32 vhcurveto
          endchar
        </CharString>
        <CharString name="thorn">
          42 -173 -21 190 98 346 96 206 -20 hstem
          90 115 324 116 vstem
          391 536 rmoveto
          -83 -64 -34 -62 -39 hvcurveto
          302 -115 -936 115 286 vlineto
          -62 39 64 -34 85 hhcurveto
          152 100 109 159 162 -103 110 -151 hvcurveto
          -24 -442 rmoveto
          -95 -67 71 103 100 67 72 95 95 67 -73 -99 -102 -67 -72 -95 hvcurveto
          endchar
        </CharString>
        <CharString name="three">
          -99 -5 99 235 78 187 105 hstem
          379 116 vstem
          262 409 rmoveto
          200 216 rlineto
          74 -426 -105 280 vlineto
          -182 -196 rlineto
          -69 97 vlineto
          93 55 -39 -76 -72 -54 -48 -93 -64 -65 26 47 -50 hvcurveto
          -49 -96 rlineto
          -46 60 90 -30 86 hhcurveto
          156 99 91 131 110 -80 68 -117 10 hvcurveto
          endchar
        </CharString>
        <CharString name="three.dnom">
          -283 -3 64 128 52.5 107.5 63 hstem
          238 82 vstem
          181 243 rmoveto
          119 120 rlineto
          49 -269 -63 173 vlineto
          -112 -114 rlineto
          -46 62 vlineto
          53 31 -21 -41 -40 -31 -26 -52 -40 -38 16 31 -31 hvcurveto
          -35 -65 rlineto
          -28 37 58 -18 55 hhcurveto
          97 62 54 77 65 -48 40 -69 7 hvcurveto
          endchar
        </CharString>
        <CharString name="three.numr">
          -283 283 64 129 52 108 62 hstem
          238 82 vstem
          181 529 rmoveto
          119 120 rlineto
          49 -269 -62 173 vlineto
          -112 -114 rlineto
          -46 62 vlineto
          53 31 -21 -41 -41 -31 -26 -52 -40 -38 17 31 -31 hvcurveto
          -35 -66 rlineto
          -27 37 58 -19 55 hhcurveto
          97 62 55 77 65 -48 40 -69 7 hvcurveto
          endchar
        </CharString>
        <CharString name="threeeighths">
          258 -3 62 -38 -21 186 62 35 64 13 56 60 52 108 62 hstemhm
          238 82 204 79 -57 70 153 71 -58 79 hintmask 0000000000000000
          hintmask 0111111110010000
          112 hmoveto
          111 hlineto
          514 700 rlineto
          -110 hlineto
          -446 -171 rmoveto
          119 120 rlineto
          49 -269 -62 173 vlineto
          -112 -114 rlineto
          -46 62 vlineto
          53 31 -21 -41 -41 -31 -26 -52 -40 -38 17 31 -31 hvcurveto
          -35 -66 rlineto
          -27 37 58 -19 55 hhcurveto
          97 62 55 77 65 -48 40 -69 7 hvcurveto
          hintmask 1010111101100000
          489 -111 rmoveto
          -89 -57 -40 -65 -39 24 -33 40 -18 hvcurveto
          hintmask 1010111110010000
          -53 -18 -33 -39 -49 vvcurveto
          -73 65 -45 104 103 65 45 74 49 -31 38 -51 18 vhcurveto
          hintmask 1010111110100000
          37 17 24 32 38 vvcurveto
          hintmask 1010111101100000
          67 -58 41 -90 vhcurveto
          1 -56 rmoveto
          48 28 -21 -35 -36 -28 -20 -48 -49 -28 20 36 35 28 21 49 hvcurveto
          hintmask 1010111110010000
          -1 -174 rmoveto
          58 32 -23 -40 -41 -33 -23 -56 -57 -33 23 42 39 33 23 56 hvcurveto
          endchar
        </CharString>
        <CharString name="threequarters">
          240 0 159 -62 62 124 64 129 52 108 62 hstemhm
          238 82 397 79 hintmask 10111110
          112 hmoveto
          111 hlineto
          514 700 rlineto
          -110 hlineto
          -446 -171 rmoveto
          119 120 rlineto
          49 -269 -62 173 vlineto
          -112 -114 rlineto
          -46 62 vlineto
          53 31 -21 -41 -41 -31 -26 -52 -40 -38 17 31 -31 hvcurveto
          -35 -66 rlineto
          -27 37 58 -19 55 hhcurveto
          97 62 55 77 65 -48 40 -69 7 hvcurveto
          514 -368 rmoveto
          -120 hlineto
          139 254 rlineto
          -80 hlineto
          hintmask 01111110
          -143 -257 rlineto
          -59 204 vlineto
          hintmask 10111110
          -97 79 vlineto
          hintmask 01111110
          97 61 vlineto
          hintmask 10111110
          62 -61 vlineto
          hintmask 01111110
          102 -79 vlineto
          endchar
        </CharString>
        <CharString name="threesuperior">
          -283 283 64 129 52 108 62 hstem
          238 82 vstem
          181 529 rmoveto
          119 120 rlineto
          49 -269 -62 173 vlineto
          -112 -114 rlineto
          -46 62 vlineto
          53 31 -21 -41 -41 -31 -26 -52 -40 -38 17 31 -31 hvcurveto
          -35 -66 rlineto
          -27 37 58 -19 55 hhcurveto
          97 62 55 77 65 -48 40 -69 7 hvcurveto
          endchar
        </CharString>
        <CharString name="tilde">
          621 82 -82 131 -76 82 hstemhm
          14 74 175 73 hintmask 00000000
          hintmask 00111000
          106 758 rmoveto
          -60 -32 -44 -87 hvcurveto
          74 hlineto
          32 13 17 24 vhcurveto
          hintmask 10011000
          35 25 -55 60 hhcurveto
          hintmask 01011000
          60 31 44 87 hvcurveto
          -73 hlineto
          hintmask 10011000
          -32 -13 -17 -25 vhcurveto
          hintmask 00111000
          -34 -30 55 -55 hhcurveto
          endchar
        </CharString>
        <CharString name="trademark">
          248 626 74 hstem
          117 85 180 78 297 77 vstem
          325 626 rmoveto
          74 -330 -74 122 -346 85 346 vlineto
          632 -346 rmoveto
          420 -98 vlineto
          -128 -267 -128 267 rlineto
          -98 -420 78 297 hlineto
          120 -254 rlineto
          56 hlineto
          121 254 rlineto
          -297 vlineto
          endchar
        </CharString>
        <CharString name="two">
          -50 0 106 496 103 hstem
          388 123 vstem
          288 705 rmoveto
          -90 -89 -38 -62 -76 hvcurveto
          47 -91 rlineto
          54 59 71 34 61 hhcurveto
          73 44 -34 -56 -40 -34 -57 -51 -52 hvcurveto
          -258 -277 rlineto
          -86 498 106 -342 vlineto
          182 193 rlineto
          74 80 54 79 71 vvcurveto
          107 -91 69 -132 vhcurveto
          endchar
        </CharString>
        <CharString name="two.dnom">
          -255 0 67 280 69 hstem
          243 87 vstem
          191 416 rmoveto
          -58 -56 -22 -38 -49 hvcurveto
          33 -61 rlineto
          32 37 44 20 36 hhcurveto
          41 24 -18 -29 -22 -20 -32 -29 -29 hvcurveto
          -157 -160 rlineto
          -57 311 67 -206 vlineto
          108 108 rlineto
          48 46 32 47 43 vvcurveto
          64 -57 41 -82 vhcurveto
          endchar
        </CharString>
        <CharString name="two.numr">
          -255 287 66 280 70 hstem
          243 87 vstem
          191 703 rmoveto
          -58 -56 -23 -37 -49 hvcurveto
          33 -62 rlineto
          32 37 44 20 36 hhcurveto
          41 24 -17 -30 -22 -20 -32 -29 -28 hvcurveto
          -157 -161 rlineto
          -56 311 66 -206 vlineto
          108 109 rlineto
          48 46 32 47 43 vvcurveto
          64 -57 41 -82 vhcurveto
          endchar
        </CharString>
        <CharString name="twosuperior">
          -255 287 66 280 70 hstem
          243 87 vstem
          191 703 rmoveto
          -58 -56 -23 -37 -49 hvcurveto
          33 -62 rlineto
          32 37 44 20 36 hhcurveto
          41 24 -17 -30 -22 -20 -32 -29 -28 hvcurveto
          -157 -161 rlineto
          -56 311 66 -206 vlineto
          108 109 rlineto
          48 46 32 47 43 vvcurveto
          64 -57 41 -82 vhcurveto
          endchar
        </CharString>
        <CharString name="u">
          15 -4 108 -83 -21 532 -20 hstemhm
          68 115 270 115 hintmask 10111000
          568 532 rmoveto
          -115 -262 hlineto
          -93 -54 -71 -92 -2 vhcurveto
          -77 -47 49 80 hvcurveto
          299 -115 -331 vlineto
          -127 73 -78 122 vhcurveto
          87 1 67 33 36 74 rrcurveto
          hintmask 01111000
          -104 115 vlineto
          endchar
        </CharString>
        <CharString name="uacute">
          15 -4 108 -83 -21 532 -20 194 -20 hstemhm
          68 115 270 115 hintmask 10111100
          358 608 rmoveto
          122 98 -118 50 -106 -148 rlineto
          312 -76 rmoveto
          -115 -262 hlineto
          -93 -54 -71 -92 -2 vhcurveto
          -77 -47 49 80 hvcurveto
          299 -115 -331 vlineto
          -127 73 -78 122 vhcurveto
          87 1 67 33 36 74 rrcurveto
          hintmask 01111100
          -104 115 vlineto
          endchar
        </CharString>
        <CharString name="ucircumflex">
          15 -4 108 -83 -21 532 -20 99 141 -53 53 hstemhm
          68 115 270 115 hintmask 10110110
          261 611 rmoveto
          hintmask 10101110
          62 88 rlineto
          hintmask 10110110
          62 -88 rlineto
          94 hlineto
          -103 141 rlineto
          -106 hlineto
          -103 -141 rlineto
          401 -79 rmoveto
          -115 -262 hlineto
          -93 -54 -71 -92 -2 vhcurveto
          -77 -47 49 80 hvcurveto
          299 -115 -331 vlineto
          -127 73 -78 122 vhcurveto
          87 1 67 33 36 74 rrcurveto
          hintmask 01110110
          -104 115 vlineto
          endchar
        </CharString>
        <CharString name="udieresis">
          15 -4 108 -83 -21 532 -20 114 127 hstemhm
          68 115 -9 121 56 121 -19 115 hintmask 00000000
          hintmask 10110110
          235 626 rmoveto
          35 25 27 36 37 -25 27 -35 -35 -26 -27 -37 -36 26 -27 35 hvcurveto
          177 hmoveto
          35 25 27 36 37 -25 27 -35 -35 -26 -27 -37 -36 26 -27 35 hvcurveto
          hintmask 10111001
          156 -94 rmoveto
          -115 -262 hlineto
          -93 -54 -71 -92 -2 vhcurveto
          -77 -47 49 80 hvcurveto
          299 -115 -331 vlineto
          -127 73 -78 122 vhcurveto
          87 1 67 33 36 74 rrcurveto
          hintmask 01111001
          -104 115 vlineto
          endchar
        </CharString>
        <CharString name="ugrave">
          15 -4 108 -83 -21 532 -20 195 -20 hstemhm
          68 115 270 115 hintmask 10111100
          283 609 rmoveto
          102 hlineto
          -106 148 -118 -50 rlineto
          407 -175 rmoveto
          -115 -262 hlineto
          -93 -54 -71 -92 -2 vhcurveto
          -77 -47 49 80 hvcurveto
          299 -115 -331 vlineto
          -127 73 -78 122 vhcurveto
          87 1 67 33 36 74 rrcurveto
          hintmask 01111100
          -104 115 vlineto
          endchar
        </CharString>
        <CharString name="uhungarumlaut">
          15 -4 108 -83 -21 532 -20 hstemhm
          68 115 270 115 hintmask 10111000
          266 606 rmoveto
          92 110 -98 44 -83 -154 rlineto
          165 hmoveto
          89 hlineto
          92 110 -98 44 rlineto
          143 -228 rmoveto
          -115 -262 hlineto
          -93 -54 -71 -92 -2 vhcurveto
          -77 -47 49 80 hvcurveto
          299 -115 -331 vlineto
          -127 73 -78 122 vhcurveto
          87 1 67 33 36 74 rrcurveto
          hintmask 01111000
          -104 115 vlineto
          endchar
        </CharString>
        <CharString name="umacron">
          15 -4 108 -83 -21 532 -20 129 83 hstemhm
          68 115 13 255 2 115 hintmask 00000000
          hintmask 10111100
          451 641 rmoveto
          83 -255 -83 vlineto
          hintmask 10111010
          372 -109 rmoveto
          -115 -262 hlineto
          -93 -54 -71 -92 -2 vhcurveto
          -77 -47 49 80 hvcurveto
          299 -115 -331 vlineto
          -127 73 -78 122 vhcurveto
          87 1 67 33 36 74 rrcurveto
          hintmask 01111010
          -104 115 vlineto
          endchar
        </CharString>
        <CharString name="underscore">
          -72 -204 70 hstem
          0 566 vstem
          566 -204 rmoveto
          70 -566 -70 vlineto
          endchar
        </CharString>
        <CharString name="uogonek">
          10 -201 64 133 108 -83 -21 532 -20 hstemhm
          69 114 247 62 -39 114 hintmask 00000000
          hintmask 10111010
          567 hmoveto
          532 -114 -283 vlineto
          hintmask 11011010
          -8 -82 -53 -61 -84 -2 rrcurveto
          -77 -48 49 80 hvcurveto
          299 -114 -331 vlineto
          -127 72 -78 122 vhcurveto
          87 1 66 32 37 70 rrcurveto
          hintmask 10111010
          -99 vlineto
          hintmask 10111100
          29 hlineto
          -33 -47 -19 -39 -37 vvcurveto
          -55 41 -23 38 37 35 21 36 23 vhcurveto
          -33 39 rlineto
          -19 -15 -16 -13 -18 hhcurveto
          -18 -12 12 20 23 14 34 36 48 hvcurveto
          endchar
        </CharString>
        <CharString name="uring">
          15 -4 108 -83 -21 532 -20 57 52 128 52 hstemhm
          68 115 22 50 136 50 12 115 hintmask 0000000000000000
          hintmask 1011111110000000
          323 569 rmoveto
          65 53 52 64 63 -53 53 -65 -65 -53 -53 -63 -64 53 -52 65 hvcurveto
          180 vmoveto
          37 31 -29 -35 -35 -31 -29 -37 -37 -31 29 35 35 31 29 37 hvcurveto
          hintmask 1011110010000000
          245 -217 rmoveto
          -115 -262 hlineto
          -93 -54 -71 -92 -2 vhcurveto
          -77 -47 49 80 hvcurveto
          299 -115 -331 vlineto
          -127 73 -78 122 vhcurveto
          87 1 67 33 36 74 rrcurveto
          hintmask 0111110010000000
          -104 115 vlineto
          endchar
        </CharString>
        <CharString name="v">
          -113 0 113 -92 -21 532 -20 hstemhm
          1 529 hintmask 01110000
          326 hmoveto
          204 532 rlineto
          -115 hlineto
          hintmask 10110000
          -146 -419 -148 419 rlineto
          -120 hlineto
          206 -532 rlineto
          endchar
        </CharString>
        <CharString name="w">
          255 0 114 -93 -21 394 138 0 -20 hstemhm
          1 897 hintmask 01011000
          704 hmoveto
          194 532 rlineto
          -117 hlineto
          hintmask 10011000
          -136 -418 -135 418 rlineto
          -119 hlineto
          -134 -418 -138 418 rlineto
          -118 hlineto
          196 -532 rlineto
          118 hlineto
          hintmask 01101000
          135 394 135 -394 rlineto
          endchar
        </CharString>
        <CharString name="wacute">
          255 0 114 -93 -21 394 138 0 -20 194 -20 hstemhm
          1 897 hintmask 01011100
          604 706 rmoveto
          -118 50 -106 -148 rlineto
          102 hlineto
          222 -608 rmoveto
          194 532 rlineto
          -117 hlineto
          hintmask 10011100
          -136 -418 -135 418 rlineto
          -119 hlineto
          -134 -418 -138 418 rlineto
          -118 hlineto
          196 -532 rlineto
          118 hlineto
          hintmask 01101100
          135 394 135 -394 rlineto
          endchar
        </CharString>
        <CharString name="wcircumflex">
          255 0 114 -93 -21 394 138 0 -20 99 141 -53 53 hstemhm
          1 897 hintmask 01011010
          603 611 rmoveto
          -103 141 rlineto
          -106 hlineto
          -103 -141 rlineto
          94 hlineto
          hintmask 01010110
          62 88 rlineto
          hintmask 01011010
          62 -88 rlineto
          195 -611 rmoveto
          194 532 rlineto
          -117 hlineto
          hintmask 10011010
          -136 -418 -135 418 rlineto
          -119 hlineto
          -134 -418 -138 418 rlineto
          -118 hlineto
          196 -532 rlineto
          118 hlineto
          hintmask 01101010
          135 394 135 -394 rlineto
          endchar
        </CharString>
        <CharString name="wdieresis">
          255 0 114 -93 -21 394 138 0 -20 114 127 hstemhm
          298 121 56 121 hintmask 01011110
          359 753 rmoveto
          -35 -26 -27 -37 -36 26 -27 35 35 25 27 36 37 -25 27 -35 hvcurveto
          177 hmoveto
          -35 -26 -27 -37 -36 26 -27 35 35 25 27 36 37 -25 27 -35 hvcurveto
          168 -753 rmoveto
          194 532 rlineto
          -117 hlineto
          hintmask 10011110
          -136 -418 -135 418 rlineto
          -119 hlineto
          -134 -418 -138 418 rlineto
          -118 hlineto
          196 -532 rlineto
          118 hlineto
          hintmask 01101110
          135 394 135 -394 rlineto
          endchar
        </CharString>
        <CharString name="wgrave">
          255 0 114 -93 -21 394 138 0 -20 195 -20 hstemhm
          1 897 hintmask 01011100
          509 609 rmoveto
          -106 148 -118 -50 122 -98 rlineto
          297 -609 rmoveto
          194 532 rlineto
          -117 hlineto
          hintmask 10011100
          -136 -418 -135 418 rlineto
          -119 hlineto
          -134 -418 -138 418 rlineto
          -118 hlineto
          196 -532 rlineto
          118 hlineto
          hintmask 01101100
          135 394 135 -394 rlineto
          endchar
        </CharString>
        <CharString name="x">
          -84 21 -21 532 -20 hstem
          14 523 vstem
          278 350 rmoveto
          -119 182 rlineto
          -132 hlineto
          175 -259 -188 -273 rlineto
          128 hlineto
          136 195 127 -195 rlineto
          132 hlineto
          -183 273 171 259 rlineto
          -126 hlineto
          endchar
        </CharString>
        <CharString name="y">
          -107 -199 108 623 -20 hstem
          -5 541 vstem
          536 532 rmoveto
          -115 hlineto
          -148 -403 -159 403 rlineto
          -119 hlineto
          220 -524 -18 -40 rlineto
          -40 -18 -28 -19 -35 hhcurveto
          -24 -20 8 18 -25 hvcurveto
          -49 -89 rlineto
          -31 37 38 -14 48 hhcurveto
          80 60 42 84 33 hvcurveto
          endchar
        </CharString>
        <CharString name="yacute">
          -107 -199 108 623 -20 194 -20 hstem
          -5 541 vstem
          424 706 rmoveto
          -118 50 -106 -148 rlineto
          102 hlineto
          234 -76 rmoveto
          -115 hlineto
          -148 -403 -159 403 rlineto
          -119 hlineto
          220 -524 -18 -40 rlineto
          -40 -18 -28 -19 -35 hhcurveto
          -24 -20 8 18 -25 hvcurveto
          -49 -89 rlineto
          -31 37 38 -14 48 hhcurveto
          80 60 42 84 33 hvcurveto
          endchar
        </CharString>
        <CharString name="ycircumflex">
          -107 -199 108 623 -20 99 141 -53 53 hstemhm
          -5 541 hintmask 11101000
          423 611 rmoveto
          -103 141 rlineto
          -106 hlineto
          -103 -141 rlineto
          94 hlineto
          hintmask 11011000
          62 88 rlineto
          hintmask 11101000
          62 -88 rlineto
          207 -79 rmoveto
          -115 hlineto
          -148 -403 -159 403 rlineto
          -119 hlineto
          220 -524 -18 -40 rlineto
          -40 -18 -28 -19 -35 hhcurveto
          -24 -20 8 18 -25 hvcurveto
          -49 -89 rlineto
          -31 37 38 -14 48 hhcurveto
          80 60 42 84 33 hvcurveto
          endchar
        </CharString>
        <CharString name="ydieresis">
          -107 -199 108 623 -20 114 127 hstem
          118 121 56 121 vstem
          179 753 rmoveto
          -35 -26 -27 -37 -36 26 -27 35 35 25 27 36 37 -25 27 -35 hvcurveto
          177 hmoveto
          -35 -26 -27 -37 -36 26 -27 35 35 25 27 36 37 -25 27 -35 hvcurveto
          180 -221 rmoveto
          -115 hlineto
          -148 -403 -159 403 rlineto
          -119 hlineto
          220 -524 -18 -40 rlineto
          -40 -18 -28 -19 -35 hhcurveto
          -24 -20 8 18 -25 hvcurveto
          -49 -89 rlineto
          -31 37 38 -14 48 hhcurveto
          80 60 42 84 33 hvcurveto
          endchar
        </CharString>
        <CharString name="yen">
          -10 0 189 -50 50 83 50 378 -20 hstemhm
          262 118 hintmask 01111000
          428 322 rmoveto
          208 378 rlineto
          -120 hlineto
          -196 -341 -200 341 rlineto
          -119 hlineto
          210 -378 rlineto
          -136 -50 163 hlineto
          24 -43 rlineto
          -40 -187 -50 187 vlineto
          hintmask 10111000
          -139 118 vlineto
          hintmask 01111000
          139 195 50 -195 45 vlineto
          21 38 rlineto
          174 50 hlineto
          endchar
        </CharString>
        <CharString name="ygrave">
          -107 -199 108 623 -20 195 -20 hstem
          -5 541 vstem
          329 609 rmoveto
          -106 148 -118 -50 122 -98 rlineto
          309 -77 rmoveto
          -115 hlineto
          -148 -403 -159 403 rlineto
          -119 hlineto
          220 -524 -18 -40 rlineto
          -40 -18 -28 -19 -35 hhcurveto
          -24 -20 8 18 -25 hvcurveto
          -49 -89 rlineto
          -31 37 38 -14 48 hhcurveto
          80 60 42 84 33 hvcurveto
          endchar
        </CharString>
        <CharString name="z">
          -101 -1 94.5 344.5 94 hstem
          45 455 vstem
          491 454 rmoveto
          77 vlineto
          -437 1 rlineto
          -94 295 vlineto
          -304 -360 rlineto
          -78 vlineto
          455 -1 rlineto
          94 vlineto
          -313 1 rlineto
          endchar
        </CharString>
        <CharString name="zacute">
          -101 -1 94.5 344.5 94 174 -20 hstem
          45 455 vstem
          425 706 rmoveto
          -118 50 -106 -148 rlineto
          102 hlineto
          188 -154 rmoveto
          77 vlineto
          -437 1 rlineto
          -94 295 vlineto
          -304 -360 rlineto
          -78 vlineto
          455 -1 rlineto
          94 vlineto
          -313 1 rlineto
          endchar
        </CharString>
        <CharString name="zcaron">
          -101 -1 94.5 344.5 94 70 150 hstem
          45 455 vstem
          100 752 rmoveto
          108 -150 rlineto
          114 hlineto
          108 150 rlineto
          -102 hlineto
          -63 -93 -63 93 rlineto
          289 -298 rmoveto
          77 vlineto
          -437 1 rlineto
          -94 295 vlineto
          -304 -360 rlineto
          -78 vlineto
          455 -1 rlineto
          94 vlineto
          -313 1 rlineto
          endchar
        </CharString>
        <CharString name="zdotaccent">
          -101 -1 94.5 344.5 94 83 139 hstem
          201 134 vstem
          268 754 rmoveto
          -38 -29 -29 -41 -40 29 -29 38 38 29 29 40 41 -29 29 -38 hvcurveto
          223 -300 rmoveto
          77 vlineto
          -437 1 rlineto
          -94 295 vlineto
          -304 -360 rlineto
          -78 vlineto
          455 -1 rlineto
          94 vlineto
          -313 1 rlineto
          endchar
        </CharString>
        <CharString name="zero">
          53 -3 93 520 93 hstem
          48 121 353 121 vstem
          346 703 rmoveto
          -192 -106 -126 -227 -227 106 -126 192 191 106 126 227 227 -106 126 -191 hvcurveto
          -93 vmoveto
          117 59 -82 -178 -177 -59 -83 -117 -118 -59 83 177 178 59 82 118 hvcurveto
          endchar
        </CharString>
        <CharString name="zero.dnom">
          -191 -2 68 282 67 hstem
          38 77 217 76 vstem
          223 415 rmoveto
          -115 -70 -78 -130 -131 70 -78 115 115 70 78 131 130 -70 78 -115 hvcurveto
          -67 vmoveto
          69 40 -52 -89 -90 -40 -51 -69 -69 -39 51 90 89 39 52 69 hvcurveto
          endchar
        </CharString>
        <CharString name="zero.numr">
          -191 284 68 282 68 hstem
          38 77 217 76 vstem
          223 702 rmoveto
          -115 -70 -78 -130 -131 70 -79 115 115 70 79 131 130 -70 78 -115 hvcurveto
          -68 vmoveto
          69 40 -51 -89 -90 -40 -52 -69 -69 -39 52 90 89 39 51 69 hvcurveto
          endchar
        </CharString>
</ttFont>
